Istok-Regular.ufo
<glyph name="numbersign" format="2">
  <advance width="1390"/>
  <unicode hex="0023"/>
  <outline>
    <contour>
      <point x="121.0" y="375.0" type="line" smooth="yes"/>
      <point x="76.0" y="375.0"/>
      <point x="82.0" y="410.0" type="qcurve" smooth="yes"/>
      <point x="91.0" y="460.0" type="line" smooth="yes"/>
      <point x="97.0" y="495.0"/>
      <point x="142.0" y="495.0" type="qcurve" smooth="yes"/>
      <point x="357.0" y="495.0" type="line"/>
      <point x="433.0" y="927.0" type="line"/>
      <point x="218.0" y="927.0" type="line" smooth="yes"/>
      <point x="174.0" y="927.0"/>
      <point x="180.0" y="962.0" type="qcurve" smooth="yes"/>
      <point x="188.0" y="1012.0" type="line" smooth="yes"/>
      <point x="194.0" y="1047.0"/>
      <point x="240.0" y="1047.0" type="qcurve" smooth="yes"/>
      <point x="455.0" y="1047.0" type="line"/>
      <point x="513.0" y="1377.0" type="line" smooth="yes"/>
      <point x="521.0" y="1422.0"/>
      <point x="556.0" y="1422.0" type="qcurve" smooth="yes"/>
      <point x="618.0" y="1422.0" type="line" smooth="yes"/>
      <point x="653.0" y="1422.0"/>
      <point x="645.0" y="1377.0" type="qcurve" smooth="yes"/>
      <point x="587.0" y="1047.0" type="line"/>
      <point x="923.0" y="1047.0" type="line"/>
      <point x="981.0" y="1377.0" type="line" smooth="yes"/>
      <point x="989.0" y="1422.0"/>
      <point x="1024.0" y="1422.0" type="qcurve" smooth="yes"/>
      <point x="1086.0" y="1422.0" type="line" smooth="yes"/>
      <point x="1121.0" y="1422.0"/>
      <point x="1113.0" y="1377.0" type="qcurve" smooth="yes"/>
      <point x="1055.0" y="1047.0" type="line"/>
      <point x="1270.0" y="1047.0" type="line" smooth="yes"/>
      <point x="1314.0" y="1047.0"/>
      <point x="1308.0" y="1012.0" type="qcurve" smooth="yes"/>
      <point x="1300.0" y="962.0" type="line" smooth="yes"/>
      <point x="1294.0" y="927.0"/>
      <point x="1248.0" y="927.0" type="qcurve" smooth="yes"/>
      <point x="1033.0" y="927.0" type="line"/>
      <point x="957.0" y="495.0" type="line"/>
      <point x="1172.0" y="495.0" type="line" smooth="yes"/>
      <point x="1217.0" y="495.0"/>
      <point x="1211.0" y="460.0" type="qcurve" smooth="yes"/>
      <point x="1202.0" y="410.0" type="line" smooth="yes"/>
      <point x="1196.0" y="375.0"/>
      <point x="1151.0" y="375.0" type="qcurve" smooth="yes"/>
      <point x="936.0" y="375.0" type="line"/>
      <point x="878.0" y="45.0" type="line" smooth="yes"/>
      <point x="870.0" y="0.0"/>
      <point x="835.0" y="0.0" type="qcurve" smooth="yes"/>
      <point x="773.0" y="0.0" type="line" smooth="yes"/>
      <point x="738.0" y="0.0"/>
      <point x="746.0" y="45.0" type="qcurve" smooth="yes"/>
      <point x="804.0" y="375.0" type="line"/>
      <point x="468.0" y="375.0" type="line"/>
      <point x="410.0" y="45.0" type="line" smooth="yes"/>
      <point x="402.0" y="0.0"/>
      <point x="367.0" y="0.0" type="qcurve" smooth="yes"/>
      <point x="305.0" y="0.0" type="line" smooth="yes"/>
      <point x="270.0" y="0.0"/>
      <point x="278.0" y="45.0" type="qcurve" smooth="yes"/>
      <point x="336.0" y="375.0" type="line"/>
    </contour>
    <contour>
      <point x="489.0" y="495.0" type="line"/>
      <point x="825.0" y="495.0" type="line"/>
      <point x="901.0" y="927.0" type="line"/>
      <point x="565.0" y="927.0" type="line"/>
    </contour>
  </outline>
</glyph>
<glyph name="ampersand" format="2">
  <advance width="1382"/>
  <unicode hex="0026"/>
  <outline>
    <contour>
      <point x="120.0" y="326.0" type="qcurve" smooth="yes"/>
      <point x="120.0" y="429.0"/>
      <point x="221.0" y="654.0"/>
      <point x="446.0" y="817.0" type="qcurve"/>
      <point x="396.0" y="874.0"/>
      <point x="287.0" y="1041.0"/>
      <point x="287.0" y="1164.0" type="qcurve" smooth="yes"/>
      <point x="287.0" y="1284.0"/>
      <point x="453.0" y="1464.0"/>
      <point x="637.0" y="1464.0" type="qcurve" smooth="yes"/>
      <point x="750.0" y="1464.0"/>
      <point x="961.0" y="1343.0"/>
      <point x="961.0" y="1179.0" type="qcurve" smooth="yes"/>
      <point x="961.0" y="1073.0"/>
      <point x="816.0" y="885.0"/>
      <point x="694.0" y="793.0" type="qcurve"/>
      <point x="1008.0" y="418.0" type="line"/>
      <point x="1048.0" y="460.0"/>
      <point x="1136.0" y="610.0"/>
      <point x="1148.0" y="658.0" type="qcurve" smooth="yes"/>
      <point x="1160.0" y="704.0"/>
      <point x="1199.0" y="692.0" type="qcurve" smooth="yes"/>
      <point x="1275.0" y="668.0" type="line" smooth="yes"/>
      <point x="1318.0" y="654.0"/>
      <point x="1304.0" y="614.0" type="qcurve" smooth="yes"/>
      <point x="1274.0" y="524.0"/>
      <point x="1154.0" y="342.0"/>
      <point x="1109.0" y="297.0" type="qcurve"/>
      <point x="1310.0" y="58.0" type="line" smooth="yes"/>
      <point x="1359.0" y="0.0"/>
      <point x="1292.0" y="0.0" type="qcurve" smooth="yes"/>
      <point x="1191.0" y="0.0" type="line" smooth="yes"/>
      <point x="1133.0" y="-0.0"/>
      <point x="1097.0" y="43.0" type="qcurve" smooth="yes"/>
      <point x="987.0" y="173.0" type="line"/>
      <point x="894.0" y="82.0"/>
      <point x="688.0" y="-30.0"/>
      <point x="519.0" y="-30.0" type="qcurve" smooth="yes"/>
      <point x="347.0" y="-30.0"/>
      <point x="120.0" y="168.0"/>
    </contour>
    <contour>
      <point x="315.0" y="328.0" type="qcurve" smooth="yes"/>
      <point x="315.0" y="236.0"/>
      <point x="428.0" y="115.0"/>
      <point x="540.0" y="115.0" type="qcurve" smooth="yes"/>
      <point x="624.0" y="115.0"/>
      <point x="820.0" y="221.0"/>
      <point x="886.0" y="293.0" type="qcurve"/>
      <point x="548.0" y="698.0" type="line"/>
      <point x="395.0" y="581.0"/>
      <point x="315.0" y="432.0"/>
    </contour>
    <contour>
      <point x="467.0" y="1173.0" type="qcurve" smooth="yes"/>
      <point x="467.0" y="1091.0"/>
      <point x="556.0" y="956.0"/>
      <point x="592.0" y="911.0" type="qcurve"/>
      <point x="702.0" y="1005.0"/>
      <point x="781.0" y="1119.0"/>
      <point x="781.0" y="1185.0" type="qcurve" smooth="yes"/>
      <point x="781.0" y="1241.0"/>
      <point x="704.0" y="1325.0"/>
      <point x="624.0" y="1325.0" type="qcurve" smooth="yes"/>
      <point x="550.0" y="1325.0"/>
      <point x="467.0" y="1239.0"/>
    </contour>
  </outline>
</glyph>
<glyph name="quotesingle" format="2">
  <advance width="478"/>
  <unicode hex="0027"/>
  <outline>
    <contour>
      <point x="151.0" y="1414.0" type="line" smooth="yes"/>
      <point x="149.0" y="1469.0"/>
      <point x="187.0" y="1469.0" type="qcurve" smooth="yes"/>
      <point x="291.0" y="1469.0" type="line" smooth="yes"/>
      <point x="329.0" y="1469.0"/>
      <point x="327.0" y="1414.0" type="qcurve" smooth="yes"/>
      <point x="306.0" y="869.0" type="line" smooth="yes"/>
      <point x="304.0" y="824.0"/>
      <point x="271.0" y="824.0" type="qcurve" smooth="yes"/>
      <point x="207.0" y="824.0" type="line" smooth="yes"/>
      <point x="174.0" y="824.0"/>
      <point x="172.0" y="869.0" type="qcurve" smooth="yes"/>
    </contour>
  </outline>
</glyph>
<glyph name="parenleft" format="2">
  <advance width="670"/>
  <unicode hex="0028"/>
  <outline>
    <contour>
      <point x="124.0" y="544.0" type="qcurve" smooth="yes"/>
      <point x="124.0" y="852.0"/>
      <point x="332.0" y="1316.0"/>
      <point x="491.0" y="1493.0" type="qcurve" smooth="yes"/>
      <point x="529.0" y="1536.0"/>
      <point x="559.0" y="1513.0" type="qcurve" smooth="yes"/>
      <point x="594.0" y="1486.0" type="line" smooth="yes"/>
      <point x="625.0" y="1462.0"/>
      <point x="592.0" y="1427.0" type="qcurve" smooth="yes"/>
      <point x="502.0" y="1331.0"/>
      <point x="320.0" y="876.0"/>
      <point x="320.0" y="544.0" type="qcurve" smooth="yes"/>
      <point x="320.0" y="212.0"/>
      <point x="502.0" y="-243.0"/>
      <point x="592.0" y="-339.0" type="qcurve" smooth="yes"/>
      <point x="625.0" y="-374.0"/>
      <point x="594.0" y="-398.0" type="qcurve" smooth="yes"/>
      <point x="559.0" y="-425.0" type="line" smooth="yes"/>
      <point x="529.0" y="-448.0"/>
      <point x="491.0" y="-405.0" type="qcurve" smooth="yes"/>
      <point x="332.0" y="-228.0"/>
      <point x="124.0" y="236.0"/>
    </contour>
  </outline>
</glyph>
<glyph name="parenright" format="2">
  <advance width="670"/>
  <unicode hex="0029"/>
  <outline>
    <contour>
      <point x="76.0" y="-398.0" type="line" smooth="yes"/>
      <point x="45.0" y="-374.0"/>
      <point x="78.0" y="-339.0" type="qcurve" smooth="yes"/>
      <point x="168.0" y="-243.0"/>
      <point x="350.0" y="212.0"/>
      <point x="350.0" y="544.0" type="qcurve" smooth="yes"/>
      <point x="350.0" y="876.0"/>
      <point x="168.0" y="1331.0"/>
      <point x="78.0" y="1427.0" type="qcurve" smooth="yes"/>
      <point x="45.0" y="1462.0"/>
      <point x="76.0" y="1486.0" type="qcurve" smooth="yes"/>
      <point x="111.0" y="1513.0" type="line" smooth="yes"/>
      <point x="141.0" y="1536.0"/>
      <point x="179.0" y="1493.0" type="qcurve" smooth="yes"/>
      <point x="338.0" y="1316.0"/>
      <point x="546.0" y="852.0"/>
      <point x="546.0" y="544.0" type="qcurve" smooth="yes"/>
      <point x="546.0" y="236.0"/>
      <point x="338.0" y="-228.0"/>
      <point x="179.0" y="-405.0" type="qcurve" smooth="yes"/>
      <point x="141.0" y="-448.0"/>
      <point x="111.0" y="-425.0" type="qcurve" smooth="yes"/>
    </contour>
  </outline>
</glyph>
<glyph name="asterisk" format="2">
  <advance width="940"/>
  <unicode hex="002A"/>
  <outline>
    <contour>
      <point x="370.0" y="1057.0" type="line"/>
      <point x="156.0" y="1150.0" type="line" smooth="yes"/>
      <point x="74.0" y="1185.0"/>
      <point x="115.0" y="1256.0" type="qcurve" smooth="yes"/>
      <point x="121.0" y="1266.0" type="line" smooth="yes"/>
      <point x="162.0" y="1336.0"/>
      <point x="233.0" y="1283.0" type="qcurve" smooth="yes"/>
      <point x="420.0" y="1144.0" type="line"/>
      <point x="393.0" y="1376.0" type="line" smooth="yes"/>
      <point x="383.0" y="1464.0"/>
      <point x="464.0" y="1464.0" type="qcurve" smooth="yes"/>
      <point x="476.0" y="1464.0" type="line" smooth="yes"/>
      <point x="557.0" y="1464.0"/>
      <point x="547.0" y="1376.0" type="qcurve" smooth="yes"/>
      <point x="520.0" y="1144.0" type="line"/>
      <point x="707.0" y="1283.0" type="line" smooth="yes"/>
      <point x="778.0" y="1336.0"/>
      <point x="819.0" y="1266.0" type="qcurve" smooth="yes"/>
      <point x="825.0" y="1256.0" type="line" smooth="yes"/>
      <point x="866.0" y="1185.0"/>
      <point x="784.0" y="1150.0" type="qcurve" smooth="yes"/>
      <point x="570.0" y="1057.0" type="line"/>
      <point x="784.0" y="965.0" type="line" smooth="yes"/>
      <point x="866.0" y="930.0"/>
      <point x="825.0" y="859.0" type="qcurve" smooth="yes"/>
      <point x="819.0" y="849.0" type="line" smooth="yes"/>
      <point x="778.0" y="779.0"/>
      <point x="707.0" y="831.0" type="qcurve" smooth="yes"/>
      <point x="520.0" y="971.0" type="line"/>
      <point x="547.0" y="739.0" type="line" smooth="yes"/>
      <point x="557.0" y="651.0"/>
      <point x="476.0" y="651.0" type="qcurve" smooth="yes"/>
      <point x="464.0" y="651.0" type="line" smooth="yes"/>
      <point x="383.0" y="651.0"/>
      <point x="393.0" y="739.0" type="qcurve" smooth="yes"/>
      <point x="420.0" y="971.0" type="line"/>
      <point x="233.0" y="831.0" type="line" smooth="yes"/>
      <point x="162.0" y="779.0"/>
      <point x="121.0" y="849.0" type="qcurve" smooth="yes"/>
      <point x="115.0" y="859.0" type="line" smooth="yes"/>
      <point x="74.0" y="930.0"/>
      <point x="156.0" y="965.0" type="qcurve" smooth="yes"/>
    </contour>
  </outline>
</glyph>
<glyph name="period" format="2">
  <advance width="600"/>
  <unicode hex="002E"/>
  <outline>
    <contour>
      <point x="244.0" y="0.0" type="line" smooth="yes"/>
      <point x="199.0" y="0.0"/>
      <point x="199.0" y="45.0" type="qcurve" smooth="yes"/>
      <point x="199.0" y="167.0" type="line" smooth="yes"/>
      <point x="199.0" y="212.0"/>
      <point x="244.0" y="212.0" type="qcurve" smooth="yes"/>
      <point x="356.0" y="212.0" type="line" smooth="yes"/>
      <point x="401.0" y="212.0"/>
      <point x="401.0" y="167.0" type="qcurve" smooth="yes"/>
      <point x="401.0" y="45.0" type="line" smooth="yes"/>
      <point x="401.0" y="0.0"/>
      <point x="356.0" y="0.0" type="qcurve" smooth="yes"/>
    </contour>
  </outline>
</glyph>
<glyph name="zero" format="2">
  <advance width="1110"/>
  <unicode hex="0030"/>
  <outline>
    <contour>
      <point x="93.0" y="711.0" type="qcurve" smooth="yes"/>
      <point x="93.0" y="1061.0"/>
      <point x="285.0" y="1452.0"/>
      <point x="555.0" y="1452.0" type="qcurve" smooth="yes"/>
      <point x="825.0" y="1452.0"/>
      <point x="1017.0" y="1061.0"/>
      <point x="1017.0" y="711.0" type="qcurve" smooth="yes"/>
      <point x="1017.0" y="361.0"/>
      <point x="825.0" y="-30.0"/>
      <point x="555.0" y="-30.0" type="qcurve" smooth="yes"/>
      <point x="285.0" y="-30.0"/>
      <point x="93.0" y="361.0"/>
    </contour>
    <contour>
      <point x="279.0" y="711.0" type="qcurve" smooth="yes"/>
      <point x="279.0" y="431.0"/>
      <point x="375.0" y="114.0"/>
      <point x="555.0" y="114.0" type="qcurve" smooth="yes"/>
      <point x="735.0" y="114.0"/>
      <point x="831.0" y="431.0"/>
      <point x="831.0" y="711.0" type="qcurve" smooth="yes"/>
      <point x="831.0" y="991.0"/>
      <point x="735.0" y="1308.0"/>
      <point x="555.0" y="1308.0" type="qcurve" smooth="yes"/>
      <point x="375.0" y="1308.0"/>
      <point x="279.0" y="991.0"/>
    </contour>
  </outline>
</glyph>
<glyph name="one" format="2">
  <advance width="827"/>
  <unicode hex="0031"/>
  <outline>
    <contour>
      <point x="161.0" y="1151.0" type="line" smooth="yes"/>
      <point x="148.0" y="1183.0"/>
      <point x="185.0" y="1197.0" type="qcurve" smooth="yes"/>
      <point x="262.0" y="1226.0"/>
      <point x="400.0" y="1354.0"/>
      <point x="440.0" y="1404.0" type="qcurve" smooth="yes"/>
      <point x="469.0" y="1440.0"/>
      <point x="496.0" y="1440.0" type="qcurve" smooth="yes"/>
      <point x="581.0" y="1440.0" type="line" smooth="yes"/>
      <point x="627.0" y="1440.0"/>
      <point x="627.0" y="1395.0" type="qcurve" smooth="yes"/>
      <point x="627.0" y="45.0" type="line" smooth="yes"/>
      <point x="627.0" y="0.0"/>
      <point x="582.0" y="0.0" type="qcurve" smooth="yes"/>
      <point x="496.0" y="0.0" type="line" smooth="yes"/>
      <point x="451.0" y="0.0"/>
      <point x="451.0" y="45.0" type="qcurve" smooth="yes"/>
      <point x="451.0" y="1141.0" type="line" smooth="yes"/>
      <point x="451.0" y="1171.0"/>
      <point x="453.0" y="1201.0" type="qcurve"/>
      <point x="451.0" y="1201.0" type="line"/>
      <point x="420.0" y="1162.0"/>
      <point x="300.0" y="1080.0"/>
      <point x="250.0" y="1061.0" type="qcurve" smooth="yes"/>
      <point x="206.0" y="1044.0"/>
      <point x="192.0" y="1077.0" type="qcurve" smooth="yes"/>
    </contour>
  </outline>
</glyph>
<glyph name="two" format="2">
  <advance width="1110"/>
  <unicode hex="0032"/>
  <outline>
    <contour>
      <point x="149.0" y="0.0" type="line" smooth="yes"/>
      <point x="94.0" y="0.0"/>
      <point x="94.0" y="45.0" type="qcurve" smooth="yes"/>
      <point x="94.0" y="93.0" type="line" smooth="yes"/>
      <point x="94.0" y="132.0"/>
      <point x="127.0" y="165.0" type="qcurve" smooth="yes"/>
      <point x="519.0" y="560.0" type="line" smooth="yes"/>
      <point x="693.0" y="735.0"/>
      <point x="802.0" y="926.0"/>
      <point x="802.0" y="1051.0" type="qcurve" smooth="yes"/>
      <point x="802.0" y="1156.0"/>
      <point x="679.0" y="1302.0"/>
      <point x="554.0" y="1302.0" type="qcurve" smooth="yes"/>
      <point x="442.0" y="1302.0"/>
      <point x="294.0" y="1188.0"/>
      <point x="261.0" y="1054.0" type="qcurve" smooth="yes"/>
      <point x="247.0" y="997.0"/>
      <point x="202.0" y="1010.0" type="qcurve" smooth="yes"/>
      <point x="124.0" y="1033.0" type="line" smooth="yes"/>
      <point x="93.0" y="1042.0"/>
      <point x="109.0" y="1118.0" type="qcurve" smooth="yes"/>
      <point x="138.0" y="1249.0"/>
      <point x="361.0" y="1452.0"/>
      <point x="546.0" y="1452.0" type="qcurve" smooth="yes"/>
      <point x="781.0" y="1452.0"/>
      <point x="998.0" y="1216.0"/>
      <point x="998.0" y="1045.0" type="qcurve" smooth="yes"/>
      <point x="998.0" y="878.0"/>
      <point x="819.0" y="636.0"/>
      <point x="663.0" y="485.0" type="qcurve" smooth="yes"/>
      <point x="334.0" y="166.0" type="line"/>
      <point x="334.0" y="162.0" type="line"/>
      <point x="361.0" y="164.0"/>
      <point x="414.0" y="164.0" type="qcurve" smooth="yes"/>
      <point x="959.0" y="164.0" type="line" smooth="yes"/>
      <point x="1014.0" y="164.0"/>
      <point x="1014.0" y="119.0" type="qcurve" smooth="yes"/>
      <point x="1014.0" y="45.0" type="line" smooth="yes"/>
      <point x="1014.0" y="0.0"/>
      <point x="959.0" y="0.0" type="qcurve" smooth="yes"/>
    </contour>
  </outline>
</glyph>
<glyph name="three" format="2">
  <advance width="1110"/>
  <unicode hex="0033"/>
  <outline>
    <contour>
      <point x="109.0" y="148.0" type="qcurve" smooth="yes"/>
      <point x="69.0" y="194.0"/>
      <point x="93.0" y="223.0" type="qcurve" smooth="yes"/>
      <point x="145.0" y="286.0" type="line" smooth="yes"/>
      <point x="179.0" y="327.0"/>
      <point x="226.0" y="268.0" type="qcurve" smooth="yes"/>
      <point x="278.0" y="203.0"/>
      <point x="431.0" y="120.0"/>
      <point x="515.0" y="120.0" type="qcurve" smooth="yes"/>
      <point x="680.0" y="120.0"/>
      <point x="818.0" y="284.0"/>
      <point x="818.0" y="421.0" type="qcurve" smooth="yes"/>
      <point x="818.0" y="566.0"/>
      <point x="634.0" y="696.0"/>
      <point x="520.0" y="696.0" type="qcurve" smooth="yes"/>
      <point x="432.0" y="696.0" type="line" smooth="yes"/>
      <point x="387.0" y="696.0"/>
      <point x="387.0" y="729.0" type="qcurve" smooth="yes"/>
      <point x="387.0" y="803.0" type="line" smooth="yes"/>
      <point x="387.0" y="838.0"/>
      <point x="432.0" y="838.0" type="qcurve" smooth="yes"/>
      <point x="503.0" y="838.0" type="line" smooth="yes"/>
      <point x="613.0" y="838.0"/>
      <point x="770.0" y="982.0"/>
      <point x="770.0" y="1106.0" type="qcurve" smooth="yes"/>
      <point x="770.0" y="1192.0"/>
      <point x="644.0" y="1302.0"/>
      <point x="530.0" y="1302.0" type="qcurve" smooth="yes"/>
      <point x="423.0" y="1302.0"/>
      <point x="287.0" y="1204.0"/>
      <point x="259.0" y="1168.0" type="qcurve" smooth="yes"/>
      <point x="222.0" y="1120.0"/>
      <point x="187.0" y="1153.0" type="qcurve" smooth="yes"/>
      <point x="128.0" y="1210.0" type="line" smooth="yes"/>
      <point x="102.0" y="1235.0"/>
      <point x="151.0" y="1293.0" type="qcurve" smooth="yes"/>
      <point x="203.0" y="1354.0"/>
      <point x="398.0" y="1452.0"/>
      <point x="533.0" y="1452.0" type="qcurve" smooth="yes"/>
      <point x="740.0" y="1452.0"/>
      <point x="958.0" y="1252.0"/>
      <point x="958.0" y="1093.0" type="qcurve" smooth="yes"/>
      <point x="958.0" y="967.0"/>
      <point x="803.0" y="798.0"/>
      <point x="711.0" y="778.0" type="qcurve"/>
      <point x="711.0" y="774.0" type="line"/>
      <point x="818.0" y="759.0"/>
      <point x="1014.0" y="557.0"/>
      <point x="1014.0" y="417.0" type="qcurve" smooth="yes"/>
      <point x="1014.0" y="209.0"/>
      <point x="773.0" y="-30.0"/>
      <point x="511.0" y="-30.0" type="qcurve" smooth="yes"/>
      <point x="359.0" y="-30.0"/>
      <point x="161.0" y="89.0"/>
    </contour>
  </outline>
</glyph>
<glyph name="six" format="2">
  <advance width="1110"/>
  <unicode hex="0036"/>
  <outline>
    <contour>
      <point x="92.0" y="671.0" type="qcurve" smooth="yes"/>
      <point x="92.0" y="1111.0"/>
      <point x="398.0" y="1452.0"/>
      <point x="617.0" y="1452.0" type="qcurve" smooth="yes"/>
      <point x="742.0" y="1452.0"/>
      <point x="892.0" y="1388.0"/>
      <point x="946.0" y="1338.0" type="qcurve" smooth="yes"/>
      <point x="988.0" y="1299.0"/>
      <point x="965.0" y="1273.0" type="qcurve" smooth="yes"/>
      <point x="918.0" y="1218.0" type="line" smooth="yes"/>
      <point x="890.0" y="1186.0"/>
      <point x="845.0" y="1224.0" type="qcurve" smooth="yes"/>
      <point x="808.0" y="1256.0"/>
      <point x="704.0" y="1302.0"/>
      <point x="608.0" y="1302.0" type="qcurve" smooth="yes"/>
      <point x="473.0" y="1302.0"/>
      <point x="273.0" y="1032.0"/>
      <point x="273.0" y="743.0" type="qcurve"/>
      <point x="275.0" y="743.0" type="line"/>
      <point x="320.0" y="808.0"/>
      <point x="489.0" y="899.0"/>
      <point x="618.0" y="899.0" type="qcurve" smooth="yes"/>
      <point x="778.0" y="899.0"/>
      <point x="1020.0" y="680.0"/>
      <point x="1020.0" y="460.0" type="qcurve" smooth="yes"/>
      <point x="1020.0" y="242.0"/>
      <point x="789.0" y="-30.0"/>
      <point x="563.0" y="-30.0" type="qcurve" smooth="yes"/>
      <point x="327.0" y="-30.0"/>
      <point x="92.0" y="345.0"/>
    </contour>
    <contour>
      <point x="307.0" y="447.0" type="qcurve" smooth="yes"/>
      <point x="307.0" y="323.0"/>
      <point x="444.0" y="120.0"/>
      <point x="565.0" y="120.0" type="qcurve" smooth="yes"/>
      <point x="690.0" y="120.0"/>
      <point x="824.0" y="308.0"/>
      <point x="824.0" y="454.0" type="qcurve" smooth="yes"/>
      <point x="824.0" y="599.0"/>
      <point x="688.0" y="746.0"/>
      <point x="586.0" y="746.0" type="qcurve" smooth="yes"/>
      <point x="454.0" y="746.0"/>
      <point x="307.0" y="584.0"/>
    </contour>
  </outline>
</glyph>
<glyph name="eight" format="2">
  <advance width="1110"/>
  <unicode hex="0038"/>
  <outline>
    <contour>
      <point x="92.0" y="410.0" type="qcurve" smooth="yes"/>
      <point x="92.0" y="550.0"/>
      <point x="266.0" y="747.0"/>
      <point x="351.0" y="768.0" type="qcurve"/>
      <point x="351.0" y="771.0" type="line"/>
      <point x="259.0" y="800.0"/>
      <point x="127.0" y="958.0"/>
      <point x="127.0" y="1088.0" type="qcurve" smooth="yes"/>
      <point x="127.0" y="1253.0"/>
      <point x="365.0" y="1452.0"/>
      <point x="555.0" y="1452.0" type="qcurve" smooth="yes"/>
      <point x="745.0" y="1452.0"/>
      <point x="983.0" y="1253.0"/>
      <point x="983.0" y="1088.0" type="qcurve" smooth="yes"/>
      <point x="983.0" y="958.0"/>
      <point x="843.0" y="799.0"/>
      <point x="751.0" y="770.0" type="qcurve"/>
      <point x="751.0" y="768.0" type="line"/>
      <point x="836.0" y="747.0"/>
      <point x="1018.0" y="550.0"/>
      <point x="1018.0" y="410.0" type="qcurve" smooth="yes"/>
      <point x="1018.0" y="210.0"/>
      <point x="795.0" y="-30.0"/>
      <point x="555.0" y="-30.0" type="qcurve" smooth="yes"/>
      <point x="315.0" y="-30.0"/>
      <point x="92.0" y="210.0"/>
    </contour>
    <contour>
      <point x="287.0" y="406.0" type="qcurve" smooth="yes"/>
      <point x="287.0" y="266.0"/>
      <point x="425.0" y="120.0"/>
      <point x="555.0" y="120.0" type="qcurve" smooth="yes"/>
      <point x="685.0" y="120.0"/>
      <point x="822.0" y="266.0"/>
      <point x="822.0" y="406.0" type="qcurve" smooth="yes"/>
      <point x="822.0" y="516.0"/>
      <point x="680.0" y="684.0"/>
      <point x="555.0" y="684.0" type="qcurve" smooth="yes"/>
      <point x="430.0" y="684.0"/>
      <point x="287.0" y="516.0"/>
    </contour>
    <contour>
      <point x="315.0" y="1088.0" type="qcurve" smooth="yes"/>
      <point x="315.0" y="988.0"/>
      <point x="430.0" y="846.0"/>
      <point x="555.0" y="846.0" type="qcurve" smooth="yes"/>
      <point x="680.0" y="846.0"/>
      <point x="795.0" y="988.0"/>
      <point x="795.0" y="1088.0" type="qcurve" smooth="yes"/>
      <point x="795.0" y="1168.0"/>
      <point x="685.0" y="1302.0"/>
      <point x="555.0" y="1302.0" type="qcurve" smooth="yes"/>
      <point x="425.0" y="1302.0"/>
      <point x="315.0" y="1168.0"/>
    </contour>
  </outline>
</glyph>
<glyph name="question" format="2">
  <advance width="1016"/>
  <unicode hex="003F"/>
  <outline>
    <contour>
      <point x="111.0" y="1164.0" type="line" smooth="yes"/>
      <point x="80.0" y="1178.0"/>
      <point x="108.0" y="1250.0" type="qcurve" smooth="yes"/>
      <point x="135.0" y="1317.0"/>
      <point x="318.0" y="1464.0"/>
      <point x="493.0" y="1464.0" type="qcurve" smooth="yes"/>
      <point x="708.0" y="1464.0"/>
      <point x="910.0" y="1259.0"/>
      <point x="910.0" y="1088.0" type="qcurve" smooth="yes"/>
      <point x="910.0" y="945.0"/>
      <point x="577.0" y="576.0"/>
      <point x="577.0" y="438.0" type="qcurve" smooth="yes"/>
      <point x="577.0" y="415.0" type="line" smooth="yes"/>
      <point x="577.0" y="370.0"/>
      <point x="532.0" y="370.0" type="qcurve" smooth="yes"/>
      <point x="446.0" y="370.0" type="line" smooth="yes"/>
      <point x="401.0" y="370.0"/>
      <point x="401.0" y="415.0" type="qcurve" smooth="yes"/>
      <point x="401.0" y="452.0" type="line" smooth="yes"/>
      <point x="401.0" y="621.0"/>
      <point x="714.0" y="978.0"/>
      <point x="714.0" y="1094.0" type="qcurve" smooth="yes"/>
      <point x="714.0" y="1216.0"/>
      <point x="600.0" y="1314.0"/>
      <point x="500.0" y="1314.0" type="qcurve" smooth="yes"/>
      <point x="390.0" y="1314.0"/>
      <point x="279.0" y="1234.0"/>
      <point x="250.0" y="1165.0" type="qcurve" smooth="yes"/>
      <point x="227.0" y="1111.0"/>
      <point x="185.0" y="1130.0" type="qcurve" smooth="yes"/>
    </contour>
    <contour>
      <point x="432.0" y="0.0" type="line" smooth="yes"/>
      <point x="387.0" y="0.0"/>
      <point x="387.0" y="45.0" type="qcurve" smooth="yes"/>
      <point x="387.0" y="167.0" type="line" smooth="yes"/>
      <point x="387.0" y="212.0"/>
      <point x="432.0" y="212.0" type="qcurve" smooth="yes"/>
      <point x="544.0" y="212.0" type="line" smooth="yes"/>
      <point x="589.0" y="212.0"/>
      <point x="589.0" y="167.0" type="qcurve" smooth="yes"/>
      <point x="589.0" y="45.0" type="line" smooth="yes"/>
      <point x="589.0" y="0.0"/>
      <point x="544.0" y="0.0" type="qcurve" smooth="yes"/>
    </contour>
  </outline>
</glyph>
<glyph name="at" format="2">
  <advance width="1992"/>
  <unicode hex="0040"/>
  <outline>
    <contour>
      <point x="120.0" y="551.0" type="qcurve" smooth="yes"/>
      <point x="120.0" y="932.0"/>
      <point x="640.0" y="1473.0"/>
      <point x="1060.0" y="1473.0" type="qcurve" smooth="yes"/>
      <point x="1366.0" y="1473.0"/>
      <point x="1872.0" y="1116.0"/>
      <point x="1872.0" y="716.0" type="qcurve" smooth="yes"/>
      <point x="1872.0" y="422.0"/>
      <point x="1590.0" y="111.0"/>
      <point x="1360.0" y="111.0" type="qcurve" smooth="yes"/>
      <point x="1230.0" y="111.0"/>
      <point x="1158.0" y="225.0"/>
      <point x="1158.0" y="332.0" type="qcurve"/>
      <point x="1156.0" y="332.0" type="line"/>
      <point x="1118.0" y="243.0"/>
      <point x="934.0" y="111.0"/>
      <point x="843.0" y="111.0" type="qcurve" smooth="yes"/>
      <point x="709.0" y="111.0"/>
      <point x="546.0" y="303.0"/>
      <point x="546.0" y="467.0" type="qcurve" smooth="yes"/>
      <point x="546.0" y="673.0"/>
      <point x="809.0" y="1042.0"/>
      <point x="1006.0" y="1042.0" type="qcurve" smooth="yes"/>
      <point x="1197.0" y="1042.0"/>
      <point x="1241.0" y="866.0" type="qcurve"/>
      <point x="1245.0" y="866.0" type="line"/>
      <point x="1268.0" y="972.0" type="line" smooth="yes"/>
      <point x="1275.0" y="1006.0"/>
      <point x="1310.0" y="1006.0" type="qcurve" smooth="yes"/>
      <point x="1420.0" y="1006.0" type="line" smooth="yes"/>
      <point x="1455.0" y="1006.0"/>
      <point x="1447.0" y="971.0" type="qcurve" smooth="yes"/>
      <point x="1316.0" y="380.0" type="line" smooth="yes"/>
      <point x="1294.0" y="282.0"/>
      <point x="1346.0" y="231.0"/>
      <point x="1391.0" y="231.0" type="qcurve" smooth="yes"/>
      <point x="1537.0" y="231.0"/>
      <point x="1750.0" y="454.0"/>
      <point x="1750.0" y="716.0" type="qcurve" smooth="yes"/>
      <point x="1750.0" y="1020.0"/>
      <point x="1362.0" y="1353.0"/>
      <point x="1062.0" y="1353.0" type="qcurve" smooth="yes"/>
      <point x="720.0" y="1353.0"/>
      <point x="242.0" y="916.0"/>
      <point x="242.0" y="536.0" type="qcurve" smooth="yes"/>
      <point x="242.0" y="204.0"/>
      <point x="699.0" y="-212.0"/>
      <point x="1020.0" y="-212.0" type="qcurve" smooth="yes"/>
      <point x="1170.0" y="-212.0"/>
      <point x="1475.0" y="-103.0"/>
      <point x="1606.0" y="3.0" type="qcurve" smooth="yes"/>
      <point x="1633.0" y="25.0"/>
      <point x="1649.0" y="3.0" type="qcurve" smooth="yes"/>
      <point x="1688.0" y="-51.0" type="line" smooth="yes"/>
      <point x="1705.0" y="-75.0"/>
      <point x="1678.0" y="-93.0" type="qcurve" smooth="yes"/>
      <point x="1515.0" y="-208.0"/>
      <point x="1196.0" y="-332.0"/>
      <point x="1011.0" y="-332.0" type="qcurve" smooth="yes"/>
      <point x="652.0" y="-332.0"/>
      <point x="120.0" y="144.0"/>
    </contour>
    <contour>
      <point x="717.0" y="447.0" type="qcurve" smooth="yes"/>
      <point x="717.0" y="324.0"/>
      <point x="806.0" y="231.0"/>
      <point x="885.0" y="231.0" type="qcurve" smooth="yes"/>
      <point x="986.0" y="231.0"/>
      <point x="1161.0" y="516.0"/>
      <point x="1177.0" y="582.0" type="qcurve" smooth="yes"/>
      <point x="1192.0" y="646.0"/>
      <point x="1192.0" y="727.0" type="qcurve" smooth="yes"/>
      <point x="1192.0" y="796.0"/>
      <point x="1110.0" y="924.0"/>
      <point x="1030.0" y="924.0" type="qcurve" smooth="yes"/>
      <point x="896.0" y="924.0"/>
      <point x="717.0" y="636.0"/>
    </contour>
  </outline>
</glyph>
<glyph name="A" format="2">
  <advance width="1360"/>
  <unicode hex="0041"/>
  <outline>
    <contour>
      <point x="73.0" y="0.0" type="line" smooth="yes"/>
      <point x="21.0" y="0.0"/>
      <point x="46.0" y="66.0" type="qcurve" smooth="yes"/>
      <point x="544.0" y="1373.0" type="line" smooth="yes"/>
      <point x="567.0" y="1434.0"/>
      <point x="610.0" y="1434.0" type="qcurve" smooth="yes"/>
      <point x="750.0" y="1434.0" type="line" smooth="yes"/>
      <point x="793.0" y="1434.0"/>
      <point x="816.0" y="1373.0" type="qcurve" smooth="yes"/>
      <point x="1314.0" y="66.0" type="line" smooth="yes"/>
      <point x="1339.0" y="0.0"/>
      <point x="1287.0" y="0.0" type="qcurve" smooth="yes"/>
      <point x="1185.0" y="0.0" type="line" smooth="yes"/>
      <point x="1132.0" y="0.0"/>
      <point x="1113.0" y="49.0" type="qcurve" smooth="yes"/>
      <point x="988.0" y="380.0" type="line"/>
      <point x="372.0" y="380.0" type="line"/>
      <point x="247.0" y="49.0" type="line" smooth="yes"/>
      <point x="228.0" y="0.0"/>
      <point x="175.0" y="0.0" type="qcurve" smooth="yes"/>
    </contour>
    <contour>
      <point x="435.0" y="544.0" type="line"/>
      <point x="925.0" y="544.0" type="line"/>
      <point x="772.0" y="944.0" type="line" smooth="yes"/>
      <point x="751.0" y="1000.0"/>
      <point x="710.0" y="1136.0"/>
      <point x="682.0" y="1261.0" type="qcurve"/>
      <point x="678.0" y="1261.0" type="line"/>
      <point x="650.0" y="1136.0"/>
      <point x="609.0" y="1000.0"/>
      <point x="588.0" y="944.0" type="qcurve" smooth="yes"/>
    </contour>
  </outline>
</glyph>
<glyph name="B" format="2">
  <advance width="1358"/>
  <unicode hex="0042"/>
  <outline>
    <contour>
      <point x="220.0" y="0.0" type="line" smooth="yes"/>
      <point x="170.0" y="0.0"/>
      <point x="170.0" y="55.0" type="qcurve" smooth="yes"/>
      <point x="170.0" y="1379.0" type="line" smooth="yes"/>
      <point x="170.0" y="1434.0"/>
      <point x="220.0" y="1434.0" type="qcurve" smooth="yes"/>
      <point x="610.0" y="1434.0" type="line" smooth="yes"/>
      <point x="950.0" y="1434.0"/>
      <point x="1186.0" y="1214.0"/>
      <point x="1186.0" y="1059.0" type="qcurve" smooth="yes"/>
      <point x="1186.0" y="936.0"/>
      <point x="990.0" y="765.0"/>
      <point x="898.0" y="750.0" type="qcurve"/>
      <point x="898.0" y="747.0" type="line"/>
      <point x="999.0" y="738.0"/>
      <point x="1248.0" y="555.0"/>
      <point x="1248.0" y="398.0" type="qcurve" smooth="yes"/>
      <point x="1248.0" y="228.0"/>
      <point x="997.0" y="0.0"/>
      <point x="660.0" y="0.0" type="qcurve" smooth="yes"/>
    </contour>
    <contour>
      <point x="362.0" y="164.0" type="line"/>
      <point x="628.0" y="164.0" type="line" smooth="yes"/>
      <point x="843.0" y="164.0"/>
      <point x="1043.0" y="270.0"/>
      <point x="1043.0" y="404.0" type="qcurve" smooth="yes"/>
      <point x="1043.0" y="528.0"/>
      <point x="840.0" y="664.0"/>
      <point x="628.0" y="664.0" type="qcurve" smooth="yes"/>
      <point x="362.0" y="664.0" type="line"/>
    </contour>
    <contour>
      <point x="362.0" y="808.0" type="line"/>
      <point x="613.0" y="808.0" type="line" smooth="yes"/>
      <point x="780.0" y="808.0"/>
      <point x="991.0" y="951.0"/>
      <point x="991.0" y="1059.0" type="qcurve" smooth="yes"/>
      <point x="991.0" y="1162.0"/>
      <point x="833.0" y="1270.0"/>
      <point x="613.0" y="1270.0" type="qcurve" smooth="yes"/>
      <point x="362.0" y="1270.0" type="line"/>
    </contour>
  </outline>
</glyph>
<glyph name="E" format="2">
  <advance width="1270"/>
  <unicode hex="0045"/>
  <outline>
    <contour>
      <point x="220.0" y="0.0" type="line" smooth="yes"/>
      <point x="170.0" y="0.0"/>
      <point x="170.0" y="55.0" type="qcurve" smooth="yes"/>
      <point x="170.0" y="1379.0" type="line" smooth="yes"/>
      <point x="170.0" y="1434.0"/>
      <point x="220.0" y="1434.0" type="qcurve" smooth="yes"/>
      <point x="1095.0" y="1434.0" type="line" smooth="yes"/>
      <point x="1150.0" y="1434.0"/>
      <point x="1150.0" y="1389.0" type="qcurve" smooth="yes"/>
      <point x="1150.0" y="1315.0" type="line" smooth="yes"/>
      <point x="1150.0" y="1270.0"/>
      <point x="1095.0" y="1270.0" type="qcurve" smooth="yes"/>
      <point x="362.0" y="1270.0" type="line"/>
      <point x="362.0" y="826.0" type="line"/>
      <point x="1035.0" y="826.0" type="line" smooth="yes"/>
      <point x="1090.0" y="826.0"/>
      <point x="1090.0" y="781.0" type="qcurve" smooth="yes"/>
      <point x="1090.0" y="707.0" type="line" smooth="yes"/>
      <point x="1090.0" y="662.0"/>
      <point x="1035.0" y="662.0" type="qcurve" smooth="yes"/>
      <point x="362.0" y="662.0" type="line"/>
      <point x="362.0" y="164.0" type="line"/>
      <point x="1125.0" y="164.0" type="line" smooth="yes"/>
      <point x="1180.0" y="164.0"/>
      <point x="1180.0" y="119.0" type="qcurve" smooth="yes"/>
      <point x="1180.0" y="45.0" type="line" smooth="yes"/>
      <point x="1180.0" y="0.0"/>
      <point x="1125.0" y="0.0" type="qcurve" smooth="yes"/>
    </contour>
  </outline>
</glyph>
<glyph name="H" format="2">
  <advance width="1422"/>
  <unicode hex="0048"/>
  <outline>
    <contour>
      <point x="220.0" y="0.0" type="line" smooth="yes"/>
      <point x="170.0" y="0.0"/>
      <point x="170.0" y="55.0" type="qcurve" smooth="yes"/>
      <point x="170.0" y="1379.0" type="line" smooth="yes"/>
      <point x="170.0" y="1434.0"/>
      <point x="220.0" y="1434.0" type="qcurve" smooth="yes"/>
      <point x="312.0" y="1434.0" type="line" smooth="yes"/>
      <point x="362.0" y="1434.0"/>
      <point x="362.0" y="1379.0" type="qcurve" smooth="yes"/>
      <point x="362.0" y="828.0" type="line"/>
      <point x="1060.0" y="828.0" type="line"/>
      <point x="1060.0" y="1379.0" type="line" smooth="yes"/>
      <point x="1060.0" y="1434.0"/>
      <point x="1110.0" y="1434.0" type="qcurve" smooth="yes"/>
      <point x="1202.0" y="1434.0" type="line" smooth="yes"/>
      <point x="1252.0" y="1434.0"/>
      <point x="1252.0" y="1379.0" type="qcurve" smooth="yes"/>
      <point x="1252.0" y="55.0" type="line" smooth="yes"/>
      <point x="1252.0" y="0.0"/>
      <point x="1202.0" y="0.0" type="qcurve" smooth="yes"/>
      <point x="1110.0" y="0.0" type="line" smooth="yes"/>
      <point x="1060.0" y="0.0"/>
      <point x="1060.0" y="55.0" type="qcurve" smooth="yes"/>
      <point x="1060.0" y="664.0" type="line"/>
      <point x="362.0" y="664.0" type="line"/>
      <point x="362.0" y="55.0" type="line" smooth="yes"/>
      <point x="362.0" y="0.0"/>
      <point x="312.0" y="0.0" type="qcurve" smooth="yes"/>
    </contour>
  </outline>
</glyph>
<glyph name="J" format="2">
  <advance width="824"/>
  <unicode hex="004A"/>
  <outline>
    <contour>
      <point x="67.0" y="29.0" type="qcurve" smooth="yes"/>
      <point x="21.0" y="54.0"/>
      <point x="39.0" y="94.0" type="qcurve" smooth="yes"/>
      <point x="72.0" y="165.0" type="line" smooth="yes"/>
      <point x="94.0" y="213.0"/>
      <point x="145.0" y="179.0" type="qcurve" smooth="yes"/>
      <point x="226.0" y="126.0"/>
      <point x="307.0" y="126.0" type="qcurve" smooth="yes"/>
      <point x="404.0" y="126.0"/>
      <point x="462.0" y="257.0"/>
      <point x="462.0" y="378.0" type="qcurve" smooth="yes"/>
      <point x="462.0" y="1379.0" type="line" smooth="yes"/>
      <point x="462.0" y="1434.0"/>
      <point x="512.0" y="1434.0" type="qcurve" smooth="yes"/>
      <point x="604.0" y="1434.0" type="line" smooth="yes"/>
      <point x="654.0" y="1434.0"/>
      <point x="654.0" y="1379.0" type="qcurve" smooth="yes"/>
      <point x="654.0" y="401.0" type="line" smooth="yes"/>
      <point x="654.0" y="203.0"/>
      <point x="530.0" y="-30.0"/>
      <point x="302.0" y="-30.0" type="qcurve" smooth="yes"/>
      <point x="177.0" y="-30.0"/>
    </contour>
  </outline>
</glyph>
<glyph name="K" format="2">
  <advance width="1328"/>
  <unicode hex="004B"/>
  <outline>
    <contour>
      <point x="220.0" y="0.0" type="line" smooth="yes"/>
      <point x="170.0" y="0.0"/>
      <point x="170.0" y="55.0" type="qcurve" smooth="yes"/>
      <point x="170.0" y="1379.0" type="line" smooth="yes"/>
      <point x="170.0" y="1434.0"/>
      <point x="220.0" y="1434.0" type="qcurve" smooth="yes"/>
      <point x="312.0" y="1434.0" type="line" smooth="yes"/>
      <point x="362.0" y="1434.0"/>
      <point x="362.0" y="1379.0" type="qcurve" smooth="yes"/>
      <point x="362.0" y="791.0" type="line" smooth="yes"/>
      <point x="362.0" y="751.0"/>
      <point x="360.0" y="711.0" type="qcurve"/>
      <point x="364.0" y="711.0" type="line"/>
      <point x="1032.0" y="1395.0" type="line" smooth="yes"/>
      <point x="1070.0" y="1434.0"/>
      <point x="1102.0" y="1434.0" type="qcurve" smooth="yes"/>
      <point x="1223.0" y="1434.0" type="line" smooth="yes"/>
      <point x="1306.0" y="1434.0"/>
      <point x="1241.0" y="1368.0" type="qcurve" smooth="yes"/>
      <point x="733.0" y="850.0" type="line"/>
      <point x="1268.0" y="66.0" type="line" smooth="yes"/>
      <point x="1312.0" y="0.0"/>
      <point x="1250.0" y="0.0" type="qcurve" smooth="yes"/>
      <point x="1128.0" y="0.0" type="line" smooth="yes"/>
      <point x="1084.0" y="0.0"/>
      <point x="1058.0" y="39.0" type="qcurve" smooth="yes"/>
      <point x="601.0" y="714.0" type="line"/>
      <point x="362.0" y="471.0" type="line"/>
      <point x="362.0" y="55.0" type="line" smooth="yes"/>
      <point x="362.0" y="0.0"/>
      <point x="312.0" y="0.0" type="qcurve" smooth="yes"/>
    </contour>
  </outline>
</glyph>
<glyph name="L" format="2">
  <advance width="1136"/>
  <unicode hex="004C"/>
  <outline>
    <contour>
      <point x="220.0" y="0.0" type="line" smooth="yes"/>
      <point x="170.0" y="0.0"/>
      <point x="170.0" y="55.0" type="qcurve" smooth="yes"/>
      <point x="170.0" y="1379.0" type="line" smooth="yes"/>
      <point x="170.0" y="1434.0"/>
      <point x="220.0" y="1434.0" type="qcurve" smooth="yes"/>
      <point x="312.0" y="1434.0" type="line" smooth="yes"/>
      <point x="362.0" y="1434.0"/>
      <point x="362.0" y="1379.0" type="qcurve" smooth="yes"/>
      <point x="362.0" y="164.0" type="line"/>
      <point x="1025.0" y="164.0" type="line" smooth="yes"/>
      <point x="1080.0" y="164.0"/>
      <point x="1080.0" y="119.0" type="qcurve" smooth="yes"/>
      <point x="1080.0" y="45.0" type="line" smooth="yes"/>
      <point x="1080.0" y="0.0"/>
      <point x="1025.0" y="0.0" type="qcurve" smooth="yes"/>
    </contour>
  </outline>
</glyph>
<glyph name="N" format="2">
  <advance width="1438"/>
  <unicode hex="004E"/>
  <outline>
    <contour>
      <point x="220.0" y="0.0" type="line" smooth="yes"/>
      <point x="170.0" y="0.0"/>
      <point x="170.0" y="55.0" type="qcurve" smooth="yes"/>
      <point x="170.0" y="1379.0" type="line" smooth="yes"/>
      <point x="170.0" y="1434.0"/>
      <point x="220.0" y="1434.0" type="qcurve" smooth="yes"/>
      <point x="348.0" y="1434.0" type="line" smooth="yes"/>
      <point x="418.0" y="1434.0"/>
      <point x="448.0" y="1384.0" type="qcurve" smooth="yes"/>
      <point x="1074.0" y="335.0" type="line"/>
      <point x="1078.0" y="335.0" type="line"/>
      <point x="1076.0" y="375.0"/>
      <point x="1076.0" y="415.0" type="qcurve" smooth="yes"/>
      <point x="1076.0" y="1379.0" type="line" smooth="yes"/>
      <point x="1076.0" y="1434.0"/>
      <point x="1126.0" y="1434.0" type="qcurve" smooth="yes"/>
      <point x="1218.0" y="1434.0" type="line" smooth="yes"/>
      <point x="1268.0" y="1434.0"/>
      <point x="1268.0" y="1379.0" type="qcurve" smooth="yes"/>
      <point x="1268.0" y="55.0" type="line" smooth="yes"/>
      <point x="1268.0" y="0.0"/>
      <point x="1218.0" y="0.0" type="qcurve" smooth="yes"/>
      <point x="1130.0" y="0.0" type="line" smooth="yes"/>
      <point x="1060.0" y="-0.0"/>
      <point x="1030.0" y="50.0" type="qcurve" smooth="yes"/>
      <point x="364.0" y="1163.0" type="line"/>
      <point x="360.0" y="1163.0" type="line"/>
      <point x="362.0" y="1123.0"/>
      <point x="362.0" y="1083.0" type="qcurve" smooth="yes"/>
      <point x="362.0" y="55.0" type="line" smooth="yes"/>
      <point x="362.0" y="0.0"/>
      <point x="312.0" y="0.0" type="qcurve" smooth="yes"/>
    </contour>
  </outline>
</glyph>
<glyph name="P" format="2">
  <advance width="1308"/>
  <unicode hex="0050"/>
  <outline>
    <contour>
      <point x="220.0" y="0.0" type="line" smooth="yes"/>
      <point x="170.0" y="0.0"/>
      <point x="170.0" y="55.0" type="qcurve" smooth="yes"/>
      <point x="170.0" y="1379.0" type="line" smooth="yes"/>
      <point x="170.0" y="1434.0"/>
      <point x="220.0" y="1434.0" type="qcurve" smooth="yes"/>
      <point x="640.0" y="1434.0" type="line" smooth="yes"/>
      <point x="980.0" y="1434.0"/>
      <point x="1218.0" y="1205.0"/>
      <point x="1218.0" y="1005.0" type="qcurve" smooth="yes"/>
      <point x="1218.0" y="805.0"/>
      <point x="980.0" y="576.0"/>
      <point x="640.0" y="576.0" type="qcurve" smooth="yes"/>
      <point x="362.0" y="576.0" type="line"/>
      <point x="362.0" y="55.0" type="line" smooth="yes"/>
      <point x="362.0" y="0.0"/>
      <point x="312.0" y="0.0" type="qcurve" smooth="yes"/>
    </contour>
    <contour>
      <point x="362.0" y="740.0" type="line"/>
      <point x="643.0" y="740.0" type="line" smooth="yes"/>
      <point x="863.0" y="740.0"/>
      <point x="1023.0" y="865.0"/>
      <point x="1023.0" y="1005.0" type="qcurve" smooth="yes"/>
      <point x="1023.0" y="1145.0"/>
      <point x="863.0" y="1270.0"/>
      <point x="643.0" y="1270.0" type="qcurve" smooth="yes"/>
      <point x="362.0" y="1270.0" type="line"/>
    </contour>
  </outline>
</glyph>
<glyph name="Q" format="2">
  <advance width="1524"/>
  <unicode hex="0051"/>
  <outline>
    <contour>
      <point x="92.0" y="719.0" type="qcurve" smooth="yes"/>
      <point x="92.0" y="1069.0"/>
      <point x="437.0" y="1464.0"/>
      <point x="762.0" y="1464.0" type="qcurve" smooth="yes"/>
      <point x="1087.0" y="1464.0"/>
      <point x="1432.0" y="1067.0"/>
      <point x="1432.0" y="717.0" type="qcurve" smooth="yes"/>
      <point x="1432.0" y="367.0"/>
      <point x="1260.0" y="168.0" type="qcurve" smooth="yes"/>
      <point x="1116.0" y="3.0"/>
      <point x="867.0" y="-24.0" type="qcurve"/>
      <point x="877.0" y="-121.0"/>
      <point x="1001.0" y="-237.0"/>
      <point x="1116.0" y="-237.0" type="qcurve" smooth="yes"/>
      <point x="1178.0" y="-237.0"/>
      <point x="1217.0" y="-227.0" type="qcurve" smooth="yes"/>
      <point x="1256.0" y="-217.0"/>
      <point x="1261.0" y="-238.0" type="qcurve" smooth="yes"/>
      <point x="1281.0" y="-326.0" type="line" smooth="yes"/>
      <point x="1286.0" y="-350.0"/>
      <point x="1256.0" y="-357.0" type="qcurve" smooth="yes"/>
      <point x="1167.0" y="-377.0"/>
      <point x="1084.0" y="-377.0" type="qcurve" smooth="yes"/>
      <point x="869.0" y="-377.0"/>
      <point x="684.0" y="-162.0"/>
      <point x="675.0" y="-26.0" type="qcurve"/>
      <point x="413.0" y="-2.0"/>
      <point x="264.0" y="170.0" type="qcurve" smooth="yes"/>
      <point x="92.0" y="369.0"/>
    </contour>
    <contour>
      <point x="297.0" y="717.0" type="qcurve" smooth="yes"/>
      <point x="297.0" y="437.0"/>
      <point x="527.0" y="126.0"/>
      <point x="762.0" y="126.0" type="qcurve" smooth="yes"/>
      <point x="997.0" y="126.0"/>
      <point x="1227.0" y="437.0"/>
      <point x="1227.0" y="717.0" type="qcurve" smooth="yes"/>
      <point x="1227.0" y="997.0"/>
      <point x="997.0" y="1308.0"/>
      <point x="762.0" y="1308.0" type="qcurve" smooth="yes"/>
      <point x="527.0" y="1308.0"/>
      <point x="297.0" y="997.0"/>
    </contour>
  </outline>
</glyph>
<glyph name="R" format="2">
  <advance width="1394"/>
  <unicode hex="0052"/>
  <outline>
    <contour>
      <point x="220.0" y="0.0" type="line" smooth="yes"/>
      <point x="170.0" y="0.0"/>
      <point x="170.0" y="55.0" type="qcurve" smooth="yes"/>
      <point x="170.0" y="1379.0" type="line" smooth="yes"/>
      <point x="170.0" y="1434.0"/>
      <point x="220.0" y="1434.0" type="qcurve" smooth="yes"/>
      <point x="703.0" y="1434.0" type="line" smooth="yes"/>
      <point x="992.0" y="1434.0"/>
      <point x="1251.0" y="1218.0"/>
      <point x="1251.0" y="1041.0" type="qcurve" smooth="yes"/>
      <point x="1251.0" y="885.0"/>
      <point x="1042.0" y="673.0"/>
      <point x="849.0" y="657.0" type="qcurve"/>
      <point x="849.0" y="655.0" type="line"/>
      <point x="951.0" y="579.0"/>
      <point x="1017.0" y="500.0"/>
      <point x="1058.0" y="433.0" type="qcurve" smooth="yes"/>
      <point x="1284.0" y="66.0" type="line" smooth="yes"/>
      <point x="1325.0" y="0.0"/>
      <point x="1266.0" y="0.0" type="qcurve" smooth="yes"/>
      <point x="1152.0" y="0.0" type="line" smooth="yes"/>
      <point x="1105.0" y="0.0"/>
      <point x="1082.0" y="39.0" type="qcurve" smooth="yes"/>
      <point x="874.0" y="396.0" type="line" smooth="yes"/>
      <point x="829.0" y="473.0"/>
      <point x="661.0" y="621.0"/>
      <point x="536.0" y="621.0" type="qcurve" smooth="yes"/>
      <point x="362.0" y="621.0" type="line"/>
      <point x="362.0" y="55.0" type="line" smooth="yes"/>
      <point x="362.0" y="0.0"/>
      <point x="312.0" y="0.0" type="qcurve" smooth="yes"/>
    </contour>
    <contour>
      <point x="362.0" y="785.0" type="line"/>
      <point x="651.0" y="785.0" type="line" smooth="yes"/>
      <point x="846.0" y="785.0"/>
      <point x="1056.0" y="888.0"/>
      <point x="1056.0" y="1053.0" type="qcurve" smooth="yes"/>
      <point x="1056.0" y="1179.0"/>
      <point x="864.0" y="1270.0"/>
      <point x="699.0" y="1270.0" type="qcurve" smooth="yes"/>
      <point x="362.0" y="1270.0" type="line"/>
    </contour>
  </outline>
</glyph>
<glyph name="T" format="2">
  <advance width="1240"/>
  <unicode hex="0054"/>
  <outline>
    <contour>
      <point x="91.0" y="1262.0" type="line" smooth="yes"/>
      <point x="36.0" y="1262.0"/>
      <point x="36.0" y="1307.0" type="qcurve" smooth="yes"/>
      <point x="36.0" y="1389.0" type="line" smooth="yes"/>
      <point x="36.0" y="1434.0"/>
      <point x="91.0" y="1434.0" type="qcurve" smooth="yes"/>
      <point x="1149.0" y="1434.0" type="line" smooth="yes"/>
      <point x="1204.0" y="1434.0"/>
      <point x="1204.0" y="1389.0" type="qcurve" smooth="yes"/>
      <point x="1204.0" y="1307.0" type="line" smooth="yes"/>
      <point x="1204.0" y="1262.0"/>
      <point x="1149.0" y="1262.0" type="qcurve" smooth="yes"/>
      <point x="716.0" y="1262.0" type="line"/>
      <point x="716.0" y="55.0" type="line" smooth="yes"/>
      <point x="716.0" y="0.0"/>
      <point x="666.0" y="0.0" type="qcurve" smooth="yes"/>
      <point x="574.0" y="0.0" type="line" smooth="yes"/>
      <point x="524.0" y="0.0"/>
      <point x="524.0" y="55.0" type="qcurve" smooth="yes"/>
      <point x="524.0" y="1262.0" type="line"/>
    </contour>
  </outline>
</glyph>
<glyph name="U" format="2">
  <advance width="1402"/>
  <unicode hex="0055"/>
  <outline>
    <contour>
      <point x="170.0" y="547.0" type="qcurve" smooth="yes"/>
      <point x="170.0" y="1379.0" type="line" smooth="yes"/>
      <point x="170.0" y="1434.0"/>
      <point x="220.0" y="1434.0" type="qcurve" smooth="yes"/>
      <point x="312.0" y="1434.0" type="line" smooth="yes"/>
      <point x="362.0" y="1434.0"/>
      <point x="362.0" y="1379.0" type="qcurve" smooth="yes"/>
      <point x="362.0" y="577.0" type="line" smooth="yes"/>
      <point x="362.0" y="297.0"/>
      <point x="521.0" y="126.0"/>
      <point x="701.0" y="126.0" type="qcurve" smooth="yes"/>
      <point x="881.0" y="126.0"/>
      <point x="1040.0" y="297.0"/>
      <point x="1040.0" y="577.0" type="qcurve" smooth="yes"/>
      <point x="1040.0" y="1379.0" type="line" smooth="yes"/>
      <point x="1040.0" y="1434.0"/>
      <point x="1090.0" y="1434.0" type="qcurve" smooth="yes"/>
      <point x="1182.0" y="1434.0" type="line" smooth="yes"/>
      <point x="1232.0" y="1434.0"/>
      <point x="1232.0" y="1379.0" type="qcurve" smooth="yes"/>
      <point x="1232.0" y="547.0" type="line" smooth="yes"/>
      <point x="1232.0" y="230.0"/>
      <point x="941.0" y="-30.0"/>
      <point x="701.0" y="-30.0" type="qcurve" smooth="yes"/>
      <point x="461.0" y="-30.0"/>
      <point x="170.0" y="230.0"/>
    </contour>
  </outline>
</glyph>
<glyph name="V" format="2">
  <advance width="1338"/>
  <unicode hex="0056"/>
  <outline>
    <contour>
      <point x="46.0" y="1368.0" type="line" smooth="yes"/>
      <point x="21.0" y="1434.0"/>
      <point x="73.0" y="1434.0" type="qcurve" smooth="yes"/>
      <point x="175.0" y="1434.0" type="line" smooth="yes"/>
      <point x="229.0" y="1434.0"/>
      <point x="247.0" y="1385.0" type="qcurve" smooth="yes"/>
      <point x="572.0" y="490.0" type="line" smooth="yes"/>
      <point x="593.0" y="431.0"/>
      <point x="656.0" y="232.0"/>
      <point x="667.0" y="173.0" type="qcurve"/>
      <point x="671.0" y="173.0" type="line"/>
      <point x="682.0" y="232.0"/>
      <point x="745.0" y="431.0"/>
      <point x="766.0" y="490.0" type="qcurve" smooth="yes"/>
      <point x="1091.0" y="1385.0" type="line" smooth="yes"/>
      <point x="1109.0" y="1434.0"/>
      <point x="1163.0" y="1434.0" type="qcurve" smooth="yes"/>
      <point x="1265.0" y="1434.0" type="line" smooth="yes"/>
      <point x="1317.0" y="1434.0"/>
      <point x="1292.0" y="1368.0" type="qcurve" smooth="yes"/>
      <point x="805.0" y="61.0" type="line" smooth="yes"/>
      <point x="782.0" y="0.0"/>
      <point x="739.0" y="0.0" type="qcurve" smooth="yes"/>
      <point x="599.0" y="0.0" type="line" smooth="yes"/>
      <point x="556.0" y="0.0"/>
      <point x="533.0" y="61.0" type="qcurve" smooth="yes"/>
    </contour>
  </outline>
</glyph>
<glyph name="underscore" format="2">
  <advance width="1100"/>
  <unicode hex="005F"/>
  <outline>
    <contour>
      <point x="21.0" y="-390.0" type="line" smooth="yes"/>
      <point x="-24.0" y="-390.0"/>
      <point x="-24.0" y="-355.0" type="qcurve" smooth="yes"/>
      <point x="-24.0" y="-295.0" type="line" smooth="yes"/>
      <point x="-24.0" y="-260.0"/>
      <point x="21.0" y="-260.0" type="qcurve" smooth="yes"/>
      <point x="1079.0" y="-260.0" type="line" smooth="yes"/>
      <point x="1124.0" y="-260.0"/>
      <point x="1124.0" y="-295.0" type="qcurve" smooth="yes"/>
      <point x="1124.0" y="-355.0" type="line" smooth="yes"/>
      <point x="1124.0" y="-390.0"/>
      <point x="1079.0" y="-390.0" type="qcurve" smooth="yes"/>
    </contour>
  </outline>
</glyph>
<glyph name="e" format="2">
  <advance width="1098"/>
  <unicode hex="0065"/>
  <outline>
    <contour>
      <point x="85.0" y="525.0" type="qcurve" smooth="yes"/>
      <point x="85.0" y="773.0"/>
      <point x="333.0" y="1067.0"/>
      <point x="564.0" y="1067.0" type="qcurve" smooth="yes"/>
      <point x="756.0" y="1067.0"/>
      <point x="1009.0" y="798.0"/>
      <point x="1009.0" y="503.0" type="qcurve" smooth="yes"/>
      <point x="1009.0" y="458.0"/>
      <point x="968.0" y="458.0" type="qcurve" smooth="yes"/>
      <point x="271.0" y="458.0" type="line"/>
      <point x="288.0" y="265.0"/>
      <point x="462.0" y="114.0"/>
      <point x="572.0" y="114.0" type="qcurve" smooth="yes"/>
      <point x="688.0" y="114.0"/>
      <point x="812.0" y="192.0"/>
      <point x="841.0" y="230.0" type="qcurve" smooth="yes"/>
      <point x="872.968994140625" y="271.9590148925781"/>
      <point x="903.0" y="246.0" type="qcurve" smooth="yes"/>
      <point x="962.0" y="195.0" type="line" smooth="yes"/>
      <point x="985.0499877929688" y="175.0760040283203"/>
      <point x="962.0" y="140.0" type="qcurve" smooth="yes"/>
      <point x="943.0" y="111.0"/>
      <point x="764.0" y="-17.0"/>
      <point x="572.0" y="-17.0" type="qcurve" smooth="yes"/>
      <point x="322.0" y="-17.0"/>
      <point x="85.0" y="277.0"/>
    </contour>
    <contour>
      <point x="267.0" y="588.0" type="qcurve"/>
      <point x="832.0" y="588.0" type="line"/>
      <point x="828.0" y="728.0"/>
      <point x="692.0" y="939.0"/>
      <point x="560.0" y="939.0" type="qcurve" smooth="yes"/>
      <point x="444.0" y="939.0"/>
      <point x="282.0" y="784.0"/>
    </contour>
  </outline>
</glyph>
<glyph name="h" format="2">
  <advance width="1128"/>
  <unicode hex="0068"/>
  <outline>
    <contour>
      <point x="187.0" y="0.0" type="line" smooth="yes"/>
      <point x="142.0" y="0.0"/>
      <point x="142.0" y="45.0" type="qcurve" smooth="yes"/>
      <point x="142.0" y="1431.0" type="line" smooth="yes"/>
      <point x="142.0" y="1476.0"/>
      <point x="187.0" y="1476.0" type="qcurve" smooth="yes"/>
      <point x="273.0" y="1476.0" type="line" smooth="yes"/>
      <point x="318.0" y="1476.0"/>
      <point x="318.0" y="1431.0" type="qcurve" smooth="yes"/>
      <point x="318.0" y="985.0" type="line" smooth="yes"/>
      <point x="318.0" y="955.0"/>
      <point x="316.0" y="925.0" type="qcurve"/>
      <point x="320.0" y="925.0" type="line"/>
      <point x="385.0" y="997.0"/>
      <point x="535.0" y="1067.0"/>
      <point x="647.0" y="1067.0" type="qcurve" smooth="yes"/>
      <point x="829.0" y="1067.0"/>
      <point x="988.0" y="862.0"/>
      <point x="988.0" y="684.0" type="qcurve" smooth="yes"/>
      <point x="988.0" y="45.0" type="line" smooth="yes"/>
      <point x="988.0" y="0.0"/>
      <point x="943.0" y="0.0" type="qcurve" smooth="yes"/>
      <point x="857.0" y="0.0" type="line" smooth="yes"/>
      <point x="812.0" y="0.0"/>
      <point x="812.0" y="45.0" type="qcurve" smooth="yes"/>
      <point x="812.0" y="636.0" type="line" smooth="yes"/>
      <point x="812.0" y="832.0"/>
      <point x="682.0" y="937.0"/>
      <point x="582.0" y="937.0" type="qcurve" smooth="yes"/>
      <point x="452.0" y="937.0"/>
      <point x="318.0" y="782.0"/>
      <point x="318.0" y="594.0" type="qcurve" smooth="yes"/>
      <point x="318.0" y="45.0" type="line" smooth="yes"/>
      <point x="318.0" y="0.0"/>
      <point x="273.0" y="0.0" type="qcurve" smooth="yes"/>
    </contour>
  </outline>
</glyph>
<glyph name="l" format="2">
  <advance width="460"/>
  <unicode hex="006C"/>
  <outline>
    <contour>
      <point x="187.0" y="0.0" type="line" smooth="yes"/>
      <point x="142.0" y="0.0"/>
      <point x="142.0" y="45.0" type="qcurve" smooth="yes"/>
      <point x="142.0" y="1293.0" type="line" smooth="yes"/>
      <point x="142.0" y="1313.0"/>
      <point x="152.0" y="1331.0" type="qcurve" smooth="yes"/>
      <point x="222.0" y="1458.0" type="line" smooth="yes"/>
      <point x="241.0" y="1493.0"/>
      <point x="253.0" y="1493.0" type="qcurve" smooth="yes"/>
      <point x="288.0" y="1493.0" type="line" smooth="yes"/>
      <point x="318.0" y="1493.0"/>
      <point x="318.0" y="1458.0" type="qcurve" smooth="yes"/>
      <point x="318.0" y="45.0" type="line" smooth="yes"/>
      <point x="318.0" y="0.0"/>
      <point x="273.0" y="0.0" type="qcurve" smooth="yes"/>
    </contour>
  </outline>
</glyph>
<glyph name="o" format="2">
  <advance width="1148"/>
  <unicode hex="006F"/>
  <outline>
    <contour>
      <point x="85.0" y="525.0" type="qcurve" smooth="yes"/>
      <point x="85.0" y="760.0"/>
      <point x="334.0" y="1067.0"/>
      <point x="574.0" y="1067.0" type="qcurve" smooth="yes"/>
      <point x="814.0" y="1067.0"/>
      <point x="1063.0" y="760.0"/>
      <point x="1063.0" y="525.0" type="qcurve" smooth="yes"/>
      <point x="1063.0" y="290.0"/>
      <point x="814.0" y="-17.0"/>
      <point x="574.0" y="-17.0" type="qcurve" smooth="yes"/>
      <point x="334.0" y="-17.0"/>
      <point x="85.0" y="290.0"/>
    </contour>
    <contour>
      <point x="271.0" y="525.0" type="qcurve" smooth="yes"/>
      <point x="271.0" y="315.0"/>
      <point x="437.0" y="113.0"/>
      <point x="574.0" y="113.0" type="qcurve" smooth="yes"/>
      <point x="711.0" y="113.0"/>
      <point x="877.0" y="315.0"/>
      <point x="877.0" y="525.0" type="qcurve" smooth="yes"/>
      <point x="877.0" y="735.0"/>
      <point x="711.0" y="937.0"/>
      <point x="574.0" y="937.0" type="qcurve" smooth="yes"/>
      <point x="437.0" y="937.0"/>
      <point x="271.0" y="735.0"/>
    </contour>
  </outline>
</glyph>
<glyph name="r" format="2">
  <advance width="722"/>
  <unicode hex="0072"/>
  <outline>
    <contour>
      <point x="187.0" y="0.0" type="line" smooth="yes"/>
      <point x="142.0" y="0.0"/>
      <point x="142.0" y="45.0" type="qcurve" smooth="yes"/>
      <point x="142.0" y="1005.0" type="line" smooth="yes"/>
      <point x="142.0" y="1050.0"/>
      <point x="187.0" y="1050.0" type="qcurve" smooth="yes"/>
      <point x="271.0" y="1050.0" type="line" smooth="yes"/>
      <point x="316.0" y="1050.0"/>
      <point x="316.0" y="1005.0" type="qcurve" smooth="yes"/>
      <point x="316.0" y="885.0" type="line"/>
      <point x="320.0" y="885.0" type="line"/>
      <point x="368.0" y="975.0"/>
      <point x="498.0" y="1067.0"/>
      <point x="595.0" y="1067.0" type="qcurve" smooth="yes"/>
      <point x="659.0" y="1067.0"/>
      <point x="685.0" y="1056.0" type="qcurve" smooth="yes"/>
      <point x="707.9010009765625" y="1047.0400390625"/>
      <point x="702.0" y="1026.0" type="qcurve" smooth="yes"/>
      <point x="679.0" y="944.0" type="line" smooth="yes"/>
      <point x="673.9539794921875" y="926.0089721679688"/>
      <point x="653.0" y="930.0" type="qcurve" smooth="yes"/>
      <point x="618.0" y="937.0"/>
      <point x="587.0" y="937.0" type="qcurve" smooth="yes"/>
      <point x="470.0" y="937.0"/>
      <point x="318.0" y="726.0"/>
      <point x="318.0" y="544.0" type="qcurve" smooth="yes"/>
      <point x="318.0" y="45.0" type="line" smooth="yes"/>
      <point x="318.0" y="0.0"/>
      <point x="273.0" y="0.0" type="qcurve" smooth="yes"/>
    </contour>
  </outline>
</glyph>
<glyph name="z" format="2">
  <advance width="950"/>
  <unicode hex="007A"/>
  <outline>
    <contour>
      <point x="100.0" y="0.0" type="line" smooth="yes"/>
      <point x="55.0" y="0.0"/>
      <point x="55.0" y="35.0" type="qcurve" smooth="yes"/>
      <point x="55.0" y="86.0" type="line" smooth="yes"/>
      <point x="55.0" y="120.46399688720703"/>
      <point x="90.0" y="166.0" type="qcurve" smooth="yes"/>
      <point x="668.0" y="918.0" type="line"/>
      <point x="668.0" y="920.0" type="line"/>
      <point x="638.0" y="918.0"/>
      <point x="608.0" y="918.0" type="qcurve" smooth="yes"/>
      <point x="124.0" y="918.0" type="line" smooth="yes"/>
      <point x="79.0" y="918.0"/>
      <point x="79.0" y="953.0" type="qcurve" smooth="yes"/>
      <point x="79.0" y="1015.0" type="line" smooth="yes"/>
      <point x="79.0" y="1050.0"/>
      <point x="124.0" y="1050.0" type="qcurve" smooth="yes"/>
      <point x="826.0" y="1050.0" type="line" smooth="yes"/>
      <point x="871.0" y="1050.0"/>
      <point x="871.0" y="1015.0" type="qcurve" smooth="yes"/>
      <point x="871.0" y="968.0" type="line" smooth="yes"/>
      <point x="871.0" y="938.1890258789062"/>
      <point x="834.0" y="890.0" type="qcurve" smooth="yes"/>
      <point x="252.0" y="132.0" type="line"/>
      <point x="252.0" y="130.0" type="line"/>
      <point x="282.0" y="132.0"/>
      <point x="312.0" y="132.0" type="qcurve" smooth="yes"/>
      <point x="850.0" y="132.0" type="line" smooth="yes"/>
      <point x="895.0" y="132.0"/>
      <point x="895.0" y="97.0" type="qcurve" smooth="yes"/>
      <point x="895.0" y="35.0" type="line" smooth="yes"/>
      <point x="895.0" y="0.0"/>
      <point x="850.0" y="0.0" type="qcurve" smooth="yes"/>
    </contour>
  </outline>
</glyph>
<glyph name="braceleft" format="2">
  <advance width="776"/>
  <unicode hex="007B"/>
  <outline>
    <contour>
      <point x="125.0" y="479.0" type="qcurve" smooth="yes"/>
      <point x="90.0" y="479.0"/>
      <point x="90.0" y="524.0" type="qcurve" smooth="yes"/>
      <point x="90.0" y="564.0" type="line" smooth="yes"/>
      <point x="90.0" y="609.0"/>
      <point x="125.0" y="609.0" type="qcurve" smooth="yes"/>
      <point x="197.0" y="609.0"/>
      <point x="350.0" y="758.0"/>
      <point x="350.0" y="931.0" type="qcurve" smooth="yes"/>
      <point x="350.0" y="1166.0" type="line" smooth="yes"/>
      <point x="350.0" y="1335.0"/>
      <point x="476.0" y="1496.0"/>
      <point x="661.0" y="1496.0" type="qcurve" smooth="yes"/>
      <point x="706.0" y="1496.0"/>
      <point x="706.0" y="1461.0" type="qcurve" smooth="yes"/>
      <point x="706.0" y="1401.0" type="line" smooth="yes"/>
      <point x="706.0" y="1366.0"/>
      <point x="661.0" y="1366.0" type="qcurve" smooth="yes"/>
      <point x="563.0" y="1366.0"/>
      <point x="526.0" y="1284.0"/>
      <point x="526.0" y="1189.0" type="qcurve" smooth="yes"/>
      <point x="526.0" y="903.0" type="line" smooth="yes"/>
      <point x="526.0" y="698.0"/>
      <point x="343.0" y="554.0"/>
      <point x="279.0" y="545.0" type="qcurve"/>
      <point x="279.0" y="543.0" type="line"/>
      <point x="343.0" y="534.0"/>
      <point x="526.0" y="390.0"/>
      <point x="526.0" y="185.0" type="qcurve" smooth="yes"/>
      <point x="526.0" y="-101.0" type="line" smooth="yes"/>
      <point x="526.0" y="-196.0"/>
      <point x="563.0" y="-278.0"/>
      <point x="661.0" y="-278.0" type="qcurve" smooth="yes"/>
      <point x="706.0" y="-278.0"/>
      <point x="706.0" y="-313.0" type="qcurve" smooth="yes"/>
      <point x="706.0" y="-373.0" type="line" smooth="yes"/>
      <point x="706.0" y="-408.0"/>
      <point x="661.0" y="-408.0" type="qcurve" smooth="yes"/>
      <point x="476.0" y="-408.0"/>
      <point x="350.0" y="-247.0"/>
      <point x="350.0" y="-78.0" type="qcurve" smooth="yes"/>
      <point x="350.0" y="157.0" type="line" smooth="yes"/>
      <point x="350.0" y="330.0"/>
      <point x="197.0" y="479.0"/>
    </contour>
  </outline>
</glyph>
<glyph name="bar" format="2">
  <advance width="590"/>
  <unicode hex="007C"/>
  <outline>
    <contour>
      <point x="265.0" y="-440.0" type="line" smooth="yes"/>
      <point x="230.0" y="-440.0"/>
      <point x="230.0" y="-395.0" type="qcurve" smooth="yes"/>
      <point x="230.0" y="1451.0" type="line" smooth="yes"/>
      <point x="230.0" y="1496.0"/>
      <point x="265.0" y="1496.0" type="qcurve" smooth="yes"/>
      <point x="325.0" y="1496.0" type="line" smooth="yes"/>
      <point x="360.0" y="1496.0"/>
      <point x="360.0" y="1451.0" type="qcurve" smooth="yes"/>
      <point x="360.0" y="-395.0" type="line" smooth="yes"/>
      <point x="360.0" y="-440.0"/>
      <point x="325.0" y="-440.0" type="qcurve" smooth="yes"/>
    </contour>
  </outline>
</glyph>
<glyph name="exclamdown" format="2">
  <advance width="600"/>
  <unicode hex="00A1"/>
  <outline>
    <contour>
      <point x="248.0" y="-384.0" type="line" smooth="yes"/>
      <point x="198.0" y="-384.0"/>
      <point x="198.0" y="-329.0" type="qcurve" smooth="yes"/>
      <point x="219.0" y="615.0" type="line" smooth="yes"/>
      <point x="219.0" y="660.0"/>
      <point x="264.0" y="660.0" type="qcurve" smooth="yes"/>
      <point x="336.0" y="660.0" type="line" smooth="yes"/>
      <point x="381.0" y="660.0"/>
      <point x="381.0" y="615.0" type="qcurve" smooth="yes"/>
      <point x="402.0" y="-329.0" type="line" smooth="yes"/>
      <point x="402.0" y="-384.0"/>
      <point x="352.0" y="-384.0" type="qcurve" smooth="yes"/>
    </contour>
    <contour>
      <point x="244.0" y="838.0" type="line" smooth="yes"/>
      <point x="199.0" y="838.0"/>
      <point x="199.0" y="883.0" type="qcurve" smooth="yes"/>
      <point x="199.0" y="1005.0" type="line" smooth="yes"/>
      <point x="199.0" y="1050.0"/>
      <point x="244.0" y="1050.0" type="qcurve" smooth="yes"/>
      <point x="356.0" y="1050.0" type="line" smooth="yes"/>
      <point x="401.0" y="1050.0"/>
      <point x="401.0" y="1005.0" type="qcurve" smooth="yes"/>
      <point x="401.0" y="883.0" type="line" smooth="yes"/>
      <point x="401.0" y="838.0"/>
      <point x="356.0" y="838.0" type="qcurve" smooth="yes"/>
    </contour>
  </outline>
</glyph>
<glyph name="sterling" format="2">
  <advance width="1110"/>
  <unicode hex="00A3"/>
  <outline>
    <contour>
      <point x="134.0" y="0.0" type="line" smooth="yes"/>
      <point x="79.0" y="0.0"/>
      <point x="79.0" y="45.0" type="qcurve" smooth="yes"/>
      <point x="79.0" y="102.0" type="line" smooth="yes"/>
      <point x="79.0" y="138.0"/>
      <point x="114.0" y="175.0" type="qcurve" smooth="yes"/>
      <point x="144.0" y="207.0"/>
      <point x="281.0" y="351.0"/>
      <point x="281.0" y="475.0" type="qcurve" smooth="yes"/>
      <point x="281.0" y="628.0" type="line"/>
      <point x="123.0" y="628.0" type="line" smooth="yes"/>
      <point x="79.0" y="628.0"/>
      <point x="79.0" y="673.0" type="qcurve" smooth="yes"/>
      <point x="79.0" y="747.0" type="line" smooth="yes"/>
      <point x="79.0" y="792.0"/>
      <point x="124.0" y="792.0" type="qcurve" smooth="yes"/>
      <point x="281.0" y="792.0" type="line"/>
      <point x="281.0" y="1013.0" type="line" smooth="yes"/>
      <point x="281.0" y="1250.0"/>
      <point x="495.0" y="1452.0"/>
      <point x="690.0" y="1452.0" type="qcurve" smooth="yes"/>
      <point x="798.0" y="1452.0"/>
      <point x="954.0" y="1386.0"/>
      <point x="1001.0" y="1339.0" type="qcurve" smooth="yes"/>
      <point x="1036.0" y="1304.0"/>
      <point x="1014.0" y="1278.0" type="qcurve" smooth="yes"/>
      <point x="969.0" y="1226.0" type="line" smooth="yes"/>
      <point x="939.0" y="1191.0"/>
      <point x="902.0" y="1228.0" type="qcurve" smooth="yes"/>
      <point x="870.0" y="1260.0"/>
      <point x="759.0" y="1302.0"/>
      <point x="681.0" y="1302.0" type="qcurve" smooth="yes"/>
      <point x="585.0" y="1302.0"/>
      <point x="457.0" y="1197.0"/>
      <point x="457.0" y="1035.0" type="qcurve" smooth="yes"/>
      <point x="457.0" y="792.0" type="line"/>
      <point x="742.0" y="792.0" type="line" smooth="yes"/>
      <point x="787.0" y="792.0"/>
      <point x="787.0" y="747.0" type="qcurve" smooth="yes"/>
      <point x="787.0" y="673.0" type="line" smooth="yes"/>
      <point x="787.0" y="628.0"/>
      <point x="743.0" y="628.0" type="qcurve" smooth="yes"/>
      <point x="457.0" y="628.0" type="line"/>
      <point x="457.0" y="495.0" type="line" smooth="yes"/>
      <point x="457.0" y="354.0"/>
      <point x="364.0" y="194.0"/>
      <point x="319.0" y="166.0" type="qcurve"/>
      <point x="319.0" y="162.0" type="line"/>
      <point x="346.0" y="164.0"/>
      <point x="399.0" y="164.0" type="qcurve" smooth="yes"/>
      <point x="971.0" y="164.0" type="line" smooth="yes"/>
      <point x="1026.0" y="164.0"/>
      <point x="1026.0" y="119.0" type="qcurve" smooth="yes"/>
      <point x="1026.0" y="45.0" type="line" smooth="yes"/>
      <point x="1026.0" y="0.0"/>
      <point x="971.0" y="0.0" type="qcurve" smooth="yes"/>
    </contour>
  </outline>
</glyph>
<glyph name="section" format="2">
  <advance width="1160"/>
  <unicode hex="00A7"/>
  <outline>
    <contour>
      <point x="110.0" y="581.0" type="qcurve" smooth="yes"/>
      <point x="110.0" y="703.0"/>
      <point x="259.0" y="884.0"/>
      <point x="357.0" y="957.0" type="qcurve"/>
      <point x="274.0" y="1060.0"/>
      <point x="274.0" y="1155.0" type="qcurve" smooth="yes"/>
      <point x="274.0" y="1293.0"/>
      <point x="458.0" y="1464.0"/>
      <point x="606.0" y="1464.0" type="qcurve" smooth="yes"/>
      <point x="706.0" y="1464.0"/>
      <point x="846.0" y="1397.0"/>
      <point x="882.0" y="1350.0" type="qcurve" smooth="yes"/>
      <point x="908.0" y="1317.0"/>
      <point x="886.0" y="1295.0" type="qcurve" smooth="yes"/>
      <point x="831.0" y="1239.0" type="line" smooth="yes"/>
      <point x="811.0" y="1219.0"/>
      <point x="786.0" y="1253.0" type="qcurve" smooth="yes"/>
      <point x="765.0" y="1281.0"/>
      <point x="680.0" y="1334.0"/>
      <point x="615.0" y="1334.0" type="qcurve" smooth="yes"/>
      <point x="532.0" y="1334.0"/>
      <point x="456.0" y="1249.0"/>
      <point x="456.0" y="1185.0" type="qcurve" smooth="yes"/>
      <point x="456.0" y="1062.0"/>
      <point x="1050.0" y="658.0"/>
      <point x="1050.0" y="509.0" type="qcurve" smooth="yes"/>
      <point x="1050.0" y="387.0"/>
      <point x="901.0" y="206.0"/>
      <point x="803.0" y="133.0" type="qcurve"/>
      <point x="886.0" y="30.0"/>
      <point x="886.0" y="-65.0" type="qcurve" smooth="yes"/>
      <point x="886.0" y="-203.0"/>
      <point x="702.0" y="-374.0"/>
      <point x="554.0" y="-374.0" type="qcurve" smooth="yes"/>
      <point x="454.0" y="-374.0"/>
      <point x="314.0" y="-307.0"/>
      <point x="278.0" y="-260.0" type="qcurve" smooth="yes"/>
      <point x="252.0" y="-227.0"/>
      <point x="274.0" y="-205.0" type="qcurve" smooth="yes"/>
      <point x="329.0" y="-149.0" type="line" smooth="yes"/>
      <point x="349.0" y="-129.0"/>
      <point x="374.0" y="-163.0" type="qcurve" smooth="yes"/>
      <point x="395.0" y="-191.0"/>
      <point x="480.0" y="-244.0"/>
      <point x="545.0" y="-244.0" type="qcurve" smooth="yes"/>
      <point x="628.0" y="-244.0"/>
      <point x="704.0" y="-159.0"/>
      <point x="704.0" y="-95.0" type="qcurve" smooth="yes"/>
      <point x="704.0" y="28.0"/>
      <point x="110.0" y="432.0"/>
    </contour>
    <contour>
      <point x="281.0" y="646.0" type="qcurve" smooth="yes"/>
      <point x="281.0" y="535.0"/>
      <point x="662.0" y="272.0"/>
      <point x="720.0" y="219.0" type="qcurve"/>
      <point x="814.0" y="304.0" type="line" smooth="yes"/>
      <point x="879.0" y="363.0"/>
      <point x="879.0" y="444.0" type="qcurve" smooth="yes"/>
      <point x="879.0" y="555.0"/>
      <point x="498.0" y="818.0"/>
      <point x="440.0" y="871.0" type="qcurve"/>
      <point x="346.0" y="786.0" type="line" smooth="yes"/>
      <point x="281.0" y="727.0"/>
    </contour>
  </outline>
</glyph>
<glyph name="dieresis" format="2">
  <advance width="614"/>
  <unicode hex="00A8"/>
  <outline>
    <contour>
      <point x="61.0" y="1240.0" type="line" smooth="yes"/>
      <point x="16.0" y="1240.0"/>
      <point x="16.0" y="1285.0" type="qcurve" smooth="yes"/>
      <point x="16.0" y="1371.0" type="line" smooth="yes"/>
      <point x="16.0" y="1416.0"/>
      <point x="61.0" y="1416.0" type="qcurve" smooth="yes"/>
      <point x="147.0" y="1416.0" type="line" smooth="yes"/>
      <point x="192.0" y="1416.0"/>
      <point x="192.0" y="1371.0" type="qcurve" smooth="yes"/>
      <point x="192.0" y="1285.0" type="line" smooth="yes"/>
      <point x="192.0" y="1240.0"/>
      <point x="147.0" y="1240.0" type="qcurve" smooth="yes"/>
    </contour>
    <contour>
      <point x="467.0" y="1240.0" type="line" smooth="yes"/>
      <point x="422.0" y="1240.0"/>
      <point x="422.0" y="1285.0" type="qcurve" smooth="yes"/>
      <point x="422.0" y="1371.0" type="line" smooth="yes"/>
      <point x="422.0" y="1416.0"/>
      <point x="467.0" y="1416.0" type="qcurve" smooth="yes"/>
      <point x="553.0" y="1416.0" type="line" smooth="yes"/>
      <point x="598.0" y="1416.0"/>
      <point x="598.0" y="1371.0" type="qcurve" smooth="yes"/>
      <point x="598.0" y="1285.0" type="line" smooth="yes"/>
      <point x="598.0" y="1240.0"/>
      <point x="553.0" y="1240.0" type="qcurve" smooth="yes"/>
    </contour>
  </outline>
</glyph>
<glyph name="copyright" format="2">
  <advance width="1654"/>
  <unicode hex="00A9"/>
  <outline>
    <contour>
      <point x="80.0" y="717.0" type="qcurve" smooth="yes"/>
      <point x="80.0" y="869.0"/>
      <point x="199.0" y="1145.0"/>
      <point x="399.0" y="1345.0"/>
      <point x="675.0" y="1464.0"/>
      <point x="827.0" y="1464.0" type="qcurve" smooth="yes"/>
      <point x="979.0" y="1464.0"/>
      <point x="1255.0" y="1345.0"/>
      <point x="1455.0" y="1145.0"/>
      <point x="1574.0" y="869.0"/>
      <point x="1574.0" y="717.0" type="qcurve" smooth="yes"/>
      <point x="1574.0" y="565.0"/>
      <point x="1455.0" y="289.0"/>
      <point x="1255.0" y="89.0"/>
      <point x="979.0" y="-30.0"/>
      <point x="827.0" y="-30.0" type="qcurve" smooth="yes"/>
      <point x="675.0" y="-30.0"/>
      <point x="399.0" y="89.0"/>
      <point x="199.0" y="289.0"/>
      <point x="80.0" y="565.0"/>
    </contour>
    <contour>
      <point x="180.0" y="717.0" type="qcurve" smooth="yes"/>
      <point x="180.0" y="585.0"/>
      <point x="283.0" y="346.0"/>
      <point x="456.0" y="173.0"/>
      <point x="695.0" y="66.0"/>
      <point x="827.0" y="66.0" type="qcurve" smooth="yes"/>
      <point x="959.0" y="66.0"/>
      <point x="1198.0" y="173.0"/>
      <point x="1371.0" y="346.0"/>
      <point x="1474.0" y="585.0"/>
      <point x="1474.0" y="717.0" type="qcurve" smooth="yes"/>
      <point x="1474.0" y="849.0"/>
      <point x="1371.0" y="1088.0"/>
      <point x="1198.0" y="1261.0"/>
      <point x="959.0" y="1368.0"/>
      <point x="827.0" y="1368.0" type="qcurve" smooth="yes"/>
      <point x="695.0" y="1368.0"/>
      <point x="456.0" y="1261.0"/>
      <point x="283.0" y="1088.0"/>
      <point x="180.0" y="849.0"/>
    </contour>
    <contour>
      <point x="430.0" y="717.0" type="qcurve" smooth="yes"/>
      <point x="430.0" y="920.0"/>
      <point x="636.0" y="1150.0"/>
      <point x="825.0" y="1150.0" type="qcurve" smooth="yes"/>
      <point x="935.0" y="1150.0"/>
      <point x="1084.0" y="1074.0"/>
      <point x="1115.0" y="1009.0" type="qcurve" smooth="yes"/>
      <point x="1131.0" y="975.0"/>
      <point x="1110.0" y="963.0" type="qcurve" smooth="yes"/>
      <point x="1052.0" y="931.0" type="line" smooth="yes"/>
      <point x="1029.0" y="918.0"/>
      <point x="1011.0" y="953.0" type="qcurve" smooth="yes"/>
      <point x="992.0" y="990.0"/>
      <point x="912.0" y="1045.0"/>
      <point x="830.0" y="1045.0" type="qcurve" smooth="yes"/>
      <point x="685.0" y="1045.0"/>
      <point x="560.0" y="879.0"/>
      <point x="560.0" y="717.0" type="qcurve" smooth="yes"/>
      <point x="560.0" y="555.0"/>
      <point x="685.0" y="389.0"/>
      <point x="830.0" y="389.0" type="qcurve" smooth="yes"/>
      <point x="914.0" y="389.0"/>
      <point x="1007.0" y="458.0"/>
      <point x="1030.0" y="500.0" type="qcurve" smooth="yes"/>
      <point x="1048.0" y="533.0"/>
      <point x="1072.0" y="520.0" type="qcurve" smooth="yes"/>
      <point x="1132.0" y="487.0" type="line" smooth="yes"/>
      <point x="1153.0" y="475.0"/>
      <point x="1135.0" y="440.0" type="qcurve" smooth="yes"/>
      <point x="1101.0" y="373.0"/>
      <point x="942.0" y="284.0"/>
      <point x="825.0" y="284.0" type="qcurve" smooth="yes"/>
      <point x="637.0" y="284.0"/>
      <point x="430.0" y="514.0"/>
    </contour>
  </outline>
</glyph>
<glyph name="ordfeminine" format="2">
  <advance width="738"/>
  <unicode hex="00AA"/>
  <outline>
    <contour>
      <point x="58.0" y="978.0" type="qcurve" smooth="yes"/>
      <point x="58.0" y="1106.0"/>
      <point x="272.0" y="1208.0"/>
      <point x="497.0" y="1224.0" type="qcurve"/>
      <point x="497.0" y="1248.0" type="line" smooth="yes"/>
      <point x="497.0" y="1316.0"/>
      <point x="432.0" y="1388.0"/>
      <point x="348.0" y="1388.0" type="qcurve" smooth="yes"/>
      <point x="282.0" y="1388.0"/>
      <point x="214.0" y="1360.0"/>
      <point x="177.0" y="1327.0" type="qcurve" smooth="yes"/>
      <point x="157.0" y="1309.0"/>
      <point x="142.0" y="1325.0" type="qcurve" smooth="yes"/>
      <point x="95.0" y="1375.0" type="line" smooth="yes"/>
      <point x="79.0" y="1392.0"/>
      <point x="105.0" y="1414.0" type="qcurve" smooth="yes"/>
      <point x="160.0" y="1460.0"/>
      <point x="298.0" y="1493.0"/>
      <point x="366.0" y="1493.0" type="qcurve" smooth="yes"/>
      <point x="502.0" y="1493.0"/>
      <point x="629.0" y="1352.0"/>
      <point x="629.0" y="1221.0" type="qcurve" smooth="yes"/>
      <point x="629.0" y="828.0" type="line" smooth="yes"/>
      <point x="629.0" y="799.0"/>
      <point x="598.0" y="799.0" type="qcurve" smooth="yes"/>
      <point x="525.0" y="799.0" type="line" smooth="yes"/>
      <point x="499.0" y="799.0"/>
      <point x="499.0" y="828.0" type="qcurve" smooth="yes"/>
      <point x="499.0" y="860.0" type="line"/>
      <point x="497.0" y="860.0" type="line"/>
      <point x="442.0" y="818.0"/>
      <point x="353.0" y="788.0"/>
      <point x="290.0" y="788.0" type="qcurve" smooth="yes"/>
      <point x="186.0" y="788.0"/>
      <point x="58.0" y="887.0"/>
    </contour>
    <contour>
      <point x="196.0" y="985.0" type="qcurve" smooth="yes"/>
      <point x="196.0" y="942.0"/>
      <point x="248.0" y="896.0"/>
      <point x="313.0" y="896.0" type="qcurve" smooth="yes"/>
      <point x="354.0" y="896.0"/>
      <point x="446.0" y="916.0"/>
      <point x="497.0" y="950.0" type="qcurve"/>
      <point x="497.0" y="1119.0" type="line"/>
      <point x="294.0" y="1106.0"/>
      <point x="196.0" y="1030.0"/>
    </contour>
  </outline>
</glyph>
<glyph name="logicalnot" format="2">
  <advance width="1110"/>
  <unicode hex="00AC"/>
  <outline>
    <contour>
      <point x="125.0" y="808.0" type="line" smooth="yes"/>
      <point x="80.0" y="808.0"/>
      <point x="80.0" y="843.0" type="qcurve" smooth="yes"/>
      <point x="80.0" y="893.0" type="line" smooth="yes"/>
      <point x="80.0" y="928.0"/>
      <point x="125.0" y="928.0" type="qcurve" smooth="yes"/>
      <point x="985.0" y="928.0" type="line" smooth="yes"/>
      <point x="1030.0" y="928.0"/>
      <point x="1030.0" y="893.0" type="qcurve" smooth="yes"/>
      <point x="1030.0" y="473.0" type="line" smooth="yes"/>
      <point x="1030.0" y="428.0"/>
      <point x="995.0" y="428.0" type="qcurve" smooth="yes"/>
      <point x="945.0" y="428.0" type="line" smooth="yes"/>
      <point x="910.0" y="428.0"/>
      <point x="910.0" y="473.0" type="qcurve" smooth="yes"/>
      <point x="910.0" y="808.0" type="line"/>
    </contour>
  </outline>
</glyph>
<glyph name="acute" format="2">
  <advance width="614"/>
  <unicode hex="00B4"/>
  <outline>
    <contour>
      <point x="191.0" y="1150.0" type="line" smooth="yes"/>
      <point x="141.0" y="1150.0"/>
      <point x="179.0" y="1203.0" type="qcurve" smooth="yes"/>
      <point x="318.0" y="1398.0" type="line" smooth="yes"/>
      <point x="344.0" y="1435.0"/>
      <point x="399.0" y="1435.0" type="qcurve" smooth="yes"/>
      <point x="510.0" y="1435.0" type="line" smooth="yes"/>
      <point x="569.0" y="1435.0"/>
      <point x="524.0" y="1383.0" type="qcurve" smooth="yes"/>
      <point x="346.0" y="1179.0" type="line" smooth="yes"/>
      <point x="321.0" y="1150.0"/>
      <point x="265.0" y="1150.0" type="qcurve" smooth="yes"/>
    </contour>
  </outline>
</glyph>
<glyph name="uni00B5" format="2">
  <advance width="1160"/>
  <unicode hex="00B5"/>
  <outline>
    <contour>
      <point x="193.0" y="-417.0" type="line" smooth="yes"/>
      <point x="148.0" y="-417.0"/>
      <point x="148.0" y="-372.0" type="qcurve" smooth="yes"/>
      <point x="148.0" y="1004.0" type="line" smooth="yes"/>
      <point x="148.0" y="1049.0"/>
      <point x="193.0" y="1049.0" type="qcurve" smooth="yes"/>
      <point x="279.0" y="1049.0" type="line" smooth="yes"/>
      <point x="324.0" y="1049.0"/>
      <point x="324.0" y="1004.0" type="qcurve" smooth="yes"/>
      <point x="324.0" y="455.0" type="line" smooth="yes"/>
      <point x="324.0" y="300.0"/>
      <point x="468.0" y="112.0"/>
      <point x="588.0" y="112.0" type="qcurve" smooth="yes"/>
      <point x="684.0" y="112.0"/>
      <point x="842.0" y="288.0"/>
      <point x="842.0" y="456.0" type="qcurve" smooth="yes"/>
      <point x="842.0" y="1005.0" type="line" smooth="yes"/>
      <point x="842.0" y="1050.0"/>
      <point x="887.0" y="1050.0" type="qcurve" smooth="yes"/>
      <point x="973.0" y="1050.0" type="line" smooth="yes"/>
      <point x="1018.0" y="1050.0"/>
      <point x="1018.0" y="1005.0" type="qcurve" smooth="yes"/>
      <point x="1018.0" y="45.0" type="line" smooth="yes"/>
      <point x="1018.0" y="0.0"/>
      <point x="973.0" y="0.0" type="qcurve" smooth="yes"/>
      <point x="889.0" y="0.0" type="line" smooth="yes"/>
      <point x="844.0" y="0.0"/>
      <point x="844.0" y="45.0" type="qcurve" smooth="yes"/>
      <point x="844.0" y="125.0" type="line"/>
      <point x="840.0" y="125.0" type="line"/>
      <point x="774.0" y="46.0"/>
      <point x="642.0" y="-18.0"/>
      <point x="572.0" y="-18.0" type="qcurve" smooth="yes"/>
      <point x="502.0" y="-18.0"/>
      <point x="382.0" y="46.0"/>
      <point x="326.0" y="124.0" type="qcurve"/>
      <point x="322.0" y="124.0" type="line"/>
      <point x="324.0" y="94.0"/>
      <point x="324.0" y="64.0" type="qcurve" smooth="yes"/>
      <point x="324.0" y="-372.0" type="line" smooth="yes"/>
      <point x="324.0" y="-417.0"/>
      <point x="279.0" y="-417.0" type="qcurve" smooth="yes"/>
    </contour>
  </outline>
</glyph>
<glyph name="uni00B9" format="2">
  <advance width="480"/>
  <unicode hex="00B9"/>
  <outline>
    <contour>
      <point x="79.0" y="1315.0" type="line" smooth="yes"/>
      <point x="72.0" y="1329.0"/>
      <point x="91.0" y="1339.0" type="qcurve" smooth="yes"/>
      <point x="114.0" y="1351.0"/>
      <point x="203.0" y="1408.0"/>
      <point x="229.0" y="1441.0" type="qcurve" smooth="yes"/>
      <point x="244.0" y="1460.0"/>
      <point x="258.0" y="1460.0" type="qcurve" smooth="yes"/>
      <point x="330.0" y="1460.0" type="line" smooth="yes"/>
      <point x="354.0" y="1460.0"/>
      <point x="354.0" y="1437.0" type="qcurve" smooth="yes"/>
      <point x="354.0" y="735.0" type="line" smooth="yes"/>
      <point x="354.0" y="712.0"/>
      <point x="330.0" y="712.0" type="qcurve" smooth="yes"/>
      <point x="258.0" y="712.0" type="line" smooth="yes"/>
      <point x="234.0" y="712.0"/>
      <point x="234.0" y="735.0" type="qcurve" smooth="yes"/>
      <point x="234.0" y="1294.0" type="line" smooth="yes"/>
      <point x="234.0" y="1309.0"/>
      <point x="236.0" y="1325.0" type="qcurve"/>
      <point x="234.0" y="1325.0" type="line"/>
      <point x="218.0" y="1305.0"/>
      <point x="160.0" y="1262.0"/>
      <point x="134.0" y="1252.0" type="qcurve" smooth="yes"/>
      <point x="112.0" y="1243.0"/>
      <point x="104.0" y="1261.0" type="qcurve" smooth="yes"/>
    </contour>
  </outline>
</glyph>
<glyph name="ordmasculine" format="2">
  <advance width="780"/>
  <unicode hex="00BA"/>
  <outline>
    <contour>
      <point x="58.0" y="1140.0" type="qcurve" smooth="yes"/>
      <point x="58.0" y="1300.0"/>
      <point x="230.0" y="1493.0"/>
      <point x="390.0" y="1493.0" type="qcurve" smooth="yes"/>
      <point x="550.0" y="1493.0"/>
      <point x="722.0" y="1300.0"/>
      <point x="722.0" y="1140.0" type="qcurve" smooth="yes"/>
      <point x="722.0" y="980.0"/>
      <point x="550.0" y="788.0"/>
      <point x="390.0" y="788.0" type="qcurve" smooth="yes"/>
      <point x="230.0" y="788.0"/>
      <point x="58.0" y="980.0"/>
    </contour>
    <contour>
      <point x="196.0" y="1140.0" type="qcurve" smooth="yes"/>
      <point x="196.0" y="1010.0"/>
      <point x="305.0" y="896.0"/>
      <point x="390.0" y="896.0" type="qcurve" smooth="yes"/>
      <point x="475.0" y="896.0"/>
      <point x="584.0" y="1010.0"/>
      <point x="584.0" y="1140.0" type="qcurve" smooth="yes"/>
      <point x="584.0" y="1270.0"/>
      <point x="475.0" y="1385.0"/>
      <point x="390.0" y="1385.0" type="qcurve" smooth="yes"/>
      <point x="305.0" y="1385.0"/>
      <point x="196.0" y="1270.0"/>
    </contour>
  </outline>
</glyph>
<glyph name="questiondown" format="2">
  <advance width="1016"/>
  <unicode hex="00BF"/>
  <outline>
    <contour>
      <point x="106.0" y="-38.0" type="qcurve" smooth="yes"/>
      <point x="106.0" y="105.0"/>
      <point x="439.0" y="474.0"/>
      <point x="439.0" y="612.0" type="qcurve" smooth="yes"/>
      <point x="439.0" y="635.0" type="line" smooth="yes"/>
      <point x="439.0" y="680.0"/>
      <point x="484.0" y="680.0" type="qcurve" smooth="yes"/>
      <point x="570.0" y="680.0" type="line" smooth="yes"/>
      <point x="615.0" y="680.0"/>
      <point x="615.0" y="635.0" type="qcurve" smooth="yes"/>
      <point x="615.0" y="598.0" type="line" smooth="yes"/>
      <point x="615.0" y="429.0"/>
      <point x="302.0" y="72.0"/>
      <point x="302.0" y="-44.0" type="qcurve" smooth="yes"/>
      <point x="302.0" y="-166.0"/>
      <point x="416.0" y="-264.0"/>
      <point x="516.0" y="-264.0" type="qcurve" smooth="yes"/>
      <point x="626.0" y="-264.0"/>
      <point x="737.0" y="-184.0"/>
      <point x="766.0" y="-115.0" type="qcurve" smooth="yes"/>
      <point x="789.0" y="-61.0"/>
      <point x="831.0" y="-80.0" type="qcurve" smooth="yes"/>
      <point x="905.0" y="-114.0" type="line" smooth="yes"/>
      <point x="936.0" y="-128.0"/>
      <point x="908.0" y="-200.0" type="qcurve" smooth="yes"/>
      <point x="881.0" y="-267.0"/>
      <point x="698.0" y="-414.0"/>
      <point x="523.0" y="-414.0" type="qcurve" smooth="yes"/>
      <point x="308.0" y="-414.0"/>
      <point x="106.0" y="-209.0"/>
    </contour>
    <contour>
      <point x="472.0" y="838.0" type="line" smooth="yes"/>
      <point x="427.0" y="838.0"/>
      <point x="427.0" y="883.0" type="qcurve" smooth="yes"/>
      <point x="427.0" y="1005.0" type="line" smooth="yes"/>
      <point x="427.0" y="1050.0"/>
      <point x="472.0" y="1050.0" type="qcurve" smooth="yes"/>
      <point x="584.0" y="1050.0" type="line" smooth="yes"/>
      <point x="629.0" y="1050.0"/>
      <point x="629.0" y="1005.0" type="qcurve" smooth="yes"/>
      <point x="629.0" y="883.0" type="line" smooth="yes"/>
      <point x="629.0" y="838.0"/>
      <point x="584.0" y="838.0" type="qcurve" smooth="yes"/>
    </contour>
  </outline>
</glyph>
<glyph name="Eth" format="2">
  <advance width="1486"/>
  <unicode hex="00D0"/>
  <outline>
    <contour>
      <point x="95.0" y="654.0" type="line" smooth="yes"/>
      <point x="40.0" y="654.0"/>
      <point x="40.0" y="699.0" type="qcurve" smooth="yes"/>
      <point x="40.0" y="773.0" type="line" smooth="yes"/>
      <point x="40.0" y="818.0"/>
      <point x="95.0" y="818.0" type="qcurve" smooth="yes"/>
      <point x="220.0" y="818.0" type="line"/>
      <point x="220.0" y="1379.0" type="line" smooth="yes"/>
      <point x="220.0" y="1434.0"/>
      <point x="270.0" y="1434.0" type="qcurve" smooth="yes"/>
      <point x="639.0" y="1434.0" type="line" smooth="yes"/>
      <point x="1063.0" y="1434.0"/>
      <point x="1394.0" y="1059.0"/>
      <point x="1394.0" y="719.0" type="qcurve" smooth="yes"/>
      <point x="1394.0" y="379.0"/>
      <point x="1063.0" y="0.0"/>
      <point x="639.0" y="0.0" type="qcurve" smooth="yes"/>
      <point x="270.0" y="0.0" type="line" smooth="yes"/>
      <point x="220.0" y="0.0"/>
      <point x="220.0" y="55.0" type="qcurve" smooth="yes"/>
      <point x="220.0" y="654.0" type="line"/>
    </contour>
    <contour>
      <point x="412.0" y="164.0" type="line"/>
      <point x="630.0" y="164.0" type="line" smooth="yes"/>
      <point x="960.0" y="164.0"/>
      <point x="1189.0" y="444.0"/>
      <point x="1189.0" y="719.0" type="qcurve" smooth="yes"/>
      <point x="1189.0" y="994.0"/>
      <point x="960.0" y="1272.0"/>
      <point x="630.0" y="1272.0" type="qcurve" smooth="yes"/>
      <point x="412.0" y="1272.0" type="line"/>
      <point x="412.0" y="818.0" type="line"/>
      <point x="723.0" y="818.0" type="line" smooth="yes"/>
      <point x="778.0" y="818.0"/>
      <point x="778.0" y="773.0" type="qcurve" smooth="yes"/>
      <point x="778.0" y="699.0" type="line" smooth="yes"/>
      <point x="778.0" y="654.0"/>
      <point x="723.0" y="654.0" type="qcurve" smooth="yes"/>
      <point x="412.0" y="654.0" type="line"/>
    </contour>
  </outline>
</glyph>
<glyph name="Oslash" format="2">
  <advance width="1524"/>
  <unicode hex="00D8"/>
  <outline>
    <contour>
      <point x="92.0" y="717.0" type="qcurve" smooth="yes"/>
      <point x="92.0" y="1067.0"/>
      <point x="437.0" y="1464.0"/>
      <point x="762.0" y="1464.0" type="qcurve" smooth="yes"/>
      <point x="1038.0" y="1464.0"/>
      <point x="1204.0" y="1321.0" type="qcurve"/>
      <point x="1325.0" y="1455.0" type="line" smooth="yes"/>
      <point x="1362.0" y="1496.0"/>
      <point x="1395.0" y="1465.0" type="qcurve" smooth="yes"/>
      <point x="1440.0" y="1425.0" type="line" smooth="yes"/>
      <point x="1473.0" y="1395.0"/>
      <point x="1437.0" y="1354.0" type="qcurve" smooth="yes"/>
      <point x="1304.0" y="1207.0" type="line"/>
      <point x="1432.0" y="1018.0"/>
      <point x="1432.0" y="717.0" type="qcurve" smooth="yes"/>
      <point x="1432.0" y="367.0"/>
      <point x="1087.0" y="-30.0"/>
      <point x="762.0" y="-30.0" type="qcurve" smooth="yes"/>
      <point x="486.0" y="-30.0"/>
      <point x="320.0" y="113.0" type="qcurve"/>
      <point x="199.0" y="-21.0" type="line" smooth="yes"/>
      <point x="162.0" y="-62.0"/>
      <point x="129.0" y="-31.0" type="qcurve" smooth="yes"/>
      <point x="84.0" y="9.0" type="line" smooth="yes"/>
      <point x="51.0" y="39.0"/>
      <point x="87.0" y="80.0" type="qcurve" smooth="yes"/>
      <point x="220.0" y="227.0" type="line"/>
      <point x="92.0" y="416.0"/>
    </contour>
    <contour>
      <point x="297.0" y="717.0" type="qcurve" smooth="yes"/>
      <point x="297.0" y="516.0"/>
      <point x="356.0" y="379.0" type="qcurve"/>
      <point x="1083.0" y="1187.0" type="line"/>
      <point x="969.0" y="1308.0"/>
      <point x="762.0" y="1308.0" type="qcurve" smooth="yes"/>
      <point x="527.0" y="1308.0"/>
      <point x="297.0" y="997.0"/>
    </contour>
    <contour>
      <point x="441.0" y="247.0" type="line"/>
      <point x="555.0" y="126.0"/>
      <point x="762.0" y="126.0" type="qcurve" smooth="yes"/>
      <point x="997.0" y="126.0"/>
      <point x="1227.0" y="437.0"/>
      <point x="1227.0" y="717.0" type="qcurve" smooth="yes"/>
      <point x="1227.0" y="918.0"/>
      <point x="1168.0" y="1055.0" type="qcurve"/>
    </contour>
  </outline>
</glyph>
<glyph name="ae" format="2">
  <advance width="1729"/>
  <unicode hex="00E6"/>
  <outline>
    <contour>
      <point x="85.0" y="280.0" type="qcurve" smooth="yes"/>
      <point x="85.0" y="458.0"/>
      <point x="413.0" y="624.0"/>
      <point x="739.0" y="638.0" type="qcurve"/>
      <point x="739.0" y="706.0" type="line" smooth="yes"/>
      <point x="739.0" y="800.0"/>
      <point x="654.0" y="937.0"/>
      <point x="533.0" y="937.0" type="qcurve" smooth="yes"/>
      <point x="441.0" y="937.0"/>
      <point x="346.0469970703125" y="897.6119995117188"/>
      <point x="282.0039978027344" y="854.156982421875"/>
      <point x="247.0" y="815.0" type="qcurve" smooth="yes"/>
      <point x="220.0" y="785.0"/>
      <point x="196.0" y="812.0" type="qcurve" smooth="yes"/>
      <point x="144.0" y="872.0" type="line" smooth="yes"/>
      <point x="122.0" y="897.0"/>
      <point x="159.0" y="932.0" type="qcurve" smooth="yes"/>
      <point x="204.23899841308594" y="975.031982421875"/>
      <point x="301.6860046386719" y="1025.719970703125"/>
      <point x="461.0" y="1067.0"/>
      <point x="533.0" y="1067.0" type="qcurve" smooth="yes"/>
      <point x="634.0" y="1067.0"/>
      <point x="803.0" y="1007.0"/>
      <point x="854.0" y="913.0" type="qcurve"/>
      <point x="857.0" y="913.0" type="line"/>
      <point x="936.0" y="1008.0"/>
      <point x="1113.0" y="1067.0"/>
      <point x="1203.0" y="1067.0" type="qcurve" smooth="yes"/>
      <point x="1389.0" y="1067.0"/>
      <point x="1640.0" y="798.0"/>
      <point x="1640.0" y="503.0" type="qcurve" smooth="yes"/>
      <point x="1640.0" y="458.0"/>
      <point x="1599.0" y="458.0" type="qcurve" smooth="yes"/>
      <point x="919.0" y="458.0" type="line"/>
      <point x="935.0" y="265.0"/>
      <point x="1104.0" y="114.0"/>
      <point x="1211.0" y="114.0" type="qcurve" smooth="yes"/>
      <point x="1323.0" y="114.0"/>
      <point x="1444.0" y="192.0"/>
      <point x="1472.0" y="230.0" type="qcurve" smooth="yes"/>
      <point x="1504.0" y="272.0"/>
      <point x="1534.0" y="246.0" type="qcurve" smooth="yes"/>
      <point x="1593.0" y="195.0" type="line" smooth="yes"/>
      <point x="1616.0" y="175.0"/>
      <point x="1593.0" y="140.0" type="qcurve" smooth="yes"/>
      <point x="1574.0" y="111.0"/>
      <point x="1397.0" y="-17.0"/>
      <point x="1211.0" y="-17.0" type="qcurve" smooth="yes"/>
      <point x="1085.0" y="-17.0"/>
      <point x="905.0" y="59.0"/>
      <point x="833.0" y="156.0" type="qcurve"/>
      <point x="831.0" y="156.0" type="line"/>
      <point x="718.0" y="60.0"/>
      <point x="522.0" y="-17.0"/>
      <point x="421.0" y="-17.0" type="qcurve" smooth="yes"/>
      <point x="262.0" y="-17.0"/>
      <point x="85.0" y="140.0"/>
    </contour>
    <contour>
      <point x="267.0" y="276.0" type="qcurve" smooth="yes"/>
      <point x="267.0" y="224.5"/>
      <point x="300.5" y="159.0"/>
      <point x="373.0" y="118.0"/>
      <point x="456.0" y="118.0" type="qcurve" smooth="yes"/>
      <point x="552.0" y="118.0"/>
      <point x="686.0" y="166.0"/>
      <point x="759.0" y="233.0" type="qcurve"/>
      <point x="739.0" y="365.0"/>
      <point x="739.0" y="507.0" type="qcurve"/>
      <point x="539.218017578125" y="491.7669982910156"/>
      <point x="364.0" y="443.0"/>
      <point x="267.0" y="338.0"/>
    </contour>
    <contour>
      <point x="915.0" y="588.0" type="qcurve"/>
      <point x="1463.0" y="588.0" type="line"/>
      <point x="1459.0" y="728.0"/>
      <point x="1327.0" y="939.0"/>
      <point x="1199.0" y="939.0" type="qcurve" smooth="yes"/>
      <point x="1087.0" y="939.0"/>
      <point x="930.0" y="784.0"/>
    </contour>
  </outline>
</glyph>
<glyph name="eth" format="2">
  <advance width="1153"/>
  <unicode hex="00F0"/>
  <outline>
    <contour>
      <point x="85.0" y="517.0" type="qcurve" smooth="yes"/>
      <point x="85.0" y="738.0"/>
      <point x="324.0" y="1050.0"/>
      <point x="531.0" y="1050.0" type="qcurve" smooth="yes"/>
      <point x="637.0" y="1050.0"/>
      <point x="793.0" y="986.0"/>
      <point x="839.0" y="938.0" type="qcurve"/>
      <point x="848.0" y="938.0" type="line"/>
      <point x="810.0" y="1040.0"/>
      <point x="655.0" y="1214.0"/>
      <point x="615.0" y="1248.0" type="qcurve"/>
      <point x="432.0" y="1155.0" type="line" smooth="yes"/>
      <point x="389.0" y="1133.0"/>
      <point x="376.0" y="1166.0" type="qcurve" smooth="yes"/>
      <point x="358.0" y="1212.0" type="line" smooth="yes"/>
      <point x="345.0" y="1245.0"/>
      <point x="382.0" y="1264.0" type="qcurve" smooth="yes"/>
      <point x="512.0" y="1330.0" type="line"/>
      <point x="479.0" y="1350.0"/>
      <point x="425.0" y="1374.0" type="qcurve" smooth="yes"/>
      <point x="381.0" y="1395.0"/>
      <point x="401.0" y="1426.0" type="qcurve" smooth="yes"/>
      <point x="431.0" y="1474.0" type="line" smooth="yes"/>
      <point x="449.0" y="1503.0"/>
      <point x="499.0" y="1484.0" type="qcurve" smooth="yes"/>
      <point x="596.0" y="1448.0"/>
      <point x="654.0" y="1403.0" type="qcurve"/>
      <point x="789.0" y="1472.0" type="line" smooth="yes"/>
      <point x="832.0" y="1494.0"/>
      <point x="845.0" y="1461.0" type="qcurve" smooth="yes"/>
      <point x="863.0" y="1415.0" type="line" smooth="yes"/>
      <point x="876.0" y="1382.0"/>
      <point x="839.0" y="1363.0" type="qcurve" smooth="yes"/>
      <point x="756.0" y="1320.0" type="line"/>
      <point x="860.0" y="1232.0"/>
      <point x="1064.0" y="828.0"/>
      <point x="1064.0" y="586.0" type="qcurve" smooth="yes"/>
      <point x="1064.0" y="330.0"/>
      <point x="828.0" y="-17.0"/>
      <point x="574.0" y="-17.0" type="qcurve" smooth="yes"/>
      <point x="334.0" y="-17.0"/>
      <point x="85.0" y="297.0"/>
    </contour>
    <contour>
      <point x="271.0" y="517.0" type="qcurve" smooth="yes"/>
      <point x="271.0" y="312.0"/>
      <point x="437.0" y="113.0"/>
      <point x="574.0" y="113.0" type="qcurve" smooth="yes"/>
      <point x="711.0" y="113.0"/>
      <point x="877.0" y="318.0"/>
      <point x="877.0" y="517.0" type="qcurve" smooth="yes"/>
      <point x="877.0" y="697.0"/>
      <point x="711.0" y="920.0"/>
      <point x="574.0" y="920.0" type="qcurve" smooth="yes"/>
      <point x="437.0" y="920.0"/>
      <point x="271.0" y="717.0"/>
    </contour>
  </outline>
</glyph>
<glyph name="thorn" format="2">
  <advance width="1119"/>
  <unicode hex="00FE"/>
  <outline>
    <contour>
      <point x="187.0" y="-400.0" type="line" smooth="yes"/>
      <point x="142.0" y="-400.0"/>
      <point x="142.0" y="-355.0" type="qcurve" smooth="yes"/>
      <point x="142.0" y="1431.0" type="line" smooth="yes"/>
      <point x="142.0" y="1476.0"/>
      <point x="187.0" y="1476.0" type="qcurve" smooth="yes"/>
      <point x="273.0" y="1476.0" type="line" smooth="yes"/>
      <point x="318.0" y="1476.0"/>
      <point x="318.0" y="1431.0" type="qcurve" smooth="yes"/>
      <point x="318.0" y="986.0" type="line" smooth="yes"/>
      <point x="318.0" y="955.0"/>
      <point x="316.0" y="925.0" type="qcurve"/>
      <point x="318.0" y="925.0" type="line"/>
      <point x="373.0" y="991.0"/>
      <point x="511.0" y="1067.0"/>
      <point x="626.0" y="1067.0" type="qcurve" smooth="yes"/>
      <point x="826.0" y="1067.0"/>
      <point x="1034.0" y="740.0"/>
      <point x="1034.0" y="525.0" type="qcurve" smooth="yes"/>
      <point x="1034.0" y="310.0"/>
      <point x="826.0" y="-17.0"/>
      <point x="626.0" y="-17.0" type="qcurve" smooth="yes"/>
      <point x="511.0" y="-17.0"/>
      <point x="373.0" y="59.0"/>
      <point x="318.0" y="125.0" type="qcurve"/>
      <point x="316.0" y="125.0" type="line"/>
      <point x="318.0" y="95.0"/>
      <point x="318.0" y="64.0" type="qcurve" smooth="yes"/>
      <point x="318.0" y="-355.0" type="line" smooth="yes"/>
      <point x="318.0" y="-400.0"/>
      <point x="273.0" y="-400.0" type="qcurve" smooth="yes"/>
    </contour>
    <contour>
      <point x="318.0" y="410.0" type="line" smooth="yes"/>
      <point x="318.0" y="260.0"/>
      <point x="461.0" y="113.0"/>
      <point x="569.0" y="113.0" type="qcurve" smooth="yes"/>
      <point x="721.0" y="113.0"/>
      <point x="848.0" y="341.0"/>
      <point x="848.0" y="525.0" type="qcurve" smooth="yes"/>
      <point x="848.0" y="709.0"/>
      <point x="721.0" y="937.0"/>
      <point x="569.0" y="937.0" type="qcurve" smooth="yes"/>
      <point x="461.0" y="937.0"/>
      <point x="318.0" y="790.0"/>
      <point x="318.0" y="640.0" type="qcurve" smooth="yes"/>
    </contour>
  </outline>
</glyph>
<glyph name="Aogonek" format="2">
  <advance width="1360"/>
  <unicode hex="0104"/>
  <outline>
    <contour>
      <point x="73.0" y="0.0" type="line" smooth="yes"/>
      <point x="21.0" y="0.0"/>
      <point x="46.0" y="66.0" type="qcurve" smooth="yes"/>
      <point x="544.0" y="1373.0" type="line" smooth="yes"/>
      <point x="567.0" y="1434.0"/>
      <point x="610.0" y="1434.0" type="qcurve" smooth="yes"/>
      <point x="750.0" y="1434.0" type="line" smooth="yes"/>
      <point x="793.0" y="1434.0"/>
      <point x="816.0" y="1373.0" type="qcurve" smooth="yes"/>
      <point x="1314.0" y="66.0" type="line" smooth="yes"/>
      <point x="1333.0" y="15.0"/>
      <point x="1305.0" y="-0.0" type="qcurve" smooth="yes"/>
      <point x="1247.0" y="-32.0"/>
      <point x="1113.0" y="-152.0"/>
      <point x="1113.0" y="-211.0" type="qcurve" smooth="yes"/>
      <point x="1113.0" y="-248.55799865722656"/>
      <point x="1153.030029296875" y="-287.0"/>
      <point x="1194.0" y="-287.0" type="qcurve" smooth="yes"/>
      <point x="1244.0" y="-287.0"/>
      <point x="1274.0" y="-280.0" type="qcurve" smooth="yes"/>
      <point x="1295.0" y="-275.0"/>
      <point x="1299.0" y="-299.0" type="qcurve" smooth="yes"/>
      <point x="1312.0" y="-378.0" type="line" smooth="yes"/>
      <point x="1316.0" y="-402.0"/>
      <point x="1294.0" y="-406.0" type="qcurve" smooth="yes"/>
      <point x="1229.0" y="-417.0"/>
      <point x="1171.0" y="-417.0" type="qcurve" smooth="yes"/>
      <point x="1055.0" y="-417.0"/>
      <point x="953.0" y="-316.0"/>
      <point x="953.0" y="-255.0" type="qcurve" smooth="yes"/>
      <point x="953.0" y="-193.0"/>
      <point x="998.0" y="-111.0"/>
      <point x="1057.0" y="-57.0"/>
      <point x="1111.0" y="-16.0" type="qcurve" smooth="yes"/>
      <point x="1132.0" y="0.0"/>
      <point x="1113.0" y="49.0" type="qcurve" smooth="yes"/>
      <point x="988.0" y="380.0" type="line"/>
      <point x="372.0" y="380.0" type="line"/>
      <point x="247.0" y="49.0" type="line" smooth="yes"/>
      <point x="228.0" y="0.0"/>
      <point x="175.0" y="0.0" type="qcurve" smooth="yes"/>
    </contour>
    <contour>
      <point x="435.0" y="544.0" type="line"/>
      <point x="925.0" y="544.0" type="line"/>
      <point x="772.0" y="944.0" type="line" smooth="yes"/>
      <point x="751.0" y="1000.0"/>
      <point x="710.0" y="1136.0"/>
      <point x="682.0" y="1261.0" type="qcurve"/>
      <point x="678.0" y="1261.0" type="line"/>
      <point x="650.0" y="1136.0"/>
      <point x="609.0" y="1000.0"/>
      <point x="588.0" y="944.0" type="qcurve" smooth="yes"/>
    </contour>
  </outline>
</glyph>
<glyph name="aogonek" format="2">
  <advance width="1067"/>
  <unicode hex="0105"/>
  <outline>
    <contour>
      <point x="85.0" y="280.0" type="qcurve" smooth="yes"/>
      <point x="85.0" y="458.0"/>
      <point x="418.0" y="624.0"/>
      <point x="749.0" y="638.0" type="qcurve"/>
      <point x="749.0" y="706.0" type="line" smooth="yes"/>
      <point x="749.0" y="800.0"/>
      <point x="664.0" y="937.0"/>
      <point x="538.0" y="937.0" type="qcurve" smooth="yes"/>
      <point x="458.0" y="937.0"/>
      <point x="362.0" y="906.0"/>
      <point x="283.0" y="855.0"/>
      <point x="247.0" y="815.0" type="qcurve" smooth="yes"/>
      <point x="220.0" y="785.0"/>
      <point x="196.0" y="812.0" type="qcurve" smooth="yes"/>
      <point x="144.0" y="872.0" type="line" smooth="yes"/>
      <point x="122.0" y="897.0"/>
      <point x="159.0" y="932.0" type="qcurve" smooth="yes"/>
      <point x="212.0" y="982.0"/>
      <point x="312.0" y="1032.0"/>
      <point x="461.0" y="1067.0"/>
      <point x="538.0" y="1067.0" type="qcurve" smooth="yes"/>
      <point x="747.0" y="1067.0"/>
      <point x="925.0" y="852.0"/>
      <point x="925.0" y="665.0" type="qcurve" smooth="yes"/>
      <point x="925.0" y="45.0" type="line" smooth="yes"/>
      <point x="925.0" y="15.0"/>
      <point x="908.0" y="0.0" type="qcurve"/>
      <point x="813.0" y="-69.0"/>
      <point x="724.0" y="-161.0"/>
      <point x="724.0" y="-211.0" type="qcurve" smooth="yes"/>
      <point x="724.0" y="-251.0"/>
      <point x="771.0" y="-287.0"/>
      <point x="805.0" y="-287.0" type="qcurve" smooth="yes"/>
      <point x="855.0" y="-287.0"/>
      <point x="885.0" y="-280.0" type="qcurve" smooth="yes"/>
      <point x="906.0" y="-275.0"/>
      <point x="910.0" y="-299.0" type="qcurve" smooth="yes"/>
      <point x="923.0" y="-378.0" type="line" smooth="yes"/>
      <point x="927.0" y="-402.0"/>
      <point x="905.0" y="-406.0" type="qcurve" smooth="yes"/>
      <point x="840.0" y="-417.0"/>
      <point x="782.0" y="-417.0" type="qcurve" smooth="yes"/>
      <point x="666.0" y="-417.0"/>
      <point x="564.0" y="-316.0"/>
      <point x="564.0" y="-255.0" type="qcurve" smooth="yes"/>
      <point x="564.0" y="-202.0"/>
      <point x="607.0" y="-113.0"/>
      <point x="681.0" y="-45.0"/>
      <point x="735.0" y="-6.0" type="qcurve"/>
      <point x="751.0" y="7.0"/>
      <point x="751.0" y="45.0" type="qcurve" smooth="yes"/>
      <point x="751.0" y="94.0" type="line"/>
      <point x="749.0" y="94.0" type="line"/>
      <point x="670.0" y="32.0"/>
      <point x="519.0" y="-17.0"/>
      <point x="426.0" y="-17.0" type="qcurve" smooth="yes"/>
      <point x="262.0" y="-17.0"/>
      <point x="85.0" y="140.0"/>
    </contour>
    <contour>
      <point x="267.0" y="276.0" type="qcurve" smooth="yes"/>
      <point x="267.0" y="214.0"/>
      <point x="319.0" y="139.0"/>
      <point x="411.0" y="118.0"/>
      <point x="461.0" y="118.0" type="qcurve" smooth="yes"/>
      <point x="538.0" y="118.0"/>
      <point x="676.0" y="148.0"/>
      <point x="749.0" y="212.0" type="qcurve"/>
      <point x="749.0" y="507.0" type="line"/>
      <point x="547.0" y="492.0"/>
      <point x="375.0" y="449.0"/>
      <point x="267.0" y="344.0"/>
    </contour>
  </outline>
</glyph>
<glyph name="dcroat" format="2">
  <advance width="1156"/>
  <unicode hex="0111"/>
  <outline>
    <contour>
      <point x="85.0" y="525.0" type="qcurve" smooth="yes"/>
      <point x="85.0" y="740.0"/>
      <point x="293.0" y="1067.0"/>
      <point x="493.0" y="1067.0" type="qcurve" smooth="yes"/>
      <point x="608.0" y="1067.0"/>
      <point x="746.0" y="991.0"/>
      <point x="801.0" y="925.0" type="qcurve"/>
      <point x="803.0" y="925.0" type="line"/>
      <point x="801.0" y="955.0"/>
      <point x="801.0" y="986.0" type="qcurve" smooth="yes"/>
      <point x="801.0" y="1208.0" type="line"/>
      <point x="493.0" y="1208.0" type="line" smooth="yes"/>
      <point x="448.0" y="1208.0"/>
      <point x="448.0" y="1243.0" type="qcurve" smooth="yes"/>
      <point x="448.0" y="1305.0" type="line" smooth="yes"/>
      <point x="448.0" y="1340.0"/>
      <point x="493.0" y="1340.0" type="qcurve" smooth="yes"/>
      <point x="801.0" y="1340.0" type="line"/>
      <point x="801.0" y="1431.0" type="line" smooth="yes"/>
      <point x="801.0" y="1476.0"/>
      <point x="846.0" y="1476.0" type="qcurve" smooth="yes"/>
      <point x="932.0" y="1476.0" type="line" smooth="yes"/>
      <point x="977.0" y="1476.0"/>
      <point x="977.0" y="1431.0" type="qcurve" smooth="yes"/>
      <point x="977.0" y="1340.0" type="line"/>
      <point x="1091.0" y="1340.0" type="line" smooth="yes"/>
      <point x="1136.0" y="1340.0"/>
      <point x="1136.0" y="1305.0" type="qcurve" smooth="yes"/>
      <point x="1136.0" y="1243.0" type="line" smooth="yes"/>
      <point x="1136.0" y="1208.0"/>
      <point x="1091.0" y="1208.0" type="qcurve" smooth="yes"/>
      <point x="977.0" y="1208.0" type="line"/>
      <point x="977.0" y="45.0" type="line" smooth="yes"/>
      <point x="977.0" y="0.0"/>
      <point x="932.0" y="0.0" type="qcurve" smooth="yes"/>
      <point x="848.0" y="0.0" type="line" smooth="yes"/>
      <point x="812.0" y="0.0"/>
      <point x="809.0" y="45.0" type="qcurve" smooth="yes"/>
      <point x="803.0" y="125.0" type="line"/>
      <point x="801.0" y="125.0" type="line"/>
      <point x="746.0" y="59.0"/>
      <point x="608.0" y="-17.0"/>
      <point x="493.0" y="-17.0" type="qcurve" smooth="yes"/>
      <point x="293.0" y="-17.0"/>
      <point x="85.0" y="310.0"/>
    </contour>
    <contour>
      <point x="271.0" y="525.0" type="qcurve" smooth="yes"/>
      <point x="271.0" y="341.0"/>
      <point x="398.0" y="113.0"/>
      <point x="550.0" y="113.0" type="qcurve" smooth="yes"/>
      <point x="658.0" y="113.0"/>
      <point x="801.0" y="260.0"/>
      <point x="801.0" y="410.0" type="qcurve" smooth="yes"/>
      <point x="801.0" y="640.0" type="line" smooth="yes"/>
      <point x="801.0" y="790.0"/>
      <point x="658.0" y="937.0"/>
      <point x="550.0" y="937.0" type="qcurve" smooth="yes"/>
      <point x="398.0" y="937.0"/>
      <point x="271.0" y="709.0"/>
    </contour>
  </outline>
</glyph>
<glyph name="hbar" format="2">
  <advance width="1198"/>
  <unicode hex="0127"/>
  <outline>
    <contour>
      <point x="75.0" y="1208.0" type="line" smooth="yes"/>
      <point x="30.0" y="1208.0"/>
      <point x="30.0" y="1243.0" type="qcurve" smooth="yes"/>
      <point x="30.0" y="1305.0" type="line" smooth="yes"/>
      <point x="30.0" y="1340.0"/>
      <point x="75.0" y="1340.0" type="qcurve" smooth="yes"/>
      <point x="212.0" y="1340.0" type="line"/>
      <point x="212.0" y="1431.0" type="line" smooth="yes"/>
      <point x="212.0" y="1476.0"/>
      <point x="257.0" y="1476.0" type="qcurve" smooth="yes"/>
      <point x="343.0" y="1476.0" type="line" smooth="yes"/>
      <point x="388.0" y="1476.0"/>
      <point x="388.0" y="1431.0" type="qcurve" smooth="yes"/>
      <point x="388.0" y="1340.0" type="line"/>
      <point x="751.0" y="1340.0" type="line" smooth="yes"/>
      <point x="796.0" y="1340.0"/>
      <point x="796.0" y="1305.0" type="qcurve" smooth="yes"/>
      <point x="796.0" y="1243.0" type="line" smooth="yes"/>
      <point x="796.0" y="1208.0"/>
      <point x="751.0" y="1208.0" type="qcurve" smooth="yes"/>
      <point x="388.0" y="1208.0" type="line"/>
      <point x="388.0" y="985.0" type="line" smooth="yes"/>
      <point x="388.0" y="955.0"/>
      <point x="386.0" y="925.0" type="qcurve"/>
      <point x="390.0" y="925.0" type="line"/>
      <point x="455.0" y="997.0"/>
      <point x="605.0" y="1067.0"/>
      <point x="717.0" y="1067.0" type="qcurve" smooth="yes"/>
      <point x="899.0" y="1067.0"/>
      <point x="1058.0" y="862.0"/>
      <point x="1058.0" y="684.0" type="qcurve" smooth="yes"/>
      <point x="1058.0" y="45.0" type="line" smooth="yes"/>
      <point x="1058.0" y="0.0"/>
      <point x="1013.0" y="0.0" type="qcurve" smooth="yes"/>
      <point x="927.0" y="0.0" type="line" smooth="yes"/>
      <point x="882.0" y="0.0"/>
      <point x="882.0" y="45.0" type="qcurve" smooth="yes"/>
      <point x="882.0" y="636.0" type="line" smooth="yes"/>
      <point x="882.0" y="832.0"/>
      <point x="752.0" y="937.0"/>
      <point x="652.0" y="937.0" type="qcurve" smooth="yes"/>
      <point x="522.0" y="937.0"/>
      <point x="388.0" y="782.0"/>
      <point x="388.0" y="594.0" type="qcurve" smooth="yes"/>
      <point x="388.0" y="45.0" type="line" smooth="yes"/>
      <point x="388.0" y="0.0"/>
      <point x="343.0" y="0.0" type="qcurve" smooth="yes"/>
      <point x="257.0" y="0.0" type="line" smooth="yes"/>
      <point x="212.0" y="0.0"/>
      <point x="212.0" y="45.0" type="qcurve" smooth="yes"/>
      <point x="212.0" y="1208.0" type="line"/>
    </contour>
  </outline>
</glyph>
<glyph name="dotlessi" format="2">
  <advance width="460"/>
  <unicode hex="0131"/>
  <outline>
    <contour>
      <point x="187.0" y="0.0" type="line" smooth="yes"/>
      <point x="142.0" y="0.0"/>
      <point x="142.0" y="45.0" type="qcurve" smooth="yes"/>
      <point x="142.0" y="1005.0" type="line" smooth="yes"/>
      <point x="142.0" y="1050.0"/>
      <point x="187.0" y="1050.0" type="qcurve" smooth="yes"/>
      <point x="273.0" y="1050.0" type="line" smooth="yes"/>
      <point x="318.0" y="1050.0"/>
      <point x="318.0" y="1005.0" type="qcurve" smooth="yes"/>
      <point x="318.0" y="45.0" type="line" smooth="yes"/>
      <point x="318.0" y="0.0"/>
      <point x="273.0" y="0.0" type="qcurve" smooth="yes"/>
    </contour>
  </outline>
</glyph>
<glyph name="Lslash" format="2">
  <advance width="1241"/>
  <unicode hex="0141"/>
  <outline>
    <contour>
      <point x="115.0" y="448.0" type="line" smooth="yes"/>
      <point x="60.0" y="411.0"/>
      <point x="60.0" y="463.0" type="qcurve" smooth="yes"/>
      <point x="60.0" y="577.0" type="line" smooth="yes"/>
      <point x="60.0" y="616.0"/>
      <point x="95.0" y="640.0" type="qcurve" smooth="yes"/>
      <point x="275.0" y="761.0" type="line"/>
      <point x="275.0" y="1379.0" type="line" smooth="yes"/>
      <point x="275.0" y="1434.0"/>
      <point x="325.0" y="1434.0" type="qcurve" smooth="yes"/>
      <point x="417.0" y="1434.0" type="line" smooth="yes"/>
      <point x="467.0" y="1434.0"/>
      <point x="467.0" y="1379.0" type="qcurve" smooth="yes"/>
      <point x="467.0" y="973.0" type="line" smooth="yes"/>
      <point x="467.0" y="933.0"/>
      <point x="465.0" y="893.0" type="qcurve"/>
      <point x="469.0" y="893.0" type="line"/>
      <point x="737.0" y="1074.0" type="line" smooth="yes"/>
      <point x="792.0" y="1111.0"/>
      <point x="792.0" y="1059.0" type="qcurve" smooth="yes"/>
      <point x="792.0" y="945.0" type="line" smooth="yes"/>
      <point x="792.0" y="906.0"/>
      <point x="757.0" y="882.0" type="qcurve" smooth="yes"/>
      <point x="467.0" y="687.0" type="line"/>
      <point x="467.0" y="164.0" type="line"/>
      <point x="1130.0" y="164.0" type="line" smooth="yes"/>
      <point x="1185.0" y="164.0"/>
      <point x="1185.0" y="119.0" type="qcurve" smooth="yes"/>
      <point x="1185.0" y="45.0" type="line" smooth="yes"/>
      <point x="1185.0" y="0.0"/>
      <point x="1130.0" y="0.0" type="qcurve" smooth="yes"/>
      <point x="325.0" y="0.0" type="line" smooth="yes"/>
      <point x="275.0" y="0.0"/>
      <point x="275.0" y="55.0" type="qcurve" smooth="yes"/>
      <point x="275.0" y="475.0" type="line" smooth="yes"/>
      <point x="275.0" y="515.0"/>
      <point x="277.0" y="555.0" type="qcurve"/>
      <point x="273.0" y="555.0" type="line"/>
    </contour>
  </outline>
</glyph>
<glyph name="lslash" format="2">
  <advance width="660"/>
  <unicode hex="0142"/>
  <outline>
    <contour>
      <point x="85.0" y="514.0" type="line" smooth="yes"/>
      <point x="40.0" y="481.0"/>
      <point x="40.0" y="525.0" type="qcurve" smooth="yes"/>
      <point x="40.0" y="623.0" type="line" smooth="yes"/>
      <point x="40.0" y="660.0"/>
      <point x="73.0" y="684.0" type="qcurve" smooth="yes"/>
      <point x="242.0" y="807.0" type="line"/>
      <point x="242.0" y="1293.0" type="line" smooth="yes"/>
      <point x="242.0" y="1313.0"/>
      <point x="252.0" y="1331.0" type="qcurve" smooth="yes"/>
      <point x="322.0" y="1458.0" type="line" smooth="yes"/>
      <point x="341.0" y="1493.0"/>
      <point x="353.0" y="1493.0" type="qcurve" smooth="yes"/>
      <point x="388.0" y="1493.0" type="line"/>
      <point x="418.0" y="1491.0"/>
      <point x="418.0" y="1458.0" type="qcurve" smooth="yes"/>
      <point x="418.0" y="1002.0" type="line" smooth="yes"/>
      <point x="418.0" y="972.0"/>
      <point x="416.0" y="942.0" type="qcurve"/>
      <point x="418.0" y="942.0" type="line"/>
      <point x="575.0" y="1057.0" type="line" smooth="yes"/>
      <point x="620.0" y="1090.0"/>
      <point x="620.0" y="1045.0" type="qcurve" smooth="yes"/>
      <point x="620.0" y="947.0" type="line" smooth="yes"/>
      <point x="620.0" y="911.0"/>
      <point x="587.0" y="887.0" type="qcurve" smooth="yes"/>
      <point x="418.0" y="764.0" type="line"/>
      <point x="418.0" y="45.0" type="line" smooth="yes"/>
      <point x="418.0" y="0.0"/>
      <point x="373.0" y="0.0" type="qcurve" smooth="yes"/>
      <point x="287.0" y="0.0" type="line" smooth="yes"/>
      <point x="242.0" y="0.0"/>
      <point x="242.0" y="45.0" type="qcurve" smooth="yes"/>
      <point x="242.0" y="569.0" type="line" smooth="yes"/>
      <point x="242.0" y="599.0"/>
      <point x="244.0" y="629.0" type="qcurve"/>
      <point x="242.0" y="629.0" type="line"/>
    </contour>
  </outline>
</glyph>
<glyph name="Eng" format="2">
  <advance width="1422"/>
  <unicode hex="014A"/>
  <outline>
    <contour>
      <point x="220.0" y="0.0" type="line" smooth="yes"/>
      <point x="170.0" y="0.0"/>
      <point x="170.0" y="55.0" type="qcurve" smooth="yes"/>
      <point x="170.0" y="1379.0" type="line" smooth="yes"/>
      <point x="170.0" y="1434.0"/>
      <point x="220.0" y="1434.0" type="qcurve" smooth="yes"/>
      <point x="302.0" y="1434.0" type="line" smooth="yes"/>
      <point x="349.0" y="1434.0"/>
      <point x="352.0" y="1379.0" type="qcurve" smooth="yes"/>
      <point x="360.0" y="1249.0" type="line"/>
      <point x="364.0" y="1249.0" type="line"/>
      <point x="440.0" y="1360.0"/>
      <point x="688.0" y="1464.0"/>
      <point x="813.0" y="1464.0" type="qcurve" smooth="yes"/>
      <point x="1028.0" y="1464.0"/>
      <point x="1252.0" y="1240.0"/>
      <point x="1252.0" y="1032.0" type="qcurve" smooth="yes"/>
      <point x="1252.0" y="-8.0" type="line" smooth="yes"/>
      <point x="1252.0" y="-236.0"/>
      <point x="1080.0" y="-417.0"/>
      <point x="912.0" y="-417.0" type="qcurve" smooth="yes"/>
      <point x="819.0" y="-417.0"/>
      <point x="729.0" y="-382.0" type="qcurve" smooth="yes"/>
      <point x="689.0" y="-366.0"/>
      <point x="701.0" y="-324.0" type="qcurve" smooth="yes"/>
      <point x="722.0" y="-253.0" type="line" smooth="yes"/>
      <point x="736.0" y="-207.0"/>
      <point x="790.0" y="-232.0" type="qcurve" smooth="yes"/>
      <point x="852.0" y="-261.0"/>
      <point x="906.0" y="-261.0" type="qcurve" smooth="yes"/>
      <point x="984.0" y="-261.0"/>
      <point x="1060.0" y="-158.0"/>
      <point x="1060.0" y="39.0" type="qcurve" smooth="yes"/>
      <point x="1060.0" y="944.0" type="line" smooth="yes"/>
      <point x="1060.0" y="1140.0"/>
      <point x="922.0" y="1308.0"/>
      <point x="728.0" y="1308.0" type="qcurve" smooth="yes"/>
      <point x="604.0" y="1308.0"/>
      <point x="362.0" y="1122.0"/>
      <point x="362.0" y="875.0" type="qcurve" smooth="yes"/>
      <point x="362.0" y="55.0" type="line" smooth="yes"/>
      <point x="362.0" y="0.0"/>
      <point x="312.0" y="0.0" type="qcurve" smooth="yes"/>
    </contour>
  </outline>
</glyph>
<glyph name="OE" format="2">
  <advance width="2013"/>
  <unicode hex="0152"/>
  <outline>
    <contour>
      <point x="92.0" y="719.0" type="qcurve" smooth="yes"/>
      <point x="92.0" y="1069.0"/>
      <point x="427.0" y="1464.0"/>
      <point x="720.0" y="1464.0" type="qcurve" smooth="yes"/>
      <point x="805.0" y="1464.0"/>
      <point x="978.0" y="1434.0"/>
      <point x="1063.0" y="1434.0" type="qcurve" smooth="yes"/>
      <point x="1838.0" y="1434.0" type="line" smooth="yes"/>
      <point x="1893.0" y="1434.0"/>
      <point x="1893.0" y="1389.0" type="qcurve" smooth="yes"/>
      <point x="1893.0" y="1315.0" type="line" smooth="yes"/>
      <point x="1893.0" y="1270.0"/>
      <point x="1838.0" y="1270.0" type="qcurve" smooth="yes"/>
      <point x="1145.0" y="1270.0" type="line"/>
      <point x="1145.0" y="826.0" type="line"/>
      <point x="1778.0" y="826.0" type="line" smooth="yes"/>
      <point x="1833.0" y="826.0"/>
      <point x="1833.0" y="781.0" type="qcurve" smooth="yes"/>
      <point x="1833.0" y="707.0" type="line" smooth="yes"/>
      <point x="1833.0" y="662.0"/>
      <point x="1778.0" y="662.0" type="qcurve" smooth="yes"/>
      <point x="1145.0" y="662.0" type="line"/>
      <point x="1145.0" y="164.0" type="line"/>
      <point x="1868.0" y="164.0" type="line" smooth="yes"/>
      <point x="1923.0" y="164.0"/>
      <point x="1923.0" y="119.0" type="qcurve" smooth="yes"/>
      <point x="1923.0" y="45.0" type="line" smooth="yes"/>
      <point x="1923.0" y="0.0"/>
      <point x="1868.0" y="0.0" type="qcurve" smooth="yes"/>
      <point x="1063.0" y="0.0" type="line" smooth="yes"/>
      <point x="978.0" y="0.0"/>
      <point x="805.0" y="-30.0"/>
      <point x="720.0" y="-30.0" type="qcurve" smooth="yes"/>
      <point x="427.0" y="-30.0"/>
      <point x="92.0" y="369.0"/>
    </contour>
    <contour>
      <point x="297.0" y="717.0" type="qcurve" smooth="yes"/>
      <point x="297.0" y="437.0"/>
      <point x="508.0" y="126.0"/>
      <point x="720.0" y="126.0" type="qcurve" smooth="yes"/>
      <point x="840.0" y="126.0"/>
      <point x="953.0" y="164.0" type="qcurve"/>
      <point x="953.0" y="1270.0" type="line"/>
      <point x="840.0" y="1308.0"/>
      <point x="720.0" y="1308.0" type="qcurve" smooth="yes"/>
      <point x="508.0" y="1308.0"/>
      <point x="297.0" y="997.0"/>
    </contour>
  </outline>
</glyph>
<glyph name="longs" format="2">
  <advance width="580"/>
  <unicode hex="017F"/>
  <outline>
    <contour>
      <point x="187.0" y="0.0" type="line" smooth="yes"/>
      <point x="142.0" y="0.0"/>
      <point x="142.0" y="45.0" type="qcurve" smooth="yes"/>
      <point x="142.0" y="1199.0" type="line" smooth="yes"/>
      <point x="142.0" y="1366.0"/>
      <point x="329.0" y="1493.0"/>
      <point x="452.0" y="1493.0" type="qcurve" smooth="yes"/>
      <point x="512.0" y="1493.0"/>
      <point x="585.0" y="1476.0"/>
      <point x="633.0" y="1452.0" type="qcurve" smooth="yes"/>
      <point x="655.0" y="1441.0"/>
      <point x="646.0" y="1420.0" type="qcurve" smooth="yes"/>
      <point x="613.0" y="1346.0" type="line" smooth="yes"/>
      <point x="600.0" y="1317.0"/>
      <point x="578.0" y="1332.0" type="qcurve" smooth="yes"/>
      <point x="560.0" y="1345.0"/>
      <point x="509.0" y="1363.0"/>
      <point x="469.0" y="1363.0" type="qcurve" smooth="yes"/>
      <point x="407.0" y="1363.0"/>
      <point x="318.0" y="1283.0"/>
      <point x="318.0" y="1170.0" type="qcurve" smooth="yes"/>
      <point x="318.0" y="45.0" type="line" smooth="yes"/>
      <point x="318.0" y="0.0"/>
      <point x="273.0" y="0.0" type="qcurve" smooth="yes"/>
    </contour>
  </outline>
</glyph>
<glyph name="uni0180" format="2">
  <advance width="1189"/>
  <unicode hex="0180"/>
  <outline>
    <contour>
      <point x="75.0" y="1208.0" type="line" smooth="yes"/>
      <point x="30.0" y="1208.0"/>
      <point x="30.0" y="1243.0" type="qcurve" smooth="yes"/>
      <point x="30.0" y="1305.0" type="line" smooth="yes"/>
      <point x="30.0" y="1340.0"/>
      <point x="75.0" y="1340.0" type="qcurve" smooth="yes"/>
      <point x="212.0" y="1340.0" type="line"/>
      <point x="212.0" y="1431.0" type="line" smooth="yes"/>
      <point x="212.0" y="1476.0"/>
      <point x="257.0" y="1476.0" type="qcurve" smooth="yes"/>
      <point x="343.0" y="1476.0" type="line" smooth="yes"/>
      <point x="388.0" y="1476.0"/>
      <point x="388.0" y="1431.0" type="qcurve" smooth="yes"/>
      <point x="388.0" y="1340.0" type="line"/>
      <point x="751.0" y="1340.0" type="line" smooth="yes"/>
      <point x="796.0" y="1340.0"/>
      <point x="796.0" y="1305.0" type="qcurve" smooth="yes"/>
      <point x="796.0" y="1243.0" type="line" smooth="yes"/>
      <point x="796.0" y="1208.0"/>
      <point x="751.0" y="1208.0" type="qcurve" smooth="yes"/>
      <point x="388.0" y="1208.0" type="line"/>
      <point x="388.0" y="986.0" type="line" smooth="yes"/>
      <point x="388.0" y="955.0"/>
      <point x="386.0" y="925.0" type="qcurve"/>
      <point x="388.0" y="925.0" type="line"/>
      <point x="443.0" y="991.0"/>
      <point x="581.0" y="1067.0"/>
      <point x="696.0" y="1067.0" type="qcurve" smooth="yes"/>
      <point x="896.0" y="1067.0"/>
      <point x="1104.0" y="740.0"/>
      <point x="1104.0" y="525.0" type="qcurve" smooth="yes"/>
      <point x="1104.0" y="310.0"/>
      <point x="896.0" y="-17.0"/>
      <point x="696.0" y="-17.0" type="qcurve" smooth="yes"/>
      <point x="581.0" y="-17.0"/>
      <point x="443.0" y="59.0"/>
      <point x="388.0" y="125.0" type="qcurve"/>
      <point x="386.0" y="125.0" type="line"/>
      <point x="380.0" y="45.0" type="line" smooth="yes"/>
      <point x="377.0" y="0.0"/>
      <point x="341.0" y="0.0" type="qcurve" smooth="yes"/>
      <point x="257.0" y="0.0" type="line" smooth="yes"/>
      <point x="212.0" y="0.0"/>
      <point x="212.0" y="45.0" type="qcurve" smooth="yes"/>
      <point x="212.0" y="1208.0" type="line"/>
    </contour>
    <contour>
      <point x="388.0" y="410.0" type="line" smooth="yes"/>
      <point x="388.0" y="260.0"/>
      <point x="531.0" y="113.0"/>
      <point x="639.0" y="113.0" type="qcurve" smooth="yes"/>
      <point x="791.0" y="113.0"/>
      <point x="918.0" y="341.0"/>
      <point x="918.0" y="525.0" type="qcurve" smooth="yes"/>
      <point x="918.0" y="709.0"/>
      <point x="791.0" y="937.0"/>
      <point x="639.0" y="937.0" type="qcurve" smooth="yes"/>
      <point x="531.0" y="937.0"/>
      <point x="388.0" y="790.0"/>
      <point x="388.0" y="640.0" type="qcurve" smooth="yes"/>
    </contour>
  </outline>
</glyph>
<glyph name="uni0190" format="2">
  <advance width="1194"/>
  <unicode hex="0190"/>
  <outline>
    <contour>
      <point x="110.0" y="397.0" type="qcurve" smooth="yes"/>
      <point x="110.0" y="547.0"/>
      <point x="306.0" y="751.0"/>
      <point x="422.0" y="763.0" type="qcurve"/>
      <point x="422.0" y="767.0" type="line"/>
      <point x="312.0" y="799.0"/>
      <point x="163.0" y="979.0"/>
      <point x="163.0" y="1092.0" type="qcurve" smooth="yes"/>
      <point x="163.0" y="1232.0"/>
      <point x="396.0" y="1464.0"/>
      <point x="619.0" y="1464.0" type="qcurve" smooth="yes"/>
      <point x="725.0" y="1464.0"/>
      <point x="948.0" y="1392.0"/>
      <point x="1026.0" y="1329.0" type="qcurve" smooth="yes"/>
      <point x="1083.0" y="1283.0"/>
      <point x="1049.0" y="1246.0" type="qcurve" smooth="yes"/>
      <point x="987.0" y="1177.0" type="line" smooth="yes"/>
      <point x="960.0" y="1147.0"/>
      <point x="915.0" y="1192.0" type="qcurve" smooth="yes"/>
      <point x="867.0" y="1239.0"/>
      <point x="710.0" y="1308.0"/>
      <point x="623.0" y="1308.0" type="qcurve" smooth="yes"/>
      <point x="516.0" y="1308.0"/>
      <point x="358.0" y="1200.0"/>
      <point x="358.0" y="1081.0" type="qcurve" smooth="yes"/>
      <point x="358.0" y="979.0"/>
      <point x="492.0" y="833.0"/>
      <point x="632.0" y="833.0" type="qcurve" smooth="yes"/>
      <point x="738.0" y="833.0" type="line" smooth="yes"/>
      <point x="785.0" y="833.0"/>
      <point x="785.0" y="788.0" type="qcurve" smooth="yes"/>
      <point x="785.0" y="718.0" type="line" smooth="yes"/>
      <point x="785.0" y="675.0"/>
      <point x="738.0" y="675.0" type="qcurve" smooth="yes"/>
      <point x="625.0" y="675.0" type="line" smooth="yes"/>
      <point x="519.0" y="675.0"/>
      <point x="315.0" y="543.0"/>
      <point x="315.0" y="414.0" type="qcurve" smooth="yes"/>
      <point x="315.0" y="263.0"/>
      <point x="482.0" y="126.0"/>
      <point x="626.0" y="126.0" type="qcurve" smooth="yes"/>
      <point x="720.0" y="126.0"/>
      <point x="892.0" y="220.0"/>
      <point x="938.0" y="267.0" type="qcurve" smooth="yes"/>
      <point x="988.0" y="319.0"/>
      <point x="1019.0" y="285.0" type="qcurve" smooth="yes"/>
      <point x="1082.0" y="216.0" type="line" smooth="yes"/>
      <point x="1111.0" y="185.0"/>
      <point x="1066.0" y="141.0" type="qcurve" smooth="yes"/>
      <point x="1004.0" y="80.0"/>
      <point x="789.0" y="-30.0"/>
      <point x="632.0" y="-30.0" type="qcurve" smooth="yes"/>
      <point x="402.0" y="-30.0"/>
      <point x="110.0" y="189.0"/>
    </contour>
  </outline>
</glyph>
<glyph name="florin" format="2">
  <advance width="652"/>
  <unicode hex="0192"/>
  <outline>
    <contour>
      <point x="-35.0" y="-397.0" type="qcurve" smooth="yes"/>
      <point x="-57.0" y="-387.0"/>
      <point x="-53.0" y="-365.0" type="qcurve" smooth="yes"/>
      <point x="-36.0" y="-284.0" type="line" smooth="yes"/>
      <point x="-31.0" y="-260.0"/>
      <point x="-11.0" y="-269.0" type="qcurve" smooth="yes"/>
      <point x="28.0" y="-287.0"/>
      <point x="85.0" y="-287.0" type="qcurve" smooth="yes"/>
      <point x="144.0" y="-287.0"/>
      <point x="197.0" y="-171.0"/>
      <point x="197.0" y="6.0" type="qcurve" smooth="yes"/>
      <point x="197.0" y="918.0" type="line"/>
      <point x="90.0" y="918.0" type="line" smooth="yes"/>
      <point x="45.0" y="918.0"/>
      <point x="45.0" y="953.0" type="qcurve" smooth="yes"/>
      <point x="45.0" y="1015.0" type="line" smooth="yes"/>
      <point x="45.0" y="1050.0"/>
      <point x="90.0" y="1050.0" type="qcurve" smooth="yes"/>
      <point x="197.0" y="1050.0" type="line"/>
      <point x="197.0" y="1199.0" type="line" smooth="yes"/>
      <point x="197.0" y="1366.0"/>
      <point x="377.0" y="1493.0"/>
      <point x="493.0" y="1493.0" type="qcurve" smooth="yes"/>
      <point x="562.0" y="1493.0"/>
      <point x="647.0" y="1479.0"/>
      <point x="705.0" y="1455.0" type="qcurve" smooth="yes"/>
      <point x="727.0" y="1446.0"/>
      <point x="718.0" y="1423.0" type="qcurve" smooth="yes"/>
      <point x="687.0" y="1344.0" type="line" smooth="yes"/>
      <point x="679.0" y="1324.0"/>
      <point x="652.0" y="1336.0" type="qcurve" smooth="yes"/>
      <point x="630.0" y="1346.0"/>
      <point x="566.0" y="1363.0"/>
      <point x="529.0" y="1363.0" type="qcurve" smooth="yes"/>
      <point x="446.0" y="1363.0"/>
      <point x="373.0" y="1283.0"/>
      <point x="373.0" y="1170.0" type="qcurve" smooth="yes"/>
      <point x="373.0" y="1050.0" type="line"/>
      <point x="556.0" y="1050.0" type="line" smooth="yes"/>
      <point x="601.0" y="1050.0"/>
      <point x="601.0" y="1015.0" type="qcurve" smooth="yes"/>
      <point x="601.0" y="953.0" type="line" smooth="yes"/>
      <point x="601.0" y="918.0"/>
      <point x="556.0" y="918.0" type="qcurve" smooth="yes"/>
      <point x="373.0" y="918.0" type="line"/>
      <point x="373.0" y="-93.0" type="line" smooth="yes"/>
      <point x="373.0" y="-287.0"/>
      <point x="226.0" y="-417.0"/>
      <point x="117.0" y="-417.0" type="qcurve" smooth="yes"/>
      <point x="11.0" y="-417.0"/>
    </contour>
  </outline>
</glyph>
<glyph name="uni0195" format="2">
  <advance width="1694"/>
  <unicode hex="0195"/>
  <outline>
    <contour>
      <point x="187.0" y="0.0" type="line" smooth="yes"/>
      <point x="142.0" y="0.0"/>
      <point x="142.0" y="45.0" type="qcurve" smooth="yes"/>
      <point x="142.0" y="1431.0" type="line" smooth="yes"/>
      <point x="142.0" y="1476.0"/>
      <point x="187.0" y="1476.0" type="qcurve" smooth="yes"/>
      <point x="273.0" y="1476.0" type="line" smooth="yes"/>
      <point x="318.0" y="1476.0"/>
      <point x="318.0" y="1431.0" type="qcurve" smooth="yes"/>
      <point x="318.0" y="985.0" type="line" smooth="yes"/>
      <point x="318.0" y="955.0"/>
      <point x="316.0" y="925.0" type="qcurve"/>
      <point x="320.0" y="925.0" type="line"/>
      <point x="385.0" y="997.0"/>
      <point x="535.0" y="1067.0"/>
      <point x="647.0" y="1067.0" type="qcurve" smooth="yes"/>
      <point x="829.0" y="1067.0"/>
      <point x="988.0" y="862.0"/>
      <point x="988.0" y="684.0" type="qcurve" smooth="yes"/>
      <point x="988.0" y="368.0" type="line" smooth="yes"/>
      <point x="988.0" y="208.0"/>
      <point x="1096.0" y="113.0"/>
      <point x="1183.0" y="113.0" type="qcurve" smooth="yes"/>
      <point x="1292.0" y="113.0"/>
      <point x="1423.0" y="306.0"/>
      <point x="1423.0" y="527.0" type="qcurve" smooth="yes"/>
      <point x="1423.0" y="688.0"/>
      <point x="1329.0" y="911.0"/>
      <point x="1296.0" y="977.0" type="qcurve" smooth="yes"/>
      <point x="1275.0" y="1020.0"/>
      <point x="1305.0" y="1030.0" type="qcurve" smooth="yes"/>
      <point x="1403.0" y="1064.0" type="line" smooth="yes"/>
      <point x="1436.0" y="1075.0"/>
      <point x="1460.0" y="1036.0" type="qcurve" smooth="yes"/>
      <point x="1511.0" y="953.0"/>
      <point x="1609.0" y="698.0"/>
      <point x="1609.0" y="569.0" type="qcurve" smooth="yes"/>
      <point x="1609.0" y="270.0"/>
      <point x="1391.0" y="-17.0"/>
      <point x="1161.0" y="-17.0" type="qcurve" smooth="yes"/>
      <point x="1011.0" y="-17.0"/>
      <point x="812.0" y="160.0"/>
      <point x="812.0" y="389.0" type="qcurve" smooth="yes"/>
      <point x="812.0" y="636.0" type="line" smooth="yes"/>
      <point x="812.0" y="832.0"/>
      <point x="682.0" y="937.0"/>
      <point x="582.0" y="937.0" type="qcurve" smooth="yes"/>
      <point x="452.0" y="937.0"/>
      <point x="318.0" y="782.0"/>
      <point x="318.0" y="594.0" type="qcurve" smooth="yes"/>
      <point x="318.0" y="45.0" type="line" smooth="yes"/>
      <point x="318.0" y="0.0"/>
      <point x="273.0" y="0.0" type="qcurve" smooth="yes"/>
    </contour>
  </outline>
</glyph>
<glyph name="uni0196" format="2">
  <advance width="815"/>
  <unicode hex="0196"/>
  <outline>
    <contour>
      <point x="170.0" y="358.0" type="qcurve" smooth="yes"/>
      <point x="170.0" y="1379.0" type="line" smooth="yes"/>
      <point x="170.0" y="1434.0"/>
      <point x="220.0" y="1434.0" type="qcurve" smooth="yes"/>
      <point x="312.0" y="1434.0" type="line" smooth="yes"/>
      <point x="362.0" y="1434.0"/>
      <point x="362.0" y="1379.0" type="qcurve" smooth="yes"/>
      <point x="362.0" y="342.0" type="line" smooth="yes"/>
      <point x="362.0" y="226.0"/>
      <point x="435.0" y="126.0"/>
      <point x="507.0" y="126.0" type="qcurve" smooth="yes"/>
      <point x="543.0" y="126.0"/>
      <point x="622.0" y="154.0"/>
      <point x="656.0" y="175.0" type="qcurve" smooth="yes"/>
      <point x="706.0" y="206.0"/>
      <point x="729.0" y="161.0" type="qcurve" smooth="yes"/>
      <point x="758.0" y="104.0" type="line" smooth="yes"/>
      <point x="778.0" y="65.0"/>
      <point x="742.0" y="38.0" type="qcurve" smooth="yes"/>
      <point x="700.0" y="7.0"/>
      <point x="556.0" y="-30.0"/>
      <point x="507.0" y="-30.0" type="qcurve" smooth="yes"/>
      <point x="330.0" y="-30.0"/>
      <point x="170.0" y="151.0"/>
    </contour>
  </outline>
</glyph>
<glyph name="uni0197" format="2">
  <advance width="702"/>
  <unicode hex="0197"/>
  <outline>
    <contour>
      <point x="305.0" y="0.0" type="line" smooth="yes"/>
      <point x="255.0" y="0.0"/>
      <point x="255.0" y="55.0" type="qcurve" smooth="yes"/>
      <point x="255.0" y="644.0" type="line"/>
      <point x="105.0" y="644.0" type="line" smooth="yes"/>
      <point x="50.0" y="644.0"/>
      <point x="50.0" y="689.0" type="qcurve" smooth="yes"/>
      <point x="50.0" y="763.0" type="line" smooth="yes"/>
      <point x="50.0" y="808.0"/>
      <point x="105.0" y="808.0" type="qcurve" smooth="yes"/>
      <point x="255.0" y="808.0" type="line"/>
      <point x="255.0" y="1379.0" type="line" smooth="yes"/>
      <point x="255.0" y="1434.0"/>
      <point x="305.0" y="1434.0" type="qcurve" smooth="yes"/>
      <point x="397.0" y="1434.0" type="line" smooth="yes"/>
      <point x="447.0" y="1434.0"/>
      <point x="447.0" y="1379.0" type="qcurve" smooth="yes"/>
      <point x="447.0" y="808.0" type="line"/>
      <point x="597.0" y="808.0" type="line" smooth="yes"/>
      <point x="652.0" y="808.0"/>
      <point x="652.0" y="763.0" type="qcurve" smooth="yes"/>
      <point x="652.0" y="689.0" type="line" smooth="yes"/>
      <point x="652.0" y="644.0"/>
      <point x="597.0" y="644.0" type="qcurve" smooth="yes"/>
      <point x="447.0" y="644.0" type="line"/>
      <point x="447.0" y="55.0" type="line" smooth="yes"/>
      <point x="447.0" y="0.0"/>
      <point x="397.0" y="0.0" type="qcurve" smooth="yes"/>
    </contour>
  </outline>
</glyph>
<glyph name="uni01B2" format="2">
  <advance width="1341"/>
  <unicode hex="01B2"/>
  <outline>
    <contour>
      <point x="170.0" y="547.0" type="qcurve" smooth="yes"/>
      <point x="170.0" y="1379.0" type="line" smooth="yes"/>
      <point x="170.0" y="1434.0"/>
      <point x="220.0" y="1434.0" type="qcurve" smooth="yes"/>
      <point x="312.0" y="1434.0" type="line" smooth="yes"/>
      <point x="362.0" y="1434.0"/>
      <point x="362.0" y="1379.0" type="qcurve" smooth="yes"/>
      <point x="362.0" y="577.0" type="line" smooth="yes"/>
      <point x="362.0" y="297.0"/>
      <point x="537.0" y="126.0"/>
      <point x="693.0" y="126.0" type="qcurve" smooth="yes"/>
      <point x="864.0" y="126.0"/>
      <point x="1044.0" y="411.0"/>
      <point x="1044.0" y="707.0" type="qcurve" smooth="yes"/>
      <point x="1044.0" y="927.0"/>
      <point x="905.0" y="1215.0"/>
      <point x="823.0" y="1295.0" type="qcurve" smooth="yes"/>
      <point x="776.0" y="1341.0"/>
      <point x="818.0" y="1377.0" type="qcurve" smooth="yes"/>
      <point x="898.0" y="1446.0" type="line" smooth="yes"/>
      <point x="937.0" y="1480.0"/>
      <point x="981.0" y="1431.0" type="qcurve" smooth="yes"/>
      <point x="1112.0" y="1287.0"/>
      <point x="1249.0" y="927.0"/>
      <point x="1249.0" y="749.0" type="qcurve" smooth="yes"/>
      <point x="1249.0" y="384.0"/>
      <point x="996.0" y="-30.0"/>
      <point x="686.0" y="-30.0" type="qcurve" smooth="yes"/>
      <point x="450.0" y="-30.0"/>
      <point x="170.0" y="230.0"/>
    </contour>
  </outline>
</glyph>
<glyph name="uni0237" format="2">
  <advance width="466"/>
  <unicode hex="0237"/>
  <outline>
    <contour>
      <point x="-84.0" y="-397.0" type="qcurve" smooth="yes"/>
      <point x="-106.0" y="-387.0"/>
      <point x="-102.0" y="-365.0" type="qcurve" smooth="yes"/>
      <point x="-85.0" y="-284.0" type="line" smooth="yes"/>
      <point x="-80.0" y="-260.0"/>
      <point x="-60.0" y="-269.0" type="qcurve" smooth="yes"/>
      <point x="-21.0" y="-287.0"/>
      <point x="36.0" y="-287.0" type="qcurve" smooth="yes"/>
      <point x="95.0" y="-287.0"/>
      <point x="148.0" y="-171.0"/>
      <point x="148.0" y="6.0" type="qcurve" smooth="yes"/>
      <point x="148.0" y="1005.0" type="line" smooth="yes"/>
      <point x="148.0" y="1050.0"/>
      <point x="193.0" y="1050.0" type="qcurve" smooth="yes"/>
      <point x="279.0" y="1050.0" type="line" smooth="yes"/>
      <point x="324.0" y="1050.0"/>
      <point x="324.0" y="1005.0" type="qcurve" smooth="yes"/>
      <point x="324.0" y="-93.0" type="line" smooth="yes"/>
      <point x="324.0" y="-287.0"/>
      <point x="177.0" y="-417.0"/>
      <point x="68.0" y="-417.0" type="qcurve" smooth="yes"/>
      <point x="-38.0" y="-417.0"/>
    </contour>
  </outline>
</glyph>
<glyph name="uni0238" format="2">
  <advance width="1778"/>
  <unicode hex="0238"/>
  <outline>
    <contour>
      <point x="85.0" y="525.0" type="qcurve" smooth="yes"/>
      <point x="85.0" y="740.0"/>
      <point x="293.0" y="1067.0"/>
      <point x="493.0" y="1067.0" type="qcurve" smooth="yes"/>
      <point x="608.0" y="1067.0"/>
      <point x="746.0" y="991.0"/>
      <point x="801.0" y="925.0" type="qcurve"/>
      <point x="803.0" y="925.0" type="line"/>
      <point x="801.0" y="955.0"/>
      <point x="801.0" y="986.0" type="qcurve" smooth="yes"/>
      <point x="801.0" y="1431.0" type="line" smooth="yes"/>
      <point x="801.0" y="1476.0"/>
      <point x="846.0" y="1476.0" type="qcurve" smooth="yes"/>
      <point x="932.0" y="1476.0" type="line" smooth="yes"/>
      <point x="977.0" y="1476.0"/>
      <point x="977.0" y="1431.0" type="qcurve" smooth="yes"/>
      <point x="977.0" y="986.0" type="line" smooth="yes"/>
      <point x="977.0" y="955.0"/>
      <point x="975.0" y="925.0" type="qcurve"/>
      <point x="977.0" y="925.0" type="line"/>
      <point x="1032.0" y="991.0"/>
      <point x="1170.0" y="1067.0"/>
      <point x="1285.0" y="1067.0" type="qcurve" smooth="yes"/>
      <point x="1485.0" y="1067.0"/>
      <point x="1693.0" y="740.0"/>
      <point x="1693.0" y="525.0" type="qcurve" smooth="yes"/>
      <point x="1693.0" y="310.0"/>
      <point x="1485.0" y="-17.0"/>
      <point x="1285.0" y="-17.0" type="qcurve" smooth="yes"/>
      <point x="1170.0" y="-17.0"/>
      <point x="1032.0" y="59.0"/>
      <point x="977.0" y="125.0" type="qcurve"/>
      <point x="975.0" y="125.0" type="line"/>
      <point x="969.0" y="45.0" type="line" smooth="yes"/>
      <point x="966.0" y="0.0"/>
      <point x="930.0" y="0.0" type="qcurve" smooth="yes"/>
      <point x="848.0" y="0.0" type="line" smooth="yes"/>
      <point x="812.0" y="0.0"/>
      <point x="809.0" y="45.0" type="qcurve" smooth="yes"/>
      <point x="803.0" y="125.0" type="line"/>
      <point x="801.0" y="125.0" type="line"/>
      <point x="746.0" y="59.0"/>
      <point x="608.0" y="-17.0"/>
      <point x="493.0" y="-17.0" type="qcurve" smooth="yes"/>
      <point x="293.0" y="-17.0"/>
      <point x="85.0" y="310.0"/>
    </contour>
    <contour>
      <point x="271.0" y="525.0" type="qcurve" smooth="yes"/>
      <point x="271.0" y="341.0"/>
      <point x="398.0" y="113.0"/>
      <point x="550.0" y="113.0" type="qcurve" smooth="yes"/>
      <point x="658.0" y="113.0"/>
      <point x="801.0" y="260.0"/>
      <point x="801.0" y="410.0" type="qcurve" smooth="yes"/>
      <point x="801.0" y="640.0" type="line" smooth="yes"/>
      <point x="801.0" y="790.0"/>
      <point x="658.0" y="937.0"/>
      <point x="550.0" y="937.0" type="qcurve" smooth="yes"/>
      <point x="398.0" y="937.0"/>
      <point x="271.0" y="709.0"/>
    </contour>
    <contour>
      <point x="977.0" y="410.0" type="line" smooth="yes"/>
      <point x="977.0" y="260.0"/>
      <point x="1120.0" y="113.0"/>
      <point x="1228.0" y="113.0" type="qcurve" smooth="yes"/>
      <point x="1380.0" y="113.0"/>
      <point x="1507.0" y="341.0"/>
      <point x="1507.0" y="525.0" type="qcurve" smooth="yes"/>
      <point x="1507.0" y="709.0"/>
      <point x="1380.0" y="937.0"/>
      <point x="1228.0" y="937.0" type="qcurve" smooth="yes"/>
      <point x="1120.0" y="937.0"/>
      <point x="977.0" y="790.0"/>
      <point x="977.0" y="640.0" type="qcurve" smooth="yes"/>
    </contour>
  </outline>
</glyph>
<glyph name="uni0243" format="2">
  <advance width="1398"/>
  <unicode hex="0243"/>
  <outline>
    <contour>
      <point x="95.0" y="345.0" type="line" smooth="yes"/>
      <point x="40.0" y="345.0"/>
      <point x="40.0" y="390.0" type="qcurve" smooth="yes"/>
      <point x="40.0" y="458.0" type="line" smooth="yes"/>
      <point x="40.0" y="503.0"/>
      <point x="95.0" y="503.0" type="qcurve" smooth="yes"/>
      <point x="210.0" y="503.0" type="line"/>
      <point x="210.0" y="1379.0" type="line" smooth="yes"/>
      <point x="210.0" y="1434.0"/>
      <point x="260.0" y="1434.0" type="qcurve" smooth="yes"/>
      <point x="650.0" y="1434.0" type="line" smooth="yes"/>
      <point x="990.0" y="1434.0"/>
      <point x="1226.0" y="1214.0"/>
      <point x="1226.0" y="1059.0" type="qcurve" smooth="yes"/>
      <point x="1226.0" y="936.0"/>
      <point x="1030.0" y="765.0"/>
      <point x="938.0" y="750.0" type="qcurve"/>
      <point x="938.0" y="747.0" type="line"/>
      <point x="1039.0" y="738.0"/>
      <point x="1288.0" y="555.0"/>
      <point x="1288.0" y="398.0" type="qcurve" smooth="yes"/>
      <point x="1288.0" y="228.0"/>
      <point x="1037.0" y="0.0"/>
      <point x="700.0" y="0.0" type="qcurve" smooth="yes"/>
      <point x="260.0" y="0.0" type="line" smooth="yes"/>
      <point x="210.0" y="0.0"/>
      <point x="210.0" y="55.0" type="qcurve" smooth="yes"/>
      <point x="210.0" y="345.0" type="line"/>
    </contour>
    <contour>
      <point x="402.0" y="164.0" type="line"/>
      <point x="668.0" y="164.0" type="line" smooth="yes"/>
      <point x="883.0" y="164.0"/>
      <point x="1083.0" y="270.0"/>
      <point x="1083.0" y="404.0" type="qcurve" smooth="yes"/>
      <point x="1083.0" y="528.0"/>
      <point x="880.0" y="664.0"/>
      <point x="668.0" y="664.0" type="qcurve" smooth="yes"/>
      <point x="402.0" y="664.0" type="line"/>
      <point x="402.0" y="503.0" type="line"/>
      <point x="690.0" y="503.0" type="line" smooth="yes"/>
      <point x="745.0" y="503.0"/>
      <point x="745.0" y="458.0" type="qcurve" smooth="yes"/>
      <point x="745.0" y="390.0" type="line" smooth="yes"/>
      <point x="745.0" y="345.0"/>
      <point x="690.0" y="345.0" type="qcurve" smooth="yes"/>
      <point x="402.0" y="345.0" type="line"/>
    </contour>
    <contour>
      <point x="402.0" y="808.0" type="line"/>
      <point x="653.0" y="808.0" type="line" smooth="yes"/>
      <point x="820.0" y="808.0"/>
      <point x="1031.0" y="951.0"/>
      <point x="1031.0" y="1059.0" type="qcurve" smooth="yes"/>
      <point x="1031.0" y="1162.0"/>
      <point x="873.0" y="1270.0"/>
      <point x="653.0" y="1270.0" type="qcurve" smooth="yes"/>
      <point x="402.0" y="1270.0" type="line"/>
    </contour>
  </outline>
</glyph>
<glyph name="uni0244" format="2">
  <advance width="1572"/>
  <unicode hex="0244"/>
  <outline>
    <contour>
      <point x="105.0" y="644.0" type="line" smooth="yes"/>
      <point x="50.0" y="644.0"/>
      <point x="50.0" y="689.0" type="qcurve" smooth="yes"/>
      <point x="50.0" y="763.0" type="line" smooth="yes"/>
      <point x="50.0" y="808.0"/>
      <point x="105.0" y="808.0" type="qcurve" smooth="yes"/>
      <point x="255.0" y="808.0" type="line"/>
      <point x="255.0" y="1379.0" type="line" smooth="yes"/>
      <point x="255.0" y="1434.0"/>
      <point x="305.0" y="1434.0" type="qcurve" smooth="yes"/>
      <point x="397.0" y="1434.0" type="line" smooth="yes"/>
      <point x="447.0" y="1434.0"/>
      <point x="447.0" y="1379.0" type="qcurve" smooth="yes"/>
      <point x="447.0" y="808.0" type="line"/>
      <point x="1125.0" y="808.0" type="line"/>
      <point x="1125.0" y="1379.0" type="line" smooth="yes"/>
      <point x="1125.0" y="1434.0"/>
      <point x="1175.0" y="1434.0" type="qcurve" smooth="yes"/>
      <point x="1267.0" y="1434.0" type="line" smooth="yes"/>
      <point x="1317.0" y="1434.0"/>
      <point x="1317.0" y="1379.0" type="qcurve" smooth="yes"/>
      <point x="1317.0" y="808.0" type="line"/>
      <point x="1467.0" y="808.0" type="line" smooth="yes"/>
      <point x="1522.0" y="808.0"/>
      <point x="1522.0" y="763.0" type="qcurve" smooth="yes"/>
      <point x="1522.0" y="689.0" type="line" smooth="yes"/>
      <point x="1522.0" y="644.0"/>
      <point x="1467.0" y="644.0" type="qcurve" smooth="yes"/>
      <point x="1317.0" y="644.0" type="line"/>
      <point x="1317.0" y="547.0" type="line" smooth="yes"/>
      <point x="1317.0" y="230.0"/>
      <point x="1026.0" y="-30.0"/>
      <point x="786.0" y="-30.0" type="qcurve" smooth="yes"/>
      <point x="546.0" y="-30.0"/>
      <point x="255.0" y="230.0"/>
      <point x="255.0" y="547.0" type="qcurve" smooth="yes"/>
      <point x="255.0" y="644.0" type="line"/>
    </contour>
    <contour>
      <point x="447.0" y="577.0" type="line" smooth="yes"/>
      <point x="447.0" y="297.0"/>
      <point x="606.0" y="126.0"/>
      <point x="786.0" y="126.0" type="qcurve" smooth="yes"/>
      <point x="966.0" y="126.0"/>
      <point x="1125.0" y="297.0"/>
      <point x="1125.0" y="577.0" type="qcurve" smooth="yes"/>
      <point x="1125.0" y="644.0" type="line"/>
      <point x="447.0" y="644.0" type="line"/>
    </contour>
  </outline>
</glyph>
<glyph name="uni0255" format="2">
  <advance width="1026"/>
  <unicode hex="0255"/>
  <outline>
    <contour>
      <point x="86.0" y="525.0" type="qcurve" smooth="yes"/>
      <point x="86.0" y="760.0"/>
      <point x="318.0" y="1067.0"/>
      <point x="558.0" y="1067.0" type="qcurve" smooth="yes"/>
      <point x="720.0" y="1067.0"/>
      <point x="891.0" y="953.0"/>
      <point x="929.0" y="892.0" type="qcurve" smooth="yes"/>
      <point x="950.0" y="859.0"/>
      <point x="920.0" y="839.0" type="qcurve" smooth="yes"/>
      <point x="857.0" y="798.0" type="line" smooth="yes"/>
      <point x="827.0" y="777.0"/>
      <point x="797.0" y="825.0" type="qcurve" smooth="yes"/>
      <point x="768.0" y="871.0"/>
      <point x="663.0" y="937.0"/>
      <point x="558.0" y="937.0" type="qcurve" smooth="yes"/>
      <point x="421.0" y="937.0"/>
      <point x="271.0" y="735.0"/>
      <point x="271.0" y="525.0" type="qcurve" smooth="yes"/>
      <point x="271.0" y="356.0"/>
      <point x="344.0" y="206.0"/>
      <point x="380.0" y="177.0" type="qcurve"/>
      <point x="409.0" y="268.0"/>
      <point x="572.0" y="434.0"/>
      <point x="702.0" y="434.0" type="qcurve" smooth="yes"/>
      <point x="805.0" y="434.0"/>
      <point x="950.0" y="332.0"/>
      <point x="950.0" y="233.0" type="qcurve" smooth="yes"/>
      <point x="950.0" y="140.0"/>
      <point x="756.0" y="-17.0"/>
      <point x="558.0" y="-17.0" type="qcurve" smooth="yes"/>
      <point x="512.0" y="-17.0"/>
      <point x="461.0" y="-10.0" type="qcurve"/>
      <point x="419.0" y="-143.0"/>
      <point x="404.0" y="-226.0" type="qcurve" smooth="yes"/>
      <point x="397.0" y="-267.0"/>
      <point x="356.0" y="-257.0" type="qcurve" smooth="yes"/>
      <point x="280.0" y="-238.0" type="line" smooth="yes"/>
      <point x="251.0" y="-231.0"/>
      <point x="259.0" y="-183.0" type="qcurve" smooth="yes"/>
      <point x="280.0" y="-68.0"/>
      <point x="322.0" y="34.0" type="qcurve"/>
      <point x="244.0" y="64.0"/>
      <point x="86.0" y="310.0"/>
    </contour>
    <contour>
      <point x="504.0" y="117.0" type="qcurve"/>
      <point x="530.0" y="113.0"/>
      <point x="558.0" y="113.0" type="qcurve" smooth="yes"/>
      <point x="686.0" y="113.0"/>
      <point x="796.0" y="202.0"/>
      <point x="796.0" y="236.0" type="qcurve" smooth="yes"/>
      <point x="796.0" y="274.0"/>
      <point x="744.0" y="304.0"/>
      <point x="700.0" y="304.0" type="qcurve" smooth="yes"/>
      <point x="646.0" y="304.0"/>
      <point x="536.0" y="208.0"/>
    </contour>
  </outline>
</glyph>
<glyph name="uni0257" format="2">
  <advance width="1231"/>
  <unicode hex="0257"/>
  <outline>
    <contour>
      <point x="85.0" y="525.0" type="qcurve" smooth="yes"/>
      <point x="85.0" y="740.0"/>
      <point x="293.0" y="1067.0"/>
      <point x="493.0" y="1067.0" type="qcurve" smooth="yes"/>
      <point x="608.0" y="1067.0"/>
      <point x="746.0" y="991.0"/>
      <point x="801.0" y="925.0" type="qcurve"/>
      <point x="803.0" y="925.0" type="line"/>
      <point x="801.0" y="957.0"/>
      <point x="801.0" y="986.0" type="qcurve" smooth="yes"/>
      <point x="801.0" y="1199.0" type="line" smooth="yes"/>
      <point x="801.0" y="1366.0"/>
      <point x="988.0" y="1493.0"/>
      <point x="1106.0" y="1493.0" type="qcurve" smooth="yes"/>
      <point x="1161.0" y="1493.0"/>
      <point x="1236.0" y="1476.0"/>
      <point x="1284.0" y="1452.0" type="qcurve" smooth="yes"/>
      <point x="1307.0" y="1441.0"/>
      <point x="1297.0" y="1420.0" type="qcurve" smooth="yes"/>
      <point x="1262.0" y="1346.0" type="line" smooth="yes"/>
      <point x="1248.0" y="1317.0"/>
      <point x="1227.0" y="1332.0" type="qcurve" smooth="yes"/>
      <point x="1209.0" y="1345.0"/>
      <point x="1158.0" y="1363.0"/>
      <point x="1123.0" y="1363.0" type="qcurve" smooth="yes"/>
      <point x="1066.0" y="1363.0"/>
      <point x="977.0" y="1283.0"/>
      <point x="977.0" y="1170.0" type="qcurve" smooth="yes"/>
      <point x="977.0" y="45.0" type="line" smooth="yes"/>
      <point x="977.0" y="0.0"/>
      <point x="932.0" y="0.0" type="qcurve" smooth="yes"/>
      <point x="848.0" y="0.0" type="line" smooth="yes"/>
      <point x="812.0" y="0.0"/>
      <point x="809.0" y="45.0" type="qcurve" smooth="yes"/>
      <point x="803.0" y="125.0" type="line"/>
      <point x="801.0" y="125.0" type="line"/>
      <point x="746.0" y="59.0"/>
      <point x="608.0" y="-17.0"/>
      <point x="493.0" y="-17.0" type="qcurve" smooth="yes"/>
      <point x="293.0" y="-17.0"/>
      <point x="85.0" y="310.0"/>
    </contour>
    <contour>
      <point x="271.0" y="525.0" type="qcurve" smooth="yes"/>
      <point x="271.0" y="341.0"/>
      <point x="398.0" y="113.0"/>
      <point x="550.0" y="113.0" type="qcurve" smooth="yes"/>
      <point x="658.0" y="113.0"/>
      <point x="801.0" y="260.0"/>
      <point x="801.0" y="410.0" type="qcurve" smooth="yes"/>
      <point x="801.0" y="640.0" type="line" smooth="yes"/>
      <point x="801.0" y="790.0"/>
      <point x="658.0" y="937.0"/>
      <point x="550.0" y="937.0" type="qcurve" smooth="yes"/>
      <point x="398.0" y="937.0"/>
      <point x="271.0" y="709.0"/>
    </contour>
  </outline>
</glyph>
<glyph name="uni025B" format="2">
  <advance width="918"/>
  <unicode hex="025B"/>
  <outline>
    <contour>
      <point x="100.0" y="308.0" type="qcurve" smooth="yes"/>
      <point x="100.0" y="388.0"/>
      <point x="206.0" y="533.0"/>
      <point x="285.0" y="556.0" type="qcurve"/>
      <point x="285.0" y="559.0" type="line"/>
      <point x="226.0" y="586.0"/>
      <point x="147.0" y="686.0"/>
      <point x="147.0" y="792.0" type="qcurve" smooth="yes"/>
      <point x="147.0" y="894.0"/>
      <point x="339.0" y="1067.0"/>
      <point x="502.0" y="1067.0" type="qcurve" smooth="yes"/>
      <point x="614.0" y="1067.0"/>
      <point x="750.0" y="1020.0"/>
      <point x="810.0" y="970.0" type="qcurve" smooth="yes"/>
      <point x="853.0" y="935.0"/>
      <point x="823.0" y="905.0" type="qcurve" smooth="yes"/>
      <point x="770.0" y="852.0" type="line" smooth="yes"/>
      <point x="750.0" y="833.0"/>
      <point x="702.0" y="872.0" type="qcurve" smooth="yes"/>
      <point x="676.0" y="893.0"/>
      <point x="560.0" y="937.0"/>
      <point x="508.0" y="937.0" type="qcurve" smooth="yes"/>
      <point x="428.0" y="937.0"/>
      <point x="323.0" y="868.0"/>
      <point x="323.0" y="779.0" type="qcurve" smooth="yes"/>
      <point x="323.0" y="690.0"/>
      <point x="418.0" y="613.0"/>
      <point x="509.0" y="613.0" type="qcurve" smooth="yes"/>
      <point x="582.0" y="613.0" type="line" smooth="yes"/>
      <point x="622.0" y="613.0"/>
      <point x="622.0" y="578.0" type="qcurve" smooth="yes"/>
      <point x="622.0" y="518.0" type="line" smooth="yes"/>
      <point x="622.0" y="483.0"/>
      <point x="582.0" y="483.0" type="qcurve" smooth="yes"/>
      <point x="500.0" y="483.0" type="line" smooth="yes"/>
      <point x="402.0" y="483.0"/>
      <point x="286.0" y="388.0"/>
      <point x="286.0" y="300.0" type="qcurve" smooth="yes"/>
      <point x="286.0" y="224.0"/>
      <point x="382.0" y="113.0"/>
      <point x="506.0" y="113.0" type="qcurve" smooth="yes"/>
      <point x="588.0" y="113.0"/>
      <point x="708.0" y="188.0"/>
      <point x="720.0" y="201.0" type="qcurve" smooth="yes"/>
      <point x="758.0" y="241.0"/>
      <point x="784.0" y="215.0" type="qcurve" smooth="yes"/>
      <point x="839.0" y="161.0" type="line" smooth="yes"/>
      <point x="865.0" y="135.0"/>
      <point x="836.0" y="106.0" type="qcurve" smooth="yes"/>
      <point x="798.0" y="68.0"/>
      <point x="638.0" y="-17.0"/>
      <point x="495.0" y="-17.0" type="qcurve" smooth="yes"/>
      <point x="324.0" y="-17.0"/>
      <point x="100.0" y="134.0"/>
    </contour>
  </outline>
</glyph>
<glyph name="uni025D" format="2">
  <advance width="918"/>
  <unicode hex="025D"/>
  <outline>
    <contour>
      <point x="79.0" y="161.0" type="qcurve" smooth="yes"/>
      <point x="134.0" y="215.0" type="line" smooth="yes"/>
      <point x="160.0" y="241.0"/>
      <point x="198.0" y="201.0" type="qcurve" smooth="yes"/>
      <point x="210.0" y="188.0"/>
      <point x="330.0" y="113.0"/>
      <point x="412.0" y="113.0" type="qcurve" smooth="yes"/>
      <point x="536.0" y="113.0"/>
      <point x="632.0" y="224.0"/>
      <point x="632.0" y="300.0" type="qcurve" smooth="yes"/>
      <point x="632.0" y="388.0"/>
      <point x="516.0" y="483.0"/>
      <point x="418.0" y="483.0" type="qcurve" smooth="yes"/>
      <point x="336.0" y="483.0" type="line" smooth="yes"/>
      <point x="296.0" y="483.0"/>
      <point x="296.0" y="518.0" type="qcurve" smooth="yes"/>
      <point x="296.0" y="578.0" type="line" smooth="yes"/>
      <point x="296.0" y="613.0"/>
      <point x="336.0" y="613.0" type="qcurve" smooth="yes"/>
      <point x="409.0" y="613.0" type="line" smooth="yes"/>
      <point x="500.0" y="613.0"/>
      <point x="595.0" y="690.0"/>
      <point x="595.0" y="779.0" type="qcurve" smooth="yes"/>
      <point x="595.0" y="868.0"/>
      <point x="490.0" y="937.0"/>
      <point x="410.0" y="937.0" type="qcurve" smooth="yes"/>
      <point x="358.0" y="937.0"/>
      <point x="242.0" y="893.0"/>
      <point x="216.0" y="872.0" type="qcurve" smooth="yes"/>
      <point x="168.0" y="833.0"/>
      <point x="148.0" y="852.0" type="qcurve" smooth="yes"/>
      <point x="95.0" y="905.0" type="line" smooth="yes"/>
      <point x="65.0" y="935.0"/>
      <point x="108.0" y="970.0" type="qcurve" smooth="yes"/>
      <point x="168.0" y="1020.0"/>
      <point x="304.0" y="1067.0"/>
      <point x="416.0" y="1067.0" type="qcurve" smooth="yes"/>
      <point x="579.0" y="1067.0"/>
      <point x="751.0" y="912.0"/>
      <point x="767.0" y="834.0" type="qcurve"/>
      <point x="1033.0" y="917.0" type="line" smooth="yes"/>
      <point x="1064.0" y="927.0"/>
      <point x="1074.0" y="910.0" type="qcurve" smooth="yes"/>
      <point x="1093.0" y="879.0" type="line" smooth="yes"/>
      <point x="1111.0" y="850.0"/>
      <point x="1091.0" y="830.0" type="qcurve" smooth="yes"/>
      <point x="1053.0" y="791.0"/>
      <point x="1014.0" y="699.0"/>
      <point x="1014.0" y="668.0" type="qcurve" smooth="yes"/>
      <point x="1014.0" y="612.0"/>
      <point x="1059.0" y="557.0"/>
      <point x="1111.0" y="557.0" type="qcurve" smooth="yes"/>
      <point x="1166.0" y="557.0"/>
      <point x="1225.0" y="583.0" type="qcurve" smooth="yes"/>
      <point x="1250.0" y="594.0"/>
      <point x="1261.0" y="570.0" type="qcurve" smooth="yes"/>
      <point x="1282.0" y="524.0" type="line" smooth="yes"/>
      <point x="1292.0" y="501.0"/>
      <point x="1277.0" y="490.0" type="qcurve" smooth="yes"/>
      <point x="1241.0" y="463.0"/>
      <point x="1148.0" y="432.0"/>
      <point x="1087.0" y="432.0" type="qcurve" smooth="yes"/>
      <point x="993.0" y="432.0"/>
      <point x="884.0" y="543.0"/>
      <point x="884.0" y="619.0" type="qcurve" smooth="yes"/>
      <point x="884.0" y="646.0"/>
      <point x="901.0" y="709.0"/>
      <point x="917.0" y="734.0" type="qcurve"/>
      <point x="917.0" y="738.0" type="line"/>
      <point x="757.0" y="686.0" type="line"/>
      <point x="747.0" y="656.0"/>
      <point x="692.0" y="586.0"/>
      <point x="633.0" y="559.0" type="qcurve"/>
      <point x="633.0" y="556.0" type="line"/>
      <point x="712.0" y="533.0"/>
      <point x="818.0" y="388.0"/>
      <point x="818.0" y="308.0" type="qcurve" smooth="yes"/>
      <point x="818.0" y="134.0"/>
      <point x="594.0" y="-17.0"/>
      <point x="423.0" y="-17.0" type="qcurve" smooth="yes"/>
      <point x="280.0" y="-17.0"/>
      <point x="120.0" y="68.0"/>
      <point x="82.0" y="106.0" type="qcurve" smooth="yes"/>
      <point x="53.0" y="135.0"/>
    </contour>
  </outline>
</glyph>
<glyph name="uni0263" format="2">
  <advance width="1010"/>
  <unicode hex="0263"/>
  <outline>
    <contour>
      <point x="45.0" y="1001.0" type="line" smooth="yes"/>
      <point x="23.0" y="1050.0"/>
      <point x="72.0" y="1050.0" type="qcurve" smooth="yes"/>
      <point x="181.0" y="1050.0" type="line" smooth="yes"/>
      <point x="210.0" y="1050.0"/>
      <point x="226.0" y="1011.0" type="qcurve" smooth="yes"/>
      <point x="469.0" y="417.0" type="line" smooth="yes"/>
      <point x="482.0" y="386.0"/>
      <point x="498.0" y="338.0"/>
      <point x="503.0" y="311.0" type="qcurve"/>
      <point x="507.0" y="311.0" type="line"/>
      <point x="512.0" y="338.0"/>
      <point x="528.0" y="386.0"/>
      <point x="541.0" y="417.0" type="qcurve" smooth="yes"/>
      <point x="784.0" y="1011.0" type="line" smooth="yes"/>
      <point x="800.0" y="1050.0"/>
      <point x="829.0" y="1050.0" type="qcurve" smooth="yes"/>
      <point x="938.0" y="1050.0" type="line" smooth="yes"/>
      <point x="987.0" y="1050.0"/>
      <point x="965.0" y="1001.0" type="qcurve" smooth="yes"/>
      <point x="611.0" y="203.0" type="line"/>
      <point x="711.0" y="43.0"/>
      <point x="782.0" y="-103.0"/>
      <point x="782.0" y="-173.0" type="qcurve" smooth="yes"/>
      <point x="782.0" y="-288.0"/>
      <point x="665.0" y="-416.0"/>
      <point x="505.0" y="-416.0" type="qcurve" smooth="yes"/>
      <point x="345.0" y="-416.0"/>
      <point x="228.0" y="-288.0"/>
      <point x="228.0" y="-173.0" type="qcurve" smooth="yes"/>
      <point x="228.0" y="-103.0"/>
      <point x="299.0" y="43.0"/>
      <point x="399.0" y="203.0" type="qcurve"/>
    </contour>
    <contour>
      <point x="404.0" y="-170.0" type="qcurve" smooth="yes"/>
      <point x="404.0" y="-225.0"/>
      <point x="445.0" y="-286.0"/>
      <point x="505.0" y="-286.0" type="qcurve" smooth="yes"/>
      <point x="565.0" y="-286.0"/>
      <point x="606.0" y="-225.0"/>
      <point x="606.0" y="-170.0" type="qcurve" smooth="yes"/>
      <point x="606.0" y="-135.0"/>
      <point x="556.0" y="-15.0"/>
      <point x="506.0" y="80.0" type="qcurve"/>
      <point x="504.0" y="80.0" type="line"/>
      <point x="454.0" y="-15.0"/>
      <point x="404.0" y="-135.0"/>
    </contour>
  </outline>
</glyph>
<glyph name="uni0264" format="2">
  <advance width="1010"/>
  <unicode hex="0264"/>
  <outline>
    <contour>
      <point x="45.0" y="1001.0" type="line" smooth="yes"/>
      <point x="9.0" y="1050.0"/>
      <point x="72.0" y="1050.0" type="qcurve" smooth="yes"/>
      <point x="197.0" y="1050.0" type="line" smooth="yes"/>
      <point x="214.0" y="1050.0"/>
      <point x="242.0" y="1011.0" type="qcurve" smooth="yes"/>
      <point x="464.0" y="706.0" type="line" smooth="yes"/>
      <point x="482.0" y="680.0"/>
      <point x="498.0" y="648.0"/>
      <point x="503.0" y="620.0" type="qcurve"/>
      <point x="507.0" y="620.0" type="line"/>
      <point x="512.0" y="648.0"/>
      <point x="528.0" y="680.0"/>
      <point x="546.0" y="706.0" type="qcurve" smooth="yes"/>
      <point x="768.0" y="1011.0" type="line" smooth="yes"/>
      <point x="796.0" y="1050.0"/>
      <point x="813.0" y="1050.0" type="qcurve" smooth="yes"/>
      <point x="938.0" y="1050.0" type="line" smooth="yes"/>
      <point x="1001.0" y="1050.0"/>
      <point x="965.0" y="1001.0" type="qcurve" smooth="yes"/>
      <point x="619.0" y="536.0" type="line"/>
      <point x="720.0" y="418.0"/>
      <point x="776.0" y="273.0"/>
      <point x="776.0" y="223.0" type="qcurve" smooth="yes"/>
      <point x="776.0" y="114.0"/>
      <point x="626.0" y="-17.0"/>
      <point x="505.0" y="-17.0" type="qcurve" smooth="yes"/>
      <point x="384.0" y="-17.0"/>
      <point x="234.0" y="114.0"/>
      <point x="234.0" y="223.0" type="qcurve" smooth="yes"/>
      <point x="234.0" y="273.0"/>
      <point x="290.0" y="418.0"/>
      <point x="391.0" y="536.0" type="qcurve"/>
    </contour>
    <contour>
      <point x="410.0" y="223.0" type="qcurve" smooth="yes"/>
      <point x="410.0" y="168.0"/>
      <point x="452.0" y="113.0"/>
      <point x="505.0" y="113.0" type="qcurve" smooth="yes"/>
      <point x="558.0" y="113.0"/>
      <point x="600.0" y="168.0"/>
      <point x="600.0" y="223.0" type="qcurve" smooth="yes"/>
      <point x="600.0" y="256.0"/>
      <point x="578.0" y="346.0"/>
      <point x="506.0" y="446.0" type="qcurve"/>
      <point x="504.0" y="446.0" type="line"/>
      <point x="432.0" y="346.0"/>
      <point x="410.0" y="256.0"/>
    </contour>
  </outline>
</glyph>
<glyph name="uni0265" format="2">
  <advance width="1120"/>
  <unicode hex="0265"/>
  <outline>
    <contour>
      <point x="140.0" y="366.0" type="qcurve" smooth="yes"/>
      <point x="140.0" y="1005.0" type="line" smooth="yes"/>
      <point x="140.0" y="1050.0"/>
      <point x="185.0" y="1050.0" type="qcurve" smooth="yes"/>
      <point x="271.0" y="1050.0" type="line" smooth="yes"/>
      <point x="316.0" y="1050.0"/>
      <point x="316.0" y="1005.0" type="qcurve" smooth="yes"/>
      <point x="316.0" y="414.0" type="line" smooth="yes"/>
      <point x="316.0" y="218.0"/>
      <point x="446.0" y="113.0"/>
      <point x="542.0" y="113.0" type="qcurve" smooth="yes"/>
      <point x="668.0" y="113.0"/>
      <point x="802.0" y="268.0"/>
      <point x="802.0" y="456.0" type="qcurve" smooth="yes"/>
      <point x="802.0" y="1005.0" type="line" smooth="yes"/>
      <point x="802.0" y="1050.0"/>
      <point x="847.0" y="1050.0" type="qcurve" smooth="yes"/>
      <point x="933.0" y="1050.0" type="line" smooth="yes"/>
      <point x="978.0" y="1050.0"/>
      <point x="978.0" y="1005.0" type="qcurve" smooth="yes"/>
      <point x="978.0" y="-355.0" type="line" smooth="yes"/>
      <point x="978.0" y="-400.0"/>
      <point x="933.0" y="-400.0" type="qcurve" smooth="yes"/>
      <point x="847.0" y="-400.0" type="line" smooth="yes"/>
      <point x="802.0" y="-400.0"/>
      <point x="802.0" y="-355.0" type="qcurve" smooth="yes"/>
      <point x="802.0" y="65.0" type="line" smooth="yes"/>
      <point x="802.0" y="95.0"/>
      <point x="804.0" y="125.0" type="qcurve"/>
      <point x="800.0" y="125.0" type="line"/>
      <point x="735.0" y="53.0"/>
      <point x="585.0" y="-17.0"/>
      <point x="477.0" y="-17.0" type="qcurve" smooth="yes"/>
      <point x="302.0" y="-17.0"/>
      <point x="140.0" y="188.0"/>
    </contour>
  </outline>
</glyph>
<glyph name="uni0268" format="2">
  <advance width="640"/>
  <unicode hex="0268"/>
  <outline>
    <contour>
      <point x="95.0" y="482.0" type="line" smooth="yes"/>
      <point x="50.0" y="482.0"/>
      <point x="50.0" y="517.0" type="qcurve" smooth="yes"/>
      <point x="50.0" y="579.0" type="line" smooth="yes"/>
      <point x="50.0" y="614.0"/>
      <point x="95.0" y="614.0" type="qcurve" smooth="yes"/>
      <point x="232.0" y="614.0" type="line"/>
      <point x="232.0" y="1005.0" type="line" smooth="yes"/>
      <point x="232.0" y="1050.0"/>
      <point x="277.0" y="1050.0" type="qcurve" smooth="yes"/>
      <point x="363.0" y="1050.0" type="line" smooth="yes"/>
      <point x="408.0" y="1050.0"/>
      <point x="408.0" y="1005.0" type="qcurve" smooth="yes"/>
      <point x="408.0" y="614.0" type="line"/>
      <point x="545.0" y="614.0" type="line" smooth="yes"/>
      <point x="590.0" y="614.0"/>
      <point x="590.0" y="579.0" type="qcurve" smooth="yes"/>
      <point x="590.0" y="517.0" type="line" smooth="yes"/>
      <point x="590.0" y="482.0"/>
      <point x="545.0" y="482.0" type="qcurve" smooth="yes"/>
      <point x="408.0" y="482.0" type="line"/>
      <point x="408.0" y="45.0" type="line" smooth="yes"/>
      <point x="408.0" y="0.0"/>
      <point x="363.0" y="0.0" type="qcurve" smooth="yes"/>
      <point x="277.0" y="0.0" type="line" smooth="yes"/>
      <point x="232.0" y="0.0"/>
      <point x="232.0" y="45.0" type="qcurve" smooth="yes"/>
      <point x="232.0" y="482.0" type="line"/>
    </contour>
    <contour>
      <point x="277.0" y="1240.0" type="line" smooth="yes"/>
      <point x="232.0" y="1240.0"/>
      <point x="232.0" y="1285.0" type="qcurve" smooth="yes"/>
      <point x="232.0" y="1371.0" type="line" smooth="yes"/>
      <point x="232.0" y="1416.0"/>
      <point x="277.0" y="1416.0" type="qcurve" smooth="yes"/>
      <point x="363.0" y="1416.0" type="line" smooth="yes"/>
      <point x="408.0" y="1416.0"/>
      <point x="408.0" y="1371.0" type="qcurve" smooth="yes"/>
      <point x="408.0" y="1285.0" type="line" smooth="yes"/>
      <point x="408.0" y="1240.0"/>
      <point x="363.0" y="1240.0" type="qcurve" smooth="yes"/>
    </contour>
  </outline>
</glyph>
<glyph name="uni0269" format="2">
  <advance width="660"/>
  <unicode hex="0269"/>
  <outline>
    <contour>
      <point x="142.0" y="270.0" type="qcurve" smooth="yes"/>
      <point x="142.0" y="1005.0" type="line" smooth="yes"/>
      <point x="142.0" y="1050.0"/>
      <point x="187.0" y="1050.0" type="qcurve" smooth="yes"/>
      <point x="273.0" y="1050.0" type="line" smooth="yes"/>
      <point x="318.0" y="1050.0"/>
      <point x="318.0" y="1005.0" type="qcurve" smooth="yes"/>
      <point x="318.0" y="281.0" type="line" smooth="yes"/>
      <point x="318.0" y="176.0"/>
      <point x="368.0" y="113.0"/>
      <point x="416.0" y="113.0" type="qcurve" smooth="yes"/>
      <point x="444.0" y="113.0"/>
      <point x="529.0" y="153.0"/>
      <point x="547.0" y="167.0" type="qcurve" smooth="yes"/>
      <point x="565.0" y="181.0"/>
      <point x="575.0" y="158.0" type="qcurve" smooth="yes"/>
      <point x="608.0" y="81.0" type="line" smooth="yes"/>
      <point x="616.0" y="61.0"/>
      <point x="596.0" y="49.0" type="qcurve" smooth="yes"/>
      <point x="557.0" y="26.0"/>
      <point x="453.0" y="-17.0"/>
      <point x="356.0" y="-17.0" type="qcurve" smooth="yes"/>
      <point x="256.0" y="-17.0"/>
      <point x="142.0" y="133.0"/>
    </contour>
  </outline>
</glyph>
<glyph name="uni026B" format="2">
  <advance width="748"/>
  <unicode hex="026B"/>
  <outline>
    <contour>
      <point x="55.0" y="665.0" type="line" smooth="yes"/>
      <point x="33.0" y="675.0"/>
      <point x="43.0" y="709.0" type="qcurve" smooth="yes"/>
      <point x="64.0" y="780.0"/>
      <point x="165.0" y="870.0"/>
      <point x="245.0" y="870.0" type="qcurve" smooth="yes"/>
      <point x="273.0" y="870.0"/>
      <point x="286.0" y="867.0" type="qcurve"/>
      <point x="286.0" y="1293.0" type="line" smooth="yes"/>
      <point x="286.0" y="1313.0"/>
      <point x="296.0" y="1331.0" type="qcurve" smooth="yes"/>
      <point x="366.0" y="1458.0" type="line" smooth="yes"/>
      <point x="385.0" y="1493.0"/>
      <point x="397.0" y="1493.0" type="qcurve" smooth="yes"/>
      <point x="432.0" y="1493.0" type="line" smooth="yes"/>
      <point x="462.0" y="1493.0"/>
      <point x="462.0" y="1458.0" type="qcurve" smooth="yes"/>
      <point x="462.0" y="774.0" type="line"/>
      <point x="488.0" y="760.0"/>
      <point x="516.0" y="760.0" type="qcurve" smooth="yes"/>
      <point x="559.0" y="760.0"/>
      <point x="601.0" y="804.0"/>
      <point x="617.0" y="842.0" type="qcurve" smooth="yes"/>
      <point x="630.0" y="872.0"/>
      <point x="654.0" y="862.0" type="qcurve" smooth="yes"/>
      <point x="693.0" y="845.0" type="line" smooth="yes"/>
      <point x="715.0" y="835.0"/>
      <point x="705.0" y="801.0" type="qcurve" smooth="yes"/>
      <point x="684.0" y="730.0"/>
      <point x="583.0" y="640.0"/>
      <point x="503.0" y="640.0" type="qcurve" smooth="yes"/>
      <point x="475.0" y="640.0"/>
      <point x="462.0" y="643.0" type="qcurve"/>
      <point x="462.0" y="45.0" type="line" smooth="yes"/>
      <point x="462.0" y="0.0"/>
      <point x="417.0" y="0.0" type="qcurve" smooth="yes"/>
      <point x="331.0" y="0.0" type="line" smooth="yes"/>
      <point x="286.0" y="0.0"/>
      <point x="286.0" y="45.0" type="qcurve" smooth="yes"/>
      <point x="286.0" y="736.0" type="line"/>
      <point x="260.0" y="750.0"/>
      <point x="232.0" y="750.0" type="qcurve" smooth="yes"/>
      <point x="189.0" y="750.0"/>
      <point x="147.0" y="706.0"/>
      <point x="131.0" y="668.0" type="qcurve" smooth="yes"/>
      <point x="118.0" y="638.0"/>
      <point x="94.0" y="648.0" type="qcurve" smooth="yes"/>
    </contour>
  </outline>
</glyph>
<glyph name="uni026D" format="2">
  <advance width="470"/>
  <unicode hex="026D"/>
  <outline>
    <contour>
      <point x="142.0" y="-93.0" type="qcurve" smooth="yes"/>
      <point x="142.0" y="1293.0" type="line" smooth="yes"/>
      <point x="142.0" y="1313.0"/>
      <point x="152.0" y="1331.0" type="qcurve" smooth="yes"/>
      <point x="222.0" y="1458.0" type="line" smooth="yes"/>
      <point x="241.0" y="1493.0"/>
      <point x="253.0" y="1493.0" type="qcurve" smooth="yes"/>
      <point x="288.0" y="1493.0" type="line" smooth="yes"/>
      <point x="318.0" y="1493.0"/>
      <point x="318.0" y="1458.0" type="qcurve" smooth="yes"/>
      <point x="318.0" y="6.0" type="line" smooth="yes"/>
      <point x="318.0" y="-171.0"/>
      <point x="371.0" y="-287.0"/>
      <point x="430.0" y="-287.0" type="qcurve" smooth="yes"/>
      <point x="487.0" y="-287.0"/>
      <point x="526.0" y="-269.0" type="qcurve" smooth="yes"/>
      <point x="546.0" y="-260.0"/>
      <point x="551.0" y="-284.0" type="qcurve" smooth="yes"/>
      <point x="568.0" y="-365.0" type="line" smooth="yes"/>
      <point x="572.0" y="-387.0"/>
      <point x="550.0" y="-397.0" type="qcurve" smooth="yes"/>
      <point x="504.0" y="-417.0"/>
      <point x="398.0" y="-417.0" type="qcurve" smooth="yes"/>
      <point x="289.0" y="-417.0"/>
      <point x="142.0" y="-287.0"/>
    </contour>
  </outline>
</glyph>
<glyph name="uni0271" format="2">
  <advance width="1678"/>
  <unicode hex="0271"/>
  <outline>
    <contour>
      <point x="187.0" y="0.0" type="line" smooth="yes"/>
      <point x="142.0" y="0.0"/>
      <point x="142.0" y="45.0" type="qcurve" smooth="yes"/>
      <point x="142.0" y="1005.0" type="line" smooth="yes"/>
      <point x="142.0" y="1050.0"/>
      <point x="187.0" y="1050.0" type="qcurve" smooth="yes"/>
      <point x="271.0" y="1050.0" type="line" smooth="yes"/>
      <point x="316.0" y="1050.0"/>
      <point x="316.0" y="1005.0" type="qcurve" smooth="yes"/>
      <point x="316.0" y="925.0" type="line"/>
      <point x="320.0" y="925.0" type="line"/>
      <point x="385.0" y="997.0"/>
      <point x="537.0" y="1067.0"/>
      <point x="607.0" y="1067.0" type="qcurve" smooth="yes"/>
      <point x="736.0" y="1067.0"/>
      <point x="875.0" y="938.0"/>
      <point x="895.0" y="873.0" type="qcurve"/>
      <point x="899.0" y="873.0" type="line"/>
      <point x="954.0" y="955.0"/>
      <point x="1122.0" y="1067.0"/>
      <point x="1217.0" y="1067.0" type="qcurve" smooth="yes"/>
      <point x="1376.0" y="1067.0"/>
      <point x="1538.0" y="862.0"/>
      <point x="1538.0" y="684.0" type="qcurve" smooth="yes"/>
      <point x="1538.0" y="-93.0" type="line" smooth="yes"/>
      <point x="1538.0" y="-287.0"/>
      <point x="1391.0" y="-417.0"/>
      <point x="1282.0" y="-417.0" type="qcurve" smooth="yes"/>
      <point x="1176.0" y="-417.0"/>
      <point x="1130.0" y="-397.0" type="qcurve" smooth="yes"/>
      <point x="1108.0" y="-387.0"/>
      <point x="1112.0" y="-365.0" type="qcurve" smooth="yes"/>
      <point x="1129.0" y="-284.0" type="line" smooth="yes"/>
      <point x="1134.0" y="-260.0"/>
      <point x="1154.0" y="-269.0" type="qcurve" smooth="yes"/>
      <point x="1193.0" y="-287.0"/>
      <point x="1250.0" y="-287.0" type="qcurve" smooth="yes"/>
      <point x="1309.0" y="-287.0"/>
      <point x="1362.0" y="-171.0"/>
      <point x="1362.0" y="6.0" type="qcurve" smooth="yes"/>
      <point x="1362.0" y="626.0" type="line" smooth="yes"/>
      <point x="1362.0" y="822.0"/>
      <point x="1264.0" y="937.0"/>
      <point x="1162.0" y="937.0" type="qcurve" smooth="yes"/>
      <point x="1062.0" y="937.0"/>
      <point x="928.0" y="766.0"/>
      <point x="928.0" y="594.0" type="qcurve" smooth="yes"/>
      <point x="928.0" y="45.0" type="line" smooth="yes"/>
      <point x="928.0" y="0.0"/>
      <point x="883.0" y="0.0" type="qcurve" smooth="yes"/>
      <point x="797.0" y="0.0" type="line" smooth="yes"/>
      <point x="752.0" y="0.0"/>
      <point x="752.0" y="45.0" type="qcurve" smooth="yes"/>
      <point x="752.0" y="626.0" type="line" smooth="yes"/>
      <point x="752.0" y="822.0"/>
      <point x="654.0" y="937.0"/>
      <point x="552.0" y="937.0" type="qcurve" smooth="yes"/>
      <point x="452.0" y="937.0"/>
      <point x="318.0" y="782.0"/>
      <point x="318.0" y="594.0" type="qcurve" smooth="yes"/>
      <point x="318.0" y="45.0" type="line" smooth="yes"/>
      <point x="318.0" y="0.0"/>
      <point x="273.0" y="0.0" type="qcurve" smooth="yes"/>
    </contour>
  </outline>
</glyph>
<glyph name="uni0282" format="2">
  <advance width="951"/>
  <unicode hex="0282"/>
  <outline>
    <contour>
      <point x="71.0" y="-93.0" type="qcurve" smooth="yes"/>
      <point x="71.0" y="117.0" type="line" smooth="yes"/>
      <point x="71.0" y="144.0"/>
      <point x="77.0" y="152.0" type="qcurve" smooth="yes"/>
      <point x="122.0" y="215.0" type="line" smooth="yes"/>
      <point x="144.0" y="245.0"/>
      <point x="187.0" y="212.0" type="qcurve" smooth="yes"/>
      <point x="246.0" y="167.0"/>
      <point x="391.0" y="113.0"/>
      <point x="484.0" y="113.0" type="qcurve" smooth="yes"/>
      <point x="539.0" y="113.0"/>
      <point x="625.0" y="140.0"/>
      <point x="690.0" y="214.0"/>
      <point x="690.0" y="276.0" type="qcurve" smooth="yes"/>
      <point x="690.0" y="312.0"/>
      <point x="659.0" y="376.0"/>
      <point x="594.0" y="415.0"/>
      <point x="563.0" y="426.0" type="qcurve" smooth="yes"/>
      <point x="512.0" y="445.0"/>
      <point x="411.0" y="470.0"/>
      <point x="329.0" y="496.0" type="qcurve" smooth="yes"/>
      <point x="274.0" y="513.0"/>
      <point x="176.0" y="576.0"/>
      <point x="103.0" y="684.0"/>
      <point x="103.0" y="779.0" type="qcurve" smooth="yes"/>
      <point x="103.0" y="876.0"/>
      <point x="221.0" y="1016.0"/>
      <point x="399.0" y="1067.0"/>
      <point x="483.0" y="1067.0" type="qcurve" smooth="yes"/>
      <point x="607.0" y="1067.0"/>
      <point x="758.0" y="1010.0"/>
      <point x="813.0" y="971.0" type="qcurve" smooth="yes"/>
      <point x="845.0" y="948.0"/>
      <point x="822.0" y="918.0" type="qcurve" smooth="yes"/>
      <point x="777.0" y="858.0" type="line" smooth="yes"/>
      <point x="756.0" y="829.0"/>
      <point x="712.0" y="860.0" type="qcurve" smooth="yes"/>
      <point x="675.0" y="886.0"/>
      <point x="539.0" y="932.0"/>
      <point x="488.0" y="932.0" type="qcurve" smooth="yes"/>
      <point x="425.0" y="932.0"/>
      <point x="335.0" y="904.0"/>
      <point x="279.0" y="836.0"/>
      <point x="279.0" y="790.0" type="qcurve" smooth="yes"/>
      <point x="279.0" y="755.0"/>
      <point x="301.0" y="700.0"/>
      <point x="361.0" y="654.0"/>
      <point x="415.0" y="640.0" type="qcurve" smooth="yes"/>
      <point x="499.0" y="618.0"/>
      <point x="638.0" y="582.0"/>
      <point x="694.0" y="556.0" type="qcurve" smooth="yes"/>
      <point x="767.0" y="522.0"/>
      <point x="846.0" y="440.0"/>
      <point x="876.0" y="345.0"/>
      <point x="876.0" y="287.0" type="qcurve" smooth="yes"/>
      <point x="876.0" y="180.0"/>
      <point x="749.0" y="32.0"/>
      <point x="593.0" y="-17.0"/>
      <point x="483.0" y="-17.0" type="qcurve" smooth="yes"/>
      <point x="402.0" y="-17.0"/>
      <point x="288.0" y="4.0"/>
      <point x="247.0" y="19.0" type="qcurve"/>
      <point x="247.0" y="6.0" type="line" smooth="yes"/>
      <point x="247.0" y="-171.0"/>
      <point x="300.0" y="-287.0"/>
      <point x="359.0" y="-287.0" type="qcurve" smooth="yes"/>
      <point x="415.0" y="-287.0"/>
      <point x="455.0" y="-269.0" type="qcurve" smooth="yes"/>
      <point x="475.0" y="-260.0"/>
      <point x="480.0" y="-284.0" type="qcurve" smooth="yes"/>
      <point x="497.0" y="-365.0" type="line" smooth="yes"/>
      <point x="502.0" y="-387.0"/>
      <point x="479.0" y="-397.0" type="qcurve" smooth="yes"/>
      <point x="433.0" y="-417.0"/>
      <point x="327.0" y="-417.0" type="qcurve" smooth="yes"/>
      <point x="218.0" y="-417.0"/>
      <point x="71.0" y="-287.0"/>
    </contour>
  </outline>
</glyph>
<glyph name="uni0284" format="2">
  <advance width="662"/>
  <unicode hex="0284"/>
  <outline>
    <contour>
      <point x="0.0" y="-397.0" type="qcurve" smooth="yes"/>
      <point x="-23.0" y="-387.0"/>
      <point x="-18.0" y="-365.0" type="qcurve" smooth="yes"/>
      <point x="-1.0" y="-284.0" type="line" smooth="yes"/>
      <point x="4.0" y="-260.0"/>
      <point x="24.0" y="-269.0" type="qcurve" smooth="yes"/>
      <point x="64.0" y="-287.0"/>
      <point x="120.0" y="-287.0" type="qcurve" smooth="yes"/>
      <point x="179.0" y="-287.0"/>
      <point x="232.0" y="-171.0"/>
      <point x="232.0" y="6.0" type="qcurve" smooth="yes"/>
      <point x="232.0" y="482.0" type="line"/>
      <point x="95.0" y="482.0" type="line" smooth="yes"/>
      <point x="50.0" y="482.0"/>
      <point x="50.0" y="517.0" type="qcurve" smooth="yes"/>
      <point x="50.0" y="579.0" type="line" smooth="yes"/>
      <point x="50.0" y="614.0"/>
      <point x="95.0" y="614.0" type="qcurve" smooth="yes"/>
      <point x="232.0" y="614.0" type="line"/>
      <point x="232.0" y="1199.0" type="line" smooth="yes"/>
      <point x="232.0" y="1366.0"/>
      <point x="419.0" y="1493.0"/>
      <point x="537.0" y="1493.0" type="qcurve" smooth="yes"/>
      <point x="592.0" y="1493.0"/>
      <point x="667.0" y="1476.0"/>
      <point x="715.0" y="1452.0" type="qcurve" smooth="yes"/>
      <point x="738.0" y="1441.0"/>
      <point x="728.0" y="1420.0" type="qcurve" smooth="yes"/>
      <point x="693.0" y="1346.0" type="line" smooth="yes"/>
      <point x="679.0" y="1317.0"/>
      <point x="658.0" y="1332.0" type="qcurve" smooth="yes"/>
      <point x="640.0" y="1345.0"/>
      <point x="589.0" y="1363.0"/>
      <point x="554.0" y="1363.0" type="qcurve" smooth="yes"/>
      <point x="497.0" y="1363.0"/>
      <point x="408.0" y="1283.0"/>
      <point x="408.0" y="1170.0" type="qcurve" smooth="yes"/>
      <point x="408.0" y="614.0" type="line"/>
      <point x="545.0" y="614.0" type="line" smooth="yes"/>
      <point x="590.0" y="614.0"/>
      <point x="590.0" y="579.0" type="qcurve" smooth="yes"/>
      <point x="590.0" y="517.0" type="line" smooth="yes"/>
      <point x="590.0" y="482.0"/>
      <point x="545.0" y="482.0" type="qcurve" smooth="yes"/>
      <point x="408.0" y="482.0" type="line"/>
      <point x="408.0" y="-93.0" type="line" smooth="yes"/>
      <point x="408.0" y="-287.0"/>
      <point x="261.0" y="-417.0"/>
      <point x="152.0" y="-417.0" type="qcurve" smooth="yes"/>
      <point x="46.0" y="-417.0"/>
    </contour>
  </outline>
</glyph>
<glyph name="uni0286" format="2">
  <advance width="845"/>
  <unicode hex="0286"/>
  <outline>
    <contour>
      <point x="8.0" y="-175.0" type="qcurve" smooth="yes"/>
      <point x="8.0" y="-65.0"/>
      <point x="155.0" y="81.0"/>
      <point x="282.0" y="81.0" type="qcurve" smooth="yes"/>
      <point x="336.0" y="81.0"/>
      <point x="396.0" y="60.0" type="qcurve"/>
      <point x="396.0" y="1199.0" type="line" smooth="yes"/>
      <point x="396.0" y="1366.0"/>
      <point x="583.0" y="1493.0"/>
      <point x="706.0" y="1493.0" type="qcurve" smooth="yes"/>
      <point x="766.0" y="1493.0"/>
      <point x="839.0" y="1476.0"/>
      <point x="887.0" y="1452.0" type="qcurve" smooth="yes"/>
      <point x="903.0" y="1444.0"/>
      <point x="903.0" y="1431.0" type="qcurve" smooth="yes"/>
      <point x="903.0" y="1427.0"/>
      <point x="900.0" y="1420.0" type="qcurve" smooth="yes"/>
      <point x="867.0" y="1346.0" type="line" smooth="yes"/>
      <point x="854.0" y="1317.0"/>
      <point x="832.0" y="1332.0" type="qcurve" smooth="yes"/>
      <point x="814.0" y="1345.0"/>
      <point x="763.0" y="1363.0"/>
      <point x="723.0" y="1363.0" type="qcurve" smooth="yes"/>
      <point x="661.0" y="1363.0"/>
      <point x="572.0" y="1283.0"/>
      <point x="572.0" y="1170.0" type="qcurve" smooth="yes"/>
      <point x="572.0" y="5.0" type="line"/>
      <point x="670.0" y="-43.0"/>
      <point x="783.0" y="-180.0"/>
      <point x="805.0" y="-232.0" type="qcurve" smooth="yes"/>
      <point x="823.0" y="-275.0"/>
      <point x="800.0" y="-288.0" type="qcurve" smooth="yes"/>
      <point x="746.0" y="-317.0" type="line" smooth="yes"/>
      <point x="708.0" y="-337.0"/>
      <point x="692.0" y="-299.0" type="qcurve" smooth="yes"/>
      <point x="674.0" y="-257.0"/>
      <point x="614.0" y="-186.0"/>
      <point x="567.0" y="-149.0" type="qcurve"/>
      <point x="558.0" y="-288.0"/>
      <point x="402.0" y="-417.0"/>
      <point x="286.0" y="-417.0" type="qcurve" smooth="yes"/>
      <point x="170.0" y="-417.0"/>
      <point x="8.0" y="-289.0"/>
    </contour>
    <contour>
      <point x="165.0" y="-181.0" type="qcurve" smooth="yes"/>
      <point x="165.0" y="-239.0"/>
      <point x="228.0" y="-287.0"/>
      <point x="266.0" y="-287.0" type="qcurve" smooth="yes"/>
      <point x="358.0" y="-287.0"/>
      <point x="390.0" y="-146.0"/>
      <point x="394.0" y="-77.0" type="qcurve"/>
      <point x="326.0" y="-60.0"/>
      <point x="276.0" y="-60.0" type="qcurve" smooth="yes"/>
      <point x="222.0" y="-60.0"/>
      <point x="165.0" y="-123.0"/>
    </contour>
  </outline>
</glyph>
<glyph name="uni0289" format="2">
  <advance width="1302"/>
  <unicode hex="0289"/>
  <outline>
    <contour>
      <point x="95.0" y="482.0" type="line" smooth="yes"/>
      <point x="50.0" y="482.0"/>
      <point x="50.0" y="517.0" type="qcurve" smooth="yes"/>
      <point x="50.0" y="579.0" type="line" smooth="yes"/>
      <point x="50.0" y="614.0"/>
      <point x="95.0" y="614.0" type="qcurve" smooth="yes"/>
      <point x="232.0" y="614.0" type="line"/>
      <point x="232.0" y="1005.0" type="line" smooth="yes"/>
      <point x="232.0" y="1050.0"/>
      <point x="277.0" y="1050.0" type="qcurve" smooth="yes"/>
      <point x="363.0" y="1050.0" type="line" smooth="yes"/>
      <point x="408.0" y="1050.0"/>
      <point x="408.0" y="1005.0" type="qcurve" smooth="yes"/>
      <point x="408.0" y="614.0" type="line"/>
      <point x="894.0" y="614.0" type="line"/>
      <point x="894.0" y="1005.0" type="line" smooth="yes"/>
      <point x="894.0" y="1050.0"/>
      <point x="939.0" y="1050.0" type="qcurve" smooth="yes"/>
      <point x="1025.0" y="1050.0" type="line" smooth="yes"/>
      <point x="1070.0" y="1050.0"/>
      <point x="1070.0" y="1005.0" type="qcurve" smooth="yes"/>
      <point x="1070.0" y="614.0" type="line"/>
      <point x="1207.0" y="614.0" type="line" smooth="yes"/>
      <point x="1252.0" y="614.0"/>
      <point x="1252.0" y="579.0" type="qcurve" smooth="yes"/>
      <point x="1252.0" y="517.0" type="line" smooth="yes"/>
      <point x="1252.0" y="482.0"/>
      <point x="1207.0" y="482.0" type="qcurve" smooth="yes"/>
      <point x="1070.0" y="482.0" type="line"/>
      <point x="1070.0" y="45.0" type="line" smooth="yes"/>
      <point x="1070.0" y="0.0"/>
      <point x="1025.0" y="0.0" type="qcurve" smooth="yes"/>
      <point x="941.0" y="0.0" type="line" smooth="yes"/>
      <point x="896.0" y="0.0"/>
      <point x="896.0" y="45.0" type="qcurve" smooth="yes"/>
      <point x="896.0" y="125.0" type="line"/>
      <point x="892.0" y="125.0" type="line"/>
      <point x="827.0" y="53.0"/>
      <point x="677.0" y="-17.0"/>
      <point x="569.0" y="-17.0" type="qcurve" smooth="yes"/>
      <point x="394.0" y="-17.0"/>
      <point x="232.0" y="188.0"/>
      <point x="232.0" y="366.0" type="qcurve" smooth="yes"/>
      <point x="232.0" y="482.0" type="line"/>
    </contour>
    <contour>
      <point x="408.0" y="414.0" type="line" smooth="yes"/>
      <point x="408.0" y="218.0"/>
      <point x="538.0" y="113.0"/>
      <point x="634.0" y="113.0" type="qcurve" smooth="yes"/>
      <point x="760.0" y="113.0"/>
      <point x="894.0" y="268.0"/>
      <point x="894.0" y="456.0" type="qcurve" smooth="yes"/>
      <point x="894.0" y="482.0" type="line"/>
      <point x="408.0" y="482.0" type="line"/>
    </contour>
  </outline>
</glyph>
<glyph name="uni028B" format="2">
  <advance width="1024"/>
  <unicode hex="028B"/>
  <outline>
    <contour>
      <point x="142.0" y="389.0" type="qcurve" smooth="yes"/>
      <point x="142.0" y="1005.0" type="line" smooth="yes"/>
      <point x="142.0" y="1050.0"/>
      <point x="187.0" y="1050.0" type="qcurve" smooth="yes"/>
      <point x="273.0" y="1050.0" type="line" smooth="yes"/>
      <point x="318.0" y="1050.0"/>
      <point x="318.0" y="1005.0" type="qcurve" smooth="yes"/>
      <point x="318.0" y="368.0" type="line" smooth="yes"/>
      <point x="318.0" y="208.0"/>
      <point x="426.0" y="113.0"/>
      <point x="513.0" y="113.0" type="qcurve" smooth="yes"/>
      <point x="622.0" y="113.0"/>
      <point x="753.0" y="306.0"/>
      <point x="753.0" y="527.0" type="qcurve" smooth="yes"/>
      <point x="753.0" y="688.0"/>
      <point x="659.0" y="911.0"/>
      <point x="626.0" y="977.0" type="qcurve" smooth="yes"/>
      <point x="605.0" y="1020.0"/>
      <point x="635.0" y="1030.0" type="qcurve" smooth="yes"/>
      <point x="733.0" y="1064.0" type="line" smooth="yes"/>
      <point x="766.0" y="1075.0"/>
      <point x="790.0" y="1036.0" type="qcurve" smooth="yes"/>
      <point x="841.0" y="953.0"/>
      <point x="939.0" y="698.0"/>
      <point x="939.0" y="569.0" type="qcurve" smooth="yes"/>
      <point x="939.0" y="270.0"/>
      <point x="721.0" y="-17.0"/>
      <point x="491.0" y="-17.0" type="qcurve" smooth="yes"/>
      <point x="341.0" y="-17.0"/>
      <point x="142.0" y="160.0"/>
    </contour>
  </outline>
</glyph>
<glyph name="uni028F" format="2">
  <advance width="1026"/>
  <unicode hex="028F"/>
  <outline>
    <contour>
      <point x="45.0" y="988.0" type="line" smooth="yes"/>
      <point x="5.0" y="1050.0"/>
      <point x="68.0" y="1050.0" type="qcurve" smooth="yes"/>
      <point x="162.0" y="1050.0" type="line" smooth="yes"/>
      <point x="194.0" y="1050.0"/>
      <point x="216.0" y="1016.0" type="qcurve" smooth="yes"/>
      <point x="429.0" y="681.0" type="line" smooth="yes"/>
      <point x="452.0" y="645.0"/>
      <point x="502.0" y="562.0"/>
      <point x="512.0" y="522.0" type="qcurve"/>
      <point x="514.0" y="522.0" type="line"/>
      <point x="524.0" y="562.0"/>
      <point x="574.0" y="645.0"/>
      <point x="597.0" y="681.0" type="qcurve" smooth="yes"/>
      <point x="810.0" y="1016.0" type="line" smooth="yes"/>
      <point x="832.0" y="1050.0"/>
      <point x="864.0" y="1050.0" type="qcurve" smooth="yes"/>
      <point x="958.0" y="1050.0" type="line" smooth="yes"/>
      <point x="1021.0" y="1050.0"/>
      <point x="981.0" y="988.0" type="qcurve" smooth="yes"/>
      <point x="601.0" y="405.0" type="line"/>
      <point x="601.0" y="45.0" type="line" smooth="yes"/>
      <point x="601.0" y="0.0"/>
      <point x="556.0" y="0.0" type="qcurve" smooth="yes"/>
      <point x="470.0" y="0.0" type="line" smooth="yes"/>
      <point x="425.0" y="0.0"/>
      <point x="425.0" y="45.0" type="qcurve" smooth="yes"/>
      <point x="425.0" y="405.0" type="line"/>
    </contour>
  </outline>
</glyph>
<glyph name="uni0290" format="2">
  <advance width="1033"/>
  <unicode hex="0290"/>
  <outline>
    <contour>
      <point x="100.0" y="0.0" type="line" smooth="yes"/>
      <point x="55.0" y="0.0"/>
      <point x="55.0" y="35.0" type="qcurve" smooth="yes"/>
      <point x="55.0" y="86.0" type="line" smooth="yes"/>
      <point x="55.0" y="120.0"/>
      <point x="90.0" y="166.0" type="qcurve" smooth="yes"/>
      <point x="668.0" y="918.0" type="line"/>
      <point x="668.0" y="920.0" type="line"/>
      <point x="638.0" y="918.0"/>
      <point x="608.0" y="918.0" type="qcurve" smooth="yes"/>
      <point x="124.0" y="918.0" type="line" smooth="yes"/>
      <point x="79.0" y="918.0"/>
      <point x="79.0" y="953.0" type="qcurve" smooth="yes"/>
      <point x="79.0" y="1015.0" type="line" smooth="yes"/>
      <point x="79.0" y="1050.0"/>
      <point x="124.0" y="1050.0" type="qcurve" smooth="yes"/>
      <point x="826.0" y="1050.0" type="line" smooth="yes"/>
      <point x="871.0" y="1050.0"/>
      <point x="871.0" y="1015.0" type="qcurve" smooth="yes"/>
      <point x="871.0" y="968.0" type="line" smooth="yes"/>
      <point x="871.0" y="938.0"/>
      <point x="834.0" y="890.0" type="qcurve" smooth="yes"/>
      <point x="252.0" y="132.0" type="line"/>
      <point x="252.0" y="130.0" type="line"/>
      <point x="282.0" y="132.0"/>
      <point x="312.0" y="132.0" type="qcurve" smooth="yes"/>
      <point x="850.0" y="132.0" type="line" smooth="yes"/>
      <point x="895.0" y="132.0"/>
      <point x="895.0" y="97.0" type="qcurve" smooth="yes"/>
      <point x="895.0" y="6.0" type="line" smooth="yes"/>
      <point x="895.0" y="-171.0"/>
      <point x="935.0" y="-287.0"/>
      <point x="1000.0" y="-287.0" type="qcurve" smooth="yes"/>
      <point x="1052.0" y="-287.0"/>
      <point x="1096.0" y="-272.0" type="qcurve" smooth="yes"/>
      <point x="1117.0" y="-264.0"/>
      <point x="1121.0" y="-288.0" type="qcurve" smooth="yes"/>
      <point x="1133.0" y="-370.0" type="line" smooth="yes"/>
      <point x="1136.0" y="-393.0"/>
      <point x="1114.0" y="-401.0" type="qcurve" smooth="yes"/>
      <point x="1067.0" y="-417.0"/>
      <point x="968.0" y="-417.0" type="qcurve" smooth="yes"/>
      <point x="866.0" y="-417.0"/>
      <point x="719.0" y="-287.0"/>
      <point x="719.0" y="-93.0" type="qcurve" smooth="yes"/>
      <point x="719.0" y="0.0" type="line"/>
    </contour>
  </outline>
</glyph>
<glyph name="uni0292" format="2">
  <advance width="982"/>
  <unicode hex="0292"/>
  <outline>
    <contour>
      <point x="77.0" y="-271.0" type="qcurve" smooth="yes"/>
      <point x="56.0" y="-235.0"/>
      <point x="79.0" y="-216.0" type="qcurve" smooth="yes"/>
      <point x="139.0" y="-167.0" type="line" smooth="yes"/>
      <point x="169.0" y="-142.0"/>
      <point x="201.0" y="-186.0" type="qcurve" smooth="yes"/>
      <point x="207.0" y="-194.0"/>
      <point x="327.0" y="-287.0"/>
      <point x="440.0" y="-287.0" type="qcurve" smooth="yes"/>
      <point x="588.0" y="-287.0"/>
      <point x="696.0" y="-138.0"/>
      <point x="696.0" y="14.0" type="qcurve" smooth="yes"/>
      <point x="696.0" y="156.0"/>
      <point x="570.0" y="306.0"/>
      <point x="395.0" y="306.0" type="qcurve" smooth="yes"/>
      <point x="320.0" y="306.0" type="line" smooth="yes"/>
      <point x="275.0" y="306.0"/>
      <point x="275.0" y="341.0" type="qcurve" smooth="yes"/>
      <point x="275.0" y="392.0" type="line" smooth="yes"/>
      <point x="275.0" y="428.0"/>
      <point x="310.0" y="472.0" type="qcurve" smooth="yes"/>
      <point x="668.0" y="918.0" type="line"/>
      <point x="668.0" y="920.0" type="line"/>
      <point x="638.0" y="918.0"/>
      <point x="608.0" y="918.0" type="qcurve" smooth="yes"/>
      <point x="124.0" y="918.0" type="line" smooth="yes"/>
      <point x="79.0" y="918.0"/>
      <point x="79.0" y="953.0" type="qcurve" smooth="yes"/>
      <point x="79.0" y="1015.0" type="line" smooth="yes"/>
      <point x="79.0" y="1050.0"/>
      <point x="124.0" y="1050.0" type="qcurve" smooth="yes"/>
      <point x="826.0" y="1050.0" type="line" smooth="yes"/>
      <point x="871.0" y="1050.0"/>
      <point x="871.0" y="1015.0" type="qcurve" smooth="yes"/>
      <point x="871.0" y="968.0" type="line" smooth="yes"/>
      <point x="871.0" y="936.0"/>
      <point x="834.0" y="890.0" type="qcurve" smooth="yes"/>
      <point x="472.0" y="438.0" type="line"/>
      <point x="472.0" y="434.0" type="line"/>
      <point x="657.0" y="434.0"/>
      <point x="882.0" y="219.0"/>
      <point x="882.0" y="22.0" type="qcurve" smooth="yes"/>
      <point x="882.0" y="-204.0"/>
      <point x="669.0" y="-417.0"/>
      <point x="450.0" y="-417.0" type="qcurve" smooth="yes"/>
      <point x="276.0" y="-417.0"/>
      <point x="85.0" y="-285.0"/>
    </contour>
  </outline>
</glyph>
